<?xml version="1.0" standalone="no"?>
<!DOCTYPE svg PUBLIC "-//W3C//DTD SVG 20010904//EN"
 "http://www.w3.org/TR/2001/REC-SVG-20010904/DTD/svg10.dtd">
<svg version="1.0" xmlns="http://www.w3.org/2000/svg"
 width="987.000000pt" height="987.000000pt" viewBox="0 0 987.000000 987.000000"
 preserveAspectRatio="xMidYMid meet">
<metadata>
Created by potrace 1.11, written by Peter Selinger 2001-2013
</metadata>
<g transform="translate(0.000000,987.000000) scale(0.100000,-0.100000)"
fill="#000000" stroke="none">
<path d="M3795 9144 c-468 -23 -869 -93 -1256 -220 -783 -256 -1354 -722
-1520 -1241 l-22 -71 23 -64 c36 -100 98 -216 163 -308 79 -111 296 -327 418
-418 974 -723 2700 -882 4008 -370 374 146 684 337 920 563 203 195 327 378
405 593 l26 72 -38 88 c-83 193 -179 331 -341 493 -203 202 -400 337 -713 488
-414 200 -886 325 -1418 375 -158 15 -528 26 -655 20z"/>
<path d="M7522 7614 c-4 -72 -32 -203 -64 -298 -262 -784 -1244 -1418 -2523
-1630 -283 -47 -599 -76 -837 -76 l-128 0 0 -2800 0 -2800 98 0 c458 1 1095
103 1557 251 304 97 668 262 903 409 478 300 805 674 937 1074 33 100 65 259
65 323 l0 33 150 0 c339 0 596 58 852 193 444 233 754 649 860 1154 22 106 23
123 26 878 4 906 0 961 -84 1214 -159 480 -562 881 -1043 1041 -202 67 -353
90 -603 90 l-158 0 -3 493 c-1 270 -3 473 -5 451z m395 -1790 c343 -71 600
-333 658 -672 14 -78 15 -192 13 -809 -3 -699 -4 -720 -25 -794 -64 -228 -217
-417 -423 -523 -141 -73 -206 -88 -422 -93 l-188 -5 0 1456 0 1456 155 0 c103
0 182 -5 232 -16z"/>
</g>
</svg>
