<?xml version="1.0" encoding="utf-8"?>
<!-- Generator: Adobe Illustrator 22.0.1, SVG Export Plug-In . SVG Version: 6.00 Build 0)  -->
<svg version="1.1" id="Layer_1" xmlns="http://www.w3.org/2000/svg" xmlns:xlink="http://www.w3.org/1999/xlink" x="0px" y="0px"
	 viewBox="0 0 132.2 147.2" style="enable-background:new 0 0 132.2 147.2;" xml:space="preserve">
<style type="text/css">
	.st0{fill:none;}
	.st1{clip-path:url(#SVGID_5_);}
	.st2{fill:#00001F;}
	.st3{fill:#832924;}
	.st4{fill:#B03F2E;}
	.st5{fill:#8B7167;}
	.st6{fill:url(#SVGID_6_);}
	.st7{fill:#E8C3AE;}
	.st8{fill:url(#SVGID_8_);}
	.st9{fill:url(#SVGID_9_);}
	.st10{fill:url(#SVGID_10_);}
	.st11{fill:url(#SVGID_11_);}
	.st12{fill:#473331;}
	.st13{fill:#F8E8C6;}
	.st14{fill:#A87D54;}
	.st15{fill:#2B231B;}
	.st16{fill:#C38E3D;}
	.st17{fill:#352519;}
	.st18{opacity:0.1;}
	.st19{opacity:0.2;}
	.st20{fill:#B67976;}
	.st21{fill:#773F29;}
	.st22{fill:#412C24;}
</style>
<pattern  x="-0.5" y="147.2" width="21.9" height="21.9" patternUnits="userSpaceOnUse" id="New_Pattern_Swatch_3" viewBox="11 -32.9 21.9 21.9" style="overflow:visible;">
	<g>
		<rect x="11" y="-32.9" class="st0" width="21.9" height="21.9"/>
		<g>
			<defs>
				<rect id="SVGID_4_" x="11" y="-32.9" width="21.9" height="21.9"/>
			</defs>
			<clipPath id="SVGID_5_">
				<use xlink:href="#SVGID_4_"  style="overflow:visible;"/>
			</clipPath>
			<g class="st1">
				
					<rect x="3.2" y="-29.7" transform="matrix(0.7071 0.7071 -0.7071 0.7071 -12.3041 -14.1867)" class="st2" width="15.5" height="15.5"/>
				
					<rect x="14.2" y="-40.7" transform="matrix(0.7071 0.7071 -0.7071 0.7071 -16.8492 -25.1595)" class="st3" width="15.5" height="15.5"/>
				
					<rect x="25.2" y="-29.7" transform="matrix(0.7071 0.7071 -0.7071 0.7071 -5.8763 -29.7046)" class="st4" width="15.5" height="15.5"/>
				
					<rect x="14.2" y="-18.7" transform="matrix(0.7071 0.7071 -0.7071 0.7071 -1.3312 -18.7318)" class="st3" width="15.5" height="15.5"/>
			</g>
		</g>
	</g>
</pattern>
<pattern  x="-0.5" y="147.2" width="21" height="21" patternUnits="userSpaceOnUse" id="SVGID_7_" viewBox="11.5 -32.5 21 21" style="overflow:visible;">
	<g>
		<rect x="11.5" y="-32.5" class="st0" width="21" height="21"/>
		<g>
			<rect x="11.5" y="-32.5" class="st0" width="21" height="21"/>
			<g>
				<rect y="-44" class="st3" width="12" height="12"/>
			</g>
			<g>
				<rect x="21" y="-44" class="st3" width="12" height="12"/>
				<rect x="11" y="-43" class="st2" width="11" height="11"/>
			</g>
			<g>
				<rect x="32" y="-43" class="st2" width="11" height="11"/>
			</g>
			<g>
				<rect y="-23" class="st3" width="12" height="12"/>
				<rect x="1" y="-33" class="st4" width="11" height="11"/>
			</g>
			<g>
				<rect x="11" y="-33" class="st3" width="12" height="12"/>
				<rect x="21" y="-23" class="st3" width="12" height="12"/>
				<rect x="11" y="-22" class="st2" width="11" height="11"/>
				<rect x="22" y="-33" class="st4" width="11" height="11"/>
			</g>
			<g>
				<rect x="32" y="-33" class="st3" width="12" height="12"/>
				<rect x="32" y="-22" class="st2" width="11" height="11"/>
			</g>
			<g>
				<rect x="1" y="-12" class="st4" width="11" height="11"/>
			</g>
			<g>
				<rect x="11" y="-12" class="st3" width="12" height="12"/>
				<rect x="22" y="-12" class="st4" width="11" height="11"/>
			</g>
			<g>
				<rect x="32" y="-12" class="st3" width="12" height="12"/>
			</g>
		</g>
	</g>
</pattern>
<rect x="13.5" y="28.6" class="st5" width="5" height="5.5"/>
<pattern  id="SVGID_6_" xlink:href="#SVGID_7_" patternTransform="matrix(1 0 0 -1 -579.4665 -15516.5205)">
</pattern>
<path class="st6" d="M50,130.4L50,130.4L50,130.4L50,130.4c-0.1,0-0.2-0.1-0.3-0.1C49.8,130.3,49.9,130.3,50,130.4z"/>
<path class="st7" d="M117.6,120c0,1.3-0.4,2.4-1,3.4c-0.2,0.3-0.5,0.7-0.8,1c-1.1,1.1-2.7,1.8-4.4,1.8h-6.8v-12.3h6.8
	c2.1,0,4,1.1,5.1,2.8C117.3,117.6,117.6,118.7,117.6,120z"/>
<pattern  id="SVGID_8_" xlink:href="#SVGID_7_" patternTransform="matrix(1 0 0 1 -6.4903 -0.8277)">
</pattern>
<path class="st8" d="M16.1,147.2H0l0-64.4c0-4.5,3.6-8.1,8.1-8.1h0c4.5,0,8.1,3.6,8.1,8.1V147.2z"/>
<pattern  id="SVGID_9_" xlink:href="#SVGID_7_" patternTransform="matrix(1 0 0 1 -6.4903 -0.8277)">
</pattern>
<path class="st9" d="M61.8,80.9v36.9c0,0,0,0-0.1-0.1c-0.1,1-0.2,2-0.3,3c-2,13.1-12,23.5-24.9,26c-1,0.2-2,0.4-3.1,0.5h-6.2
	c-4-0.4-7.7-1.5-11.1-3.2c-1-0.5-2-1.1-2.9-1.7c-2.8-1.8-5.3-4.1-7.4-6.7V80.9c0-0.5,0-1.1,0.1-1.6c0.2-1.6,0.6-3.1,1.3-4.5
	c2.2-4.6,6.9-7.8,12.4-8h28.1c1.6,0,3.2,0.3,4.7,0.8c4.1,1.4,7.4,4.8,8.7,9c0.1,0.4,0.2,0.7,0.3,1.1C61.7,78.7,61.8,79.8,61.8,80.9z
	"/>
<pattern  id="SVGID_10_" xlink:href="#New_Pattern_Swatch_3" patternTransform="matrix(1 0 0 1 -1.5433 -11.3952)">
</pattern>
<path class="st10" d="M52.4,67.1v7.8c0,1.9-1.8,3.3-3.7,2.8L42,75.8l-4.4-1.3l-0.8-0.2c-0.1,0-0.2,0-0.3-0.1
	c-0.4-0.1-0.9-0.1-1.3,0.1l-11.9,3.4c-1.8,0.5-3.7-0.9-3.7-2.8v-7.8c0-0.1,0-0.2,0-0.2c0.1-1,0.6-1.8,1.4-2.3
	c0.4-0.3,0.9-0.4,1.5-0.4h27c0.5,0,0.9,0.1,1.3,0.3C51.8,65,52.4,66,52.4,67.1z"/>
<path class="st7" d="M50.9,53.2v4.6c0,1.2-0.1,2.3-0.4,3.5c-0.3,1.1-0.6,2.1-1.1,3c-0.5,0.9-1.1,1.8-1.7,2.6c-2.4,3-6,4.9-10.1,5.2
	c-0.4,0-0.7,0-1.1,0c-4.5,0-8.5-2-11.1-5.3c-0.7-0.8-1.2-1.7-1.7-2.6c-1-1.9-1.5-4.1-1.5-6.5v-4.6c0-7.9,6.4-14.4,14.4-14.4
	c4,0,7.6,1.6,10.2,4.2C49.3,45.6,50.9,49.2,50.9,53.2z"/>
<g>
	<pattern  id="SVGID_11_" xlink:href="#SVGID_7_" patternTransform="matrix(1 0 0 1 -6.4903 -0.8277)">
	</pattern>
	<path class="st11" d="M104.8,113.8v12.3H79.2c-7,0-13.3-3.2-17.4-8.3c0,0,0,0-0.1-0.1c-0.1-0.1-0.2-0.3-0.3-0.4
		c-2.9-3.8-4.6-8.5-4.6-13.6V76.6h6.2c3.4,0,6.1,2.7,6.1,6.1v21.1c0,5.5,4.5,10,10,10H104.8z"/>
</g>
<path class="st12" d="M115.6,112.5L115.6,112.5l0,12.7c0,0,0,0.1,0,0.1c0.1,2.6,3.6,4.7,8,4.8c1,0,2-0.1,2.9-0.3
	c3-0.7,5.2-2.4,5.2-4.5c0,0,0-0.1,0-0.1v-12.7h0c0,0,0,0,0,0c0-2.7-3.6-4.9-8.1-4.9c-1.5,0-2.9,0.2-4.1,0.7c0,0,0,0,0,0
	C117.2,109.1,115.6,110.7,115.6,112.5C115.6,112.5,115.6,112.5,115.6,112.5z"/>
<g>
	<path class="st13" d="M120.9,108.1C120.9,108.1,120.9,108.1,120.9,108.1c0.1,0,0.1,0,0.2,0C121,108,120.9,108.1,120.9,108.1z
		 M120.9,108.1c0,0,0.1,0,0.1,0C121,108,120.9,108.1,120.9,108.1C120.9,108.1,120.9,108.1,120.9,108.1z M117.6,108.9
		c0.1,0,0.1,0,0.2-0.1C117.7,108.8,117.7,108.8,117.6,108.9C117.6,108.9,117.6,108.9,117.6,108.9z M117.4,109c0,0,0.1,0,0.1-0.1
		C117.5,108.9,117.5,108.9,117.4,109C117.5,108.9,117.4,108.9,117.4,109z M117,109.2c-0.1,0.1-0.2,0.1-0.3,0.2c0,0,0,0,0,0
		c0.2-0.1,0.4-0.2,0.6-0.3c0.1,0,0.2-0.1,0.2-0.1c-0.1,0-0.1,0-0.2,0.1C117.2,109.1,117.1,109.1,117,109.2z M115.9,109.8
		c0,0,0.1-0.1,0.1-0.1c0,0,0.1-0.1,0.1-0.1c0,0-0.1,0-0.1,0.1C116,109.8,116,109.8,115.9,109.8z M115.3,110.4
		c0.1-0.1,0.1-0.1,0.2-0.2c0,0,0,0,0,0c0,0,0,0,0,0C115.5,110.3,115.4,110.3,115.3,110.4z M115.3,110.5
		C115.3,110.4,115.3,110.4,115.3,110.5L115.3,110.5C115.3,110.4,115.3,110.4,115.3,110.5z M122.7,105.3c-4.5,0-8.3,1.9-9.3,4.5
		c-0.1,0.4-0.2,0.8-0.2,1.2v0.1c0,0.2,0,0.4,0.1,0.6c0,0.2,0.1,0.3,0.1,0.5c0,0,0,0.1,0,0.1c0,0.1,0.1,0.3,0.2,0.4c0,0,0,0,0,0
		c0.1,0.1,0.2,0.3,0.2,0.4c0.1,0.2,0.2,0.3,0.4,0.5c0,0,0,0,0,0c0.1,0.1,0.2,0.3,0.4,0.4c0.2,0.2,0.3,0.3,0.5,0.5c0,0,0,0,0.1,0
		c0,0,0,0,0,0c0,0,0,0,0,0c0.1,0.1,0.2,0.2,0.3,0.2c0,0,0.1,0.1,0.1,0.1c0.1,0.1,0.3,0.2,0.5,0.3c0,0,0,0,0,0
		c0.2,0.1,0.4,0.2,0.6,0.3c0,0,0.1,0,0.1,0.1c0.2,0.1,0.4,0.2,0.6,0.2c0,0,0,0,0.1,0c0.1,0,0.2,0.1,0.3,0.1c0.1,0,0.1,0,0.2,0.1
		c0.7,0.2,1.5,0.4,2.4,0.6c0.2,0,0.4,0,0.6,0.1h0c0.1,0,0.1,0,0.2,0c0.2,0,0.3,0,0.5,0c0.3,0,0.6,0,1,0h0c0.4,0,0.9,0,1.3-0.1
		c2.6-0.2,4.9-1.1,6.3-2.3c0.1-0.1,0.2-0.2,0.3-0.3l0,0c0,0,0,0,0,0l0,0c0.4-0.4,0.7-0.8,1-1.3c0.3-0.5,0.4-1.1,0.4-1.6V111
		C132.1,107.8,127.9,105.3,122.7,105.3z M130.3,112.1c-0.6-2.3-3.9-4.1-8-4.1c-0.2,0-0.4,0-0.6,0c0,0,0,0,0,0h0c0,0,0,0,0,0
		c0,0,0,0,0,0c0,0-0.1,0-0.1,0c-0.1,0-0.1,0-0.2,0c-0.1,0-0.2,0-0.3,0c-0.1,0-0.1,0-0.2,0c0,0,0,0-0.1,0c0,0-0.1,0-0.1,0
		c-0.1,0-0.1,0-0.2,0c-0.1,0-0.2,0-0.3,0c-0.1,0-0.2,0-0.4,0.1c0,0-0.1,0-0.1,0c-0.1,0-0.1,0-0.2,0c0,0,0,0,0,0h0
		c-0.3,0.1-0.6,0.1-0.8,0.2c-0.2,0.1-0.4,0.1-0.6,0.2c-0.1,0-0.2,0.1-0.4,0.1c0,0-0.1,0-0.1,0c0,0,0,0,0,0c0,0-0.1,0-0.1,0
		c0,0,0,0,0,0c-0.1,0-0.1,0-0.2,0.1c-0.1,0-0.2,0.1-0.3,0.2c-0.1,0.1-0.2,0.1-0.3,0.2c0,0,0,0,0,0c-0.2,0.1-0.3,0.2-0.5,0.3
		c0,0-0.1,0-0.1,0.1c0,0-0.1,0.1-0.1,0.1c0,0-0.1,0-0.1,0.1c0,0-0.1,0-0.1,0.1c0,0,0,0-0.1,0.1c0,0-0.1,0-0.1,0.1c0,0,0,0,0,0
		c-0.1,0.1-0.1,0.1-0.2,0.2h0c0,0,0,0,0,0c-0.1,0.1-0.2,0.2-0.3,0.3c0,0-0.1,0.1-0.1,0.1c-0.1,0.1-0.1,0.2-0.2,0.2
		c0.7-2.2,4-3.9,7.9-3.9c0.2,0,0.4,0,0.6,0c0.1,0,0.2,0,0.2,0c0.2,0,0.5,0,0.7,0.1s0.5,0.1,0.7,0.1c0,0,0,0,0,0c0.1,0,0.2,0,0.3,0
		c0.1,0,0.2,0,0.2,0.1c0.1,0,0.2,0,0.3,0.1c0.1,0,0.2,0,0.3,0.1c0.2,0.1,0.5,0.1,0.7,0.2c0.2,0.1,0.4,0.2,0.6,0.3c0,0,0,0,0,0h0
		c0,0,0,0,0,0c0.1,0,0.2,0.1,0.3,0.1c0,0,0.1,0,0.1,0c0.1,0,0.2,0.1,0.3,0.1c0,0,0.1,0.1,0.2,0.1c0.2,0.1,0.3,0.2,0.5,0.3
		c0.1,0,0.1,0.1,0.1,0.1c0.1,0.1,0.3,0.2,0.4,0.3c0.1,0.1,0.2,0.2,0.3,0.3c0.2,0.3,0.4,0.5,0.6,0.8c0,0,0,0,0,0
		c0,0.1,0.1,0.1,0.1,0.2c0.1,0.2,0.1,0.4,0.2,0.5C130.5,111.6,130.4,111.8,130.3,112.1z M115.3,110.4
		C115.3,110.4,115.3,110.4,115.3,110.4C115.3,110.4,115.3,110.4,115.3,110.4L115.3,110.4z M115.5,110.2c-0.1,0.1-0.1,0.1-0.2,0.2
		C115.4,110.3,115.5,110.3,115.5,110.2C115.6,110.2,115.6,110.2,115.5,110.2C115.6,110.2,115.6,110.2,115.5,110.2z M116.1,109.8
		c0,0-0.1,0.1-0.1,0.1C116,109.8,116,109.8,116.1,109.8c0,0,0.1,0,0.1-0.1C116.1,109.7,116.1,109.7,116.1,109.8z M117.5,108.9
		C117.5,108.9,117.4,108.9,117.5,108.9c0,0,0.1,0,0.1,0C117.5,108.9,117.5,108.9,117.5,108.9z M117,109.2c-0.1,0.1-0.2,0.1-0.3,0.2
		c0,0,0,0,0,0c0.2-0.1,0.4-0.2,0.6-0.3c0.1,0,0.2-0.1,0.2-0.1c-0.1,0-0.1,0-0.2,0.1C117.2,109.1,117.1,109.1,117,109.2z
		 M117.6,108.9C117.6,108.9,117.6,108.9,117.6,108.9c0,0,0.1,0,0.1,0C117.7,108.8,117.7,108.8,117.6,108.9z M120.9,108.1
		C120.9,108.1,120.9,108.1,120.9,108.1c0.1,0,0.1,0,0.2,0C121,108,120.9,108.1,120.9,108.1z"/>
</g>
<path class="st14" d="M128.7,114c0-0.1,0-0.3,0-0.4v0.9C128.7,114.3,128.7,114.2,128.7,114C128.7,114.1,128.7,114,128.7,114z"/>
<path class="st15" d="M114.8,111.1c1.2-1.8,4.1-3.1,7.5-3.1c4,0,7.4,1.8,8,4.1c0.2-0.3,0.3-0.5,0.4-0.8c-0.6-2.3-3.9-4.1-8-4.1
	C118.8,107.2,115.5,108.9,114.8,111.1z"/>
<path class="st12" d="M114.6,112.1L114.6,112.1l0,12.7c0,0,0,0.1,0,0.1c0,0.4,0.1,0.7,0.2,1.1c0,0,0,0,0,0.1c0.9,2.1,4,3.6,7.7,3.7
	c0,0,0.1,0,0.1,0c3.4,0,6.4-1.3,7.5-3.1c0.3-0.5,0.5-1.1,0.5-1.7c0,0,0-0.1,0-0.1v-12.7h0c0,0,0,0,0,0c0-0.3,0-0.5-0.1-0.8
	c-0.1,0.3-0.2,0.5-0.4,0.8c-0.6-2.3-3.9-4.1-8-4.1c-3.4,0-6.4,1.3-7.5,3.1c0,0,0,0,0,0C114.6,111.4,114.6,111.8,114.6,112.1
	C114.6,112.1,114.6,112.1,114.6,112.1z"/>
<path class="st16" d="M114.2,112.9L114.2,112.9l0,12.7c0,0,0,0.1,0,0.1v0c0,0.1,0,0.2,0,0.4c0.4,2.4,3.8,4.4,8,4.4
	c0.2,0,0.3,0,0.5,0c1.4,0,2.7-0.3,3.8-0.7c-0.9,0.2-1.9,0.3-2.9,0.3c-4.4,0-7.9-2.2-8-4.8c0,0,0-0.1,0-0.1v-12.7h0c0,0,0,0,0,0
	c0-1.8,1.6-3.3,4-4.2c-2.2,0.5-3.9,1.5-4.8,2.8c0,0,0,0,0,0C114.4,111.7,114.2,112.2,114.2,112.9
	C114.2,112.9,114.2,112.9,114.2,112.9z"/>
<path class="st17" d="M115.6,112.5L115.6,112.5l0,12.7c0,0,0,0.1,0,0.1c0.1,2.6,3.6,4.7,8,4.8c1,0,2-0.1,2.9-0.3
	c1.9-0.7,3.3-1.8,3.7-3.2c0.1-0.3,0.2-0.6,0.2-0.9c0,0,0-0.1,0-0.1v-12.7h0c0,0,0,0,0,0c0-0.3,0-0.5-0.1-0.7c-0.6-2.3-3.9-4.1-8-4.1
	c-1,0-1.9,0.1-2.8,0.3c0,0,0,0,0,0C117.2,109.1,115.6,110.7,115.6,112.5C115.6,112.5,115.6,112.5,115.6,112.5z"/>
<path class="st13" d="M113.2,111v14.9c0,0,0,0.1,0,0.1v0c0.1,2.1,2.1,4,5.1,4.9c0,0,0,0,0,0c0.1,0,0.1,0,0.2,0.1h0c0,0,0,0,0.1,0
	c1.2,0.4,2.6,0.6,4,0.6c0,0,0.1,0,0.1,0h0c0.1,0,0.2,0,0.2,0c0,0,0,0,0.1,0c0.1,0,0.2,0,0.3,0c0.1,0,0.1,0,0.2,0c0.2,0,0.3,0,0.5,0
	c4.6-0.4,8.1-2.7,8.1-5.5c0,0,0-0.1,0-0.1V111h-1.4c0,0.1,0,0.2-0.1,0.3c-0.1,0.3-0.2,0.5-0.4,0.8c-1,1.6-3.4,2.8-6.2,3.1
	c-0.4,0-0.9,0.1-1.3,0.1c0,0,0,0-0.1,0c-4,0-7.2-1.8-7.9-4.1c0,0,0,0,0,0c0,0,0-0.1,0-0.1H113.2z"/>
<path class="st18" d="M132.2,111v14.9c0,0,0,0.1,0,0.1c-0.1,2.1-2.1,4-5.1,4.9c0,0,0,0,0,0c-0.1,0-0.1,0-0.2,0.1h0c0,0,0,0-0.1,0
	c-1.2,0.4-2.6,0.6-4,0.6c0,0-0.1,0-0.1,0h0v-15h0C127.9,116.7,132.2,114.2,132.2,111L132.2,111z"/>
<g>
	<path class="st13" d="M114.8,126c-0.2-0.1-0.4-0.2-0.6-0.3c-0.1,0-0.2-0.1-0.2-0.2c-0.5-0.5-0.8-1.1-0.8-1.6c0,0,0-0.1,0-0.1h-0.6
		c-0.4,0-0.7-0.1-1-0.2c-0.7-0.4-1.2-1.1-1.2-2v-3.4c0-0.1,0-0.3,0-0.4c0,0,0,0,0,0c0.2-1,1.1-1.8,2.2-1.8h2.6c-0.2,0-0.4,0-0.6-0.1
		c-0.1,0-0.2-0.1-0.4-0.2c-0.6-0.4-1-1.1-1-2h-0.6c-2.4,0-4.4,2-4.4,4.4v3.4c0,1.7,1,3.2,2.4,4c0.6,0.3,1.3,0.5,2,0.5h2.7
		C115.1,126.1,115,126.1,114.8,126z"/>
</g>
<path class="st19" d="M61.4,76.6v44.1c-2,13.1-12,23.5-24.9,26v-90h19.9c-1.3,3-3.2,5.6-5.6,7.7c0.9,0.5,1.6,1.5,1.6,2.6v0.5
	c4.1,1.4,7.4,4.8,8.7,9H61.4z"/>
<path class="st20" d="M16.1,44.1H14c-3.8,0-6.8-3.1-6.8-6.8v0c0-3.8,3.1-6.8,6.8-6.8h2.1c3.8,0,6.8,3.1,6.8,6.8v0
	C22.9,41.1,19.9,44.1,16.1,44.1z"/>
<path class="st5" d="M56.2,12.6c-1.5-1.4-3.2-2.5-5-3.5c-2.8,1.5-5.9,2.4-9.2,2.5c-0.4,0-0.8,0-1.2,0c-3.8,0-7.3-0.9-10.4-2.6
	c-7.1,3.6-11.9,10.9-11.9,19.4v1.9h-4.9v-8.7c0-5.2,1.9-10.1,4.9-13.8c1.4-1.7,3.1-3.3,5-4.5C26.9,1.3,31,0,35.3,0h1.2
	c1.9,0,3.8,0.2,5.5,0.7c4.5,1.2,8.4,3.7,11.2,7.2C54.4,9.3,55.4,10.9,56.2,12.6z"/>
<path class="st7" d="M58.2,21.8v24.9c-0.1,0.2-0.3,0.4-0.4,0.5c-0.1,0.1-0.2,0.2-0.3,0.4c-0.1,0.2-0.3,0.3-0.5,0.5
	c-0.4,0.4-0.8,0.8-1.3,1.2c-0.3,0.3-0.6,0.5-0.9,0.7c-0.3,0.2-0.6,0.5-0.9,0.7c-0.2,0.1-0.3,0.2-0.5,0.3c0,0,0,0-0.1,0
	c-0.2,0.1-0.4,0.3-0.6,0.4c0,0,0,0,0,0c-0.2,0.1-0.4,0.2-0.6,0.4c0,0,0,0-0.1,0c-0.2,0.1-0.4,0.2-0.7,0.4c0,0,0,0,0,0
	c-0.2,0.1-0.5,0.2-0.7,0.3c0,0,0,0-0.1,0c-0.2,0.1-0.4,0.2-0.5,0.3c-0.1,0-0.1,0-0.2,0.1c-0.4,0.2-0.9,0.4-1.3,0.5
	c-0.1,0-0.1,0.1-0.2,0.1c-0.2,0.1-0.4,0.1-0.6,0.2c-0.3,0.1-0.6,0.2-1,0.3c-0.1,0-0.2,0.1-0.4,0.1c-0.6,0.1-1.2,0.3-1.8,0.3
	c-0.1,0-0.2,0-0.3,0c0,0-0.1,0-0.1,0c-0.1,0-0.2,0-0.3,0c-0.2,0-0.4,0-0.6,0.1c-0.4,0-0.7,0.1-1.1,0.1c0,0-0.1,0-0.1,0
	c0,0-0.1,0-0.1,0c-0.2,0-0.4,0-0.6,0h-1.2c-0.2,0-0.4,0-0.6,0c-0.2,0-0.3,0-0.5,0h0c-0.2,0-0.3,0-0.5,0c-0.4,0-0.8-0.1-1.1-0.1
	c-0.1,0-0.3,0-0.4-0.1c-0.6-0.1-1.3-0.2-1.9-0.4c-0.2,0-0.3-0.1-0.5-0.1c-0.2,0-0.4-0.1-0.5-0.1c-0.1,0-0.2-0.1-0.3-0.1
	c-0.2-0.1-0.4-0.1-0.6-0.2c-0.2-0.1-0.4-0.1-0.6-0.2c-0.2-0.1-0.4-0.2-0.6-0.3c-0.2-0.1-0.4-0.2-0.6-0.2c-0.1,0-0.1-0.1-0.2-0.1
	c-0.6-0.3-1.1-0.5-1.7-0.9c-0.2-0.1-0.3-0.2-0.5-0.3c0,0,0,0,0,0c-0.2-0.1-0.3-0.2-0.5-0.3c-0.2-0.1-0.3-0.2-0.5-0.3
	c-0.6-0.4-1.2-0.8-1.7-1.3c-0.1-0.1-0.2-0.2-0.3-0.2c-0.1-0.1-0.2-0.2-0.3-0.3c0,0,0,0,0,0c-0.1-0.1-0.3-0.2-0.4-0.4
	c-0.1-0.1-0.3-0.3-0.4-0.4c-0.1-0.1-0.3-0.3-0.4-0.4c-0.1-0.1-0.3-0.3-0.4-0.4c-0.1-0.1-0.3-0.3-0.4-0.4c-0.1-0.1-0.2-0.3-0.4-0.4
	c-0.2-0.3-0.5-0.6-0.7-0.9c-0.2-0.3-0.4-0.5-0.6-0.8c-0.1-0.1-0.2-0.3-0.3-0.4c-0.1-0.1-0.1-0.2-0.2-0.3c-0.1-0.1-0.1-0.3-0.2-0.4
	c-0.3-0.5-0.6-1-0.8-1.5c-0.1-0.1-0.1-0.3-0.2-0.4c0-0.1-0.1-0.1-0.1-0.2c-0.1-0.2-0.1-0.3-0.2-0.5c-0.1-0.2-0.1-0.3-0.2-0.5
	c-0.1-0.3-0.3-0.7-0.4-1c-0.1-0.2-0.2-0.5-0.2-0.7c0-0.1-0.1-0.3-0.1-0.4c-0.1-0.2-0.1-0.4-0.1-0.5c0,0,0-0.1,0-0.1
	c0-0.2-0.1-0.3-0.1-0.5c0-0.2-0.1-0.3-0.1-0.5c0-0.1,0-0.1,0-0.2c0-0.2-0.1-0.3-0.1-0.5c0-0.1,0-0.3-0.1-0.4c0-0.1,0-0.2,0-0.3
	c0-0.2,0-0.3-0.1-0.5c0-0.2,0-0.4-0.1-0.6c0-0.1,0-0.3,0-0.4c0-0.5,0-0.9,0-1.4v-4.3c0-8.5,4.9-15.8,11.9-19.4
	c3.1,1.6,6.7,2.6,10.4,2.6c0.4,0,0.8,0,1.2,0c3.3-0.2,6.4-1.1,9.2-2.5c1.8,0.9,3.5,2.1,5,3.5C57.5,15.4,58.2,18.5,58.2,21.8z"/>
<path class="st21" d="M58.3,46.7v1.5c0,0.3,0,0.6,0,0.9c-0.1,1.8-0.3,3.5-0.8,5.1c-0.3,0.9-0.6,1.8-1,2.6c-1.3,3-3.2,5.6-5.6,7.7
	c-1,0.9-2,1.6-3.2,2.3c0,0,0,0,0,0c-1.7,1-3.6,1.8-5.6,2.4c-1.8,0.5-3.6,0.7-5.5,0.7h-1.2c-3.1,0-6.1-0.7-8.8-1.8
	c-0.8-0.4-1.6-0.8-2.3-1.2c-1.1-0.7-2.2-1.4-3.1-2.3c-0.2-0.2-0.4-0.3-0.5-0.5c-4.3-4-7-9.7-7-16V30.4h4.9v2.4c0,0.2,0,0.5,0,0.7
	s0,0.4,0,0.7c0,0.1,0,0.3,0,0.4c0,0.2,0,0.4,0.1,0.5c0,0.2,0,0.3,0.1,0.5c0,0.1,0,0.2,0,0.3c0.1,0.4,0.1,0.8,0.2,1.2
	c0,0.1,0.1,0.3,0.1,0.4c0,0.2,0.1,0.4,0.1,0.6c0,0,0,0.1,0,0.1c0,0.1,0.1,0.3,0.1,0.4c0,0.1,0.1,0.2,0.1,0.4c0,0,0,0,0,0
	c0,0.1,0.1,0.2,0.1,0.3c0.1,0.5,0.3,1,0.5,1.4c0.1,0.2,0.1,0.3,0.2,0.5c0.1,0.2,0.1,0.3,0.2,0.5c0.1,0.2,0.2,0.4,0.3,0.5
	c0.1,0.2,0.2,0.4,0.3,0.6c0.1,0.3,0.3,0.5,0.4,0.8c0.2,0.3,0.3,0.6,0.5,0.9c0,0,0,0,0,0.1c0.2,0.3,0.4,0.6,0.6,0.9c0,0,0,0,0,0
	c0.1,0.2,0.3,0.4,0.4,0.6c0.1,0.1,0.2,0.3,0.3,0.4c0,0,0.1,0.1,0.1,0.1c0,0.1,0.1,0.1,0.1,0.2c0.1,0.1,0.2,0.2,0.3,0.3
	c0.2,0.2,0.4,0.4,0.5,0.6c0.3,0.3,0.6,0.6,0.9,0.9c0.1,0.1,0.2,0.2,0.4,0.3c0,0,0,0,0.1,0.1c0.1,0.1,0.2,0.2,0.3,0.3
	c0.1,0.1,0.2,0.2,0.3,0.2c0.2,0.2,0.4,0.3,0.6,0.4c0.2,0.1,0.4,0.3,0.6,0.4c0.2,0.1,0.4,0.3,0.5,0.4c0.1,0.1,0.2,0.1,0.3,0.2
	c0.2,0.1,0.4,0.2,0.6,0.4c0.2,0.1,0.4,0.3,0.6,0.4c0.2,0.1,0.4,0.2,0.6,0.3c0.2,0.1,0.4,0.2,0.6,0.3c0,0,0,0,0,0
	c0.2,0.1,0.3,0.2,0.5,0.2c0.1,0,0.1,0.1,0.2,0.1c0.2,0.1,0.4,0.2,0.6,0.2c0.1,0,0.2,0.1,0.3,0.1c0.4,0.1,0.8,0.3,1.1,0.4
	c0.4,0.1,0.9,0.3,1.3,0.4c0.2,0.1,0.5,0.1,0.8,0.2c0.1,0,0.2,0,0.3,0.1c0.1,0,0.2,0,0.3,0.1c0.3,0.1,0.7,0.1,1,0.2
	c0.1,0,0.2,0,0.3,0c0.1,0,0.2,0,0.3,0c0.1,0,0.2,0,0.3,0c0.1,0,0.3,0,0.4,0c0,0,0,0,0,0c0,0,0.1,0,0.1,0c0.2,0,0.3,0,0.4,0
	c0.1,0,0.2,0,0.3,0c0.1,0,0.2,0,0.2,0c0.2,0,0.4,0,0.6,0H42c0.3,0,0.5,0,0.8,0c0.2,0,0.3,0,0.5,0c0.3,0,0.7-0.1,1-0.1
	c0.2,0,0.5-0.1,0.8-0.1c0.1,0,0.1,0,0.2,0c0.2,0,0.5-0.1,0.7-0.1c0.1,0,0.2,0,0.2,0c0.2,0,0.4-0.1,0.6-0.1c0.1,0,0.2,0,0.2-0.1
	c0.1,0,0.2-0.1,0.3-0.1c0,0,0,0,0,0c0.2-0.1,0.4-0.1,0.6-0.2c0.2-0.1,0.4-0.1,0.6-0.2c0.2-0.1,0.4-0.2,0.6-0.2
	c0.2-0.1,0.4-0.1,0.5-0.2c0.1,0,0.2-0.1,0.3-0.1c0.2-0.1,0.3-0.1,0.5-0.2c0,0,0.1,0,0.1-0.1c0.1,0,0.1,0,0.1-0.1
	c0.1-0.1,0.3-0.1,0.4-0.2c0,0,0.1,0,0.1-0.1c0.2-0.1,0.4-0.2,0.6-0.3c0,0,0.1,0,0.1-0.1c0.2-0.1,0.4-0.2,0.6-0.4c0,0,0,0,0.1,0
	c0.2-0.1,0.3-0.2,0.5-0.3c0,0,0.1-0.1,0.1-0.1c0.2-0.1,0.3-0.2,0.5-0.3c0.1-0.1,0.3-0.2,0.4-0.3c0.2-0.1,0.4-0.3,0.5-0.4
	c0.3-0.2,0.6-0.5,0.9-0.7c0.2-0.2,0.4-0.3,0.5-0.5c0.1-0.1,0.2-0.2,0.3-0.2c0.2-0.2,0.3-0.3,0.5-0.5c0.2-0.2,0.3-0.3,0.5-0.5
	c0.1-0.1,0.2-0.2,0.2-0.3c0.1-0.1,0.2-0.2,0.3-0.3C58.1,46.9,58.2,46.8,58.3,46.7z"/>
<path class="st20" d="M46.5,45.3v1.1c0,2.9-2.3,5.2-5.2,5.2c-2.9,0-5.2-2.3-5.2-5.2v-1.1H46.5z"/>
<circle class="st22" cx="32.6" cy="31.1" r="1.7"/>
<circle class="st22" cx="51" cy="31.1" r="1.7"/>
<path class="st21" d="M54.8,25.7h-7c-1.1,0-2-0.9-2-2v0c0-1.1,0.9-2,2-2h7c1.1,0,2,0.9,2,2v0C56.8,24.7,55.9,25.7,54.8,25.7z"/>
<path class="st21" d="M36.1,25.7h-7c-1.1,0-2-0.9-2-2v0c0-1.1,0.9-2,2-2h7c1.1,0,2,0.9,2,2v0C38.1,24.7,37.2,25.7,36.1,25.7z"/>
<path class="st21" d="M58.2,49.1c-0.1,1.8-0.4,3.5-0.8,5.1l-4-3.1L52,50c-0.4-0.3-0.9-0.5-1.4-0.6l-8.1-1.2c-0.3,0-0.6,0-0.9,0
	l-8.1,1.2c-0.5,0.1-1,0.3-1.4,0.6l-2.4,1.9l-6.3,5v-5.5l2.5-2.1l2.2-1.9c3.1-2.6,6.8-4.3,10.8-5c1.1-0.2,2.2-0.3,3.3-0.3
	c1.1,0,2.2,0.1,3.3,0.3c2,0.3,3.9,0.9,5.7,1.7c1.8,0.8,3.5,1.9,5,3.2L57,48L58.2,49.1z"/>
<path class="st20" d="M45.7,31.9v8.6c0,2-1.7,3.7-3.7,3.7c-2,0-3.7-1.7-3.7-3.7v-8.6c0-2,1.7-3.7,3.7-3.7c1,0,1.9,0.4,2.6,1.1
	C45.3,30,45.7,30.9,45.7,31.9z"/>
<path class="st18" d="M58.2,21.8v26.4c0,0.3,0,0.6,0,0.9c-0.1,1.8-0.3,3.5-0.8,5.1c-0.3,0.9-0.6,1.8-1,2.6c-1.3,3-3.2,5.6-5.6,7.7
	c-1,0.9-2,1.6-3.2,2.3c0,0,0,0,0,0c-1.7,1-3.6,1.8-5.6,2.4V0.7c4.5,1.2,8.4,3.7,11.2,7.2c0.9,1.1,1.7,2.2,2.3,3.4
	c0.2,0.4,0.4,0.8,0.6,1.2c0.2,0.3,0.3,0.7,0.5,1.1c0.4,1.1,0.8,2.2,1,3.3c0.2,0.8,0.3,1.6,0.4,2.4C58.2,20.1,58.2,20.9,58.2,21.8z"
	/>
</svg>
