<?xml version="1.0" encoding="utf-8"?>
<!-- Generator: Adobe Illustrator 22.0.1, SVG Export Plug-In . SVG Version: 6.00 Build 0)  -->
<svg version="1.1" id="Layer_1" xmlns="http://www.w3.org/2000/svg" xmlns:xlink="http://www.w3.org/1999/xlink" x="0px" y="0px"
	 viewBox="0 0 110.3 192.8" style="enable-background:new 0 0 110.3 192.8;" xml:space="preserve">
<style type="text/css">
	.st0{fill:#F3EEE4;}
	.st1{fill:#352519;}
	.st2{fill:#C38E3D;}
	.st3{fill:#2B231B;}
	.st4{fill:#DBCEC3;}
</style>
<path class="st0" d="M84,101c0,0.1,0,0.2,0,0.2c-0.2,13.9-18.9,25.1-42,25.1h-0.1c-2,0-4-0.1-5.9-0.3C15.8,124.3,0.2,113.8,0,101.2
	c0-0.1,0-0.2,0-0.2c0-14,18.8-25.4,42-25.4c20.1,0,36.9,8.5,41,20C83.7,97.3,84,99.1,84,101z"/>
<path class="st1" d="M77.8,106.1L77.8,106.1l0,56.3c0,0.2,0,0.4,0,0.5c-0.5,11.6-16.2,21-35.5,21.2c-19.8,0.2-35.9-9.2-36-21.1
	c0-0.2,0-0.3,0-0.5v-56.5h0c0-0.1,0-0.1,0-0.2c0-11.9,16-21.6,35.8-21.6s35.8,9.7,35.8,21.6C77.8,105.9,77.8,106,77.8,106.1z"/>
<path class="st2" d="M77.9,106.1L77.9,106.1l0,56.3c0,0.2,0,0.4,0,0.5c-0.2,5.8-4.3,11.1-10.7,14.9c3.1-3.1,5-6.7,5.1-10.6
	c0-0.2,0-0.4,0-0.5v-56.5c0-11.9-16-21.6-35.8-21.6c-9.8,0-18.7,2.4-25.1,6.2c6.3-6.3,17.7-10.5,30.7-10.5
	c19.8,0,35.8,9.7,35.8,21.6C77.9,105.9,77.9,106,77.9,106.1z"/>
<path class="st3" d="M13.2,109.3c0,0.1,0,0.1,0,0.2h0v57c0.1,5.7,3.8,10.8,9.7,14.5c-10-3.7-16.7-10.3-16.8-18c0-0.2,0-0.3,0-0.5
	v-56.4h0c0-0.1,0-0.1,0-0.2c0-11.9,16-21.6,35.8-21.6c10.1,0,19.3,2.5,25.8,6.6c-5.5-2-11.9-3.2-18.7-3.2
	C29.3,87.7,13.2,97.3,13.2,109.3z"/>
<g>
	<path class="st4" d="M90.6,162.4H74.1v-54.3h16.5c10.8,0,19.7,8.8,19.7,19.7v14.9C110.3,153.6,101.5,162.4,90.6,162.4z M83.9,152.6
		h6.7c5.4,0,9.8-4.4,9.8-9.8v-14.9c0-5.4-4.4-9.8-9.8-9.8h-6.7V152.6z"/>
</g>
<path class="st0" d="M84,101.2v66.1c0,0.2,0,0.4,0,0.6c-0.4,9.5-9.4,17.7-22.6,21.9c0,0,0,0,0,0c-0.3,0.1-0.5,0.2-0.8,0.3h0
	c-0.1,0-0.2,0.1-0.3,0.1c-5.4,1.6-11.5,2.5-17.9,2.6c-0.1,0-0.3,0-0.4,0h-0.1c-0.4,0-0.7,0-1.1,0c-0.1,0-0.2,0-0.3,0
	c-0.5,0-1,0-1.4,0c-0.3,0-0.6,0-0.9,0c-0.7,0-1.4-0.1-2-0.1C15.7,191,0.1,180.7,0,168c0-0.2,0-0.4,0-0.6v-66.2h6.3
	c2,9.4,14.1,16.9,29.6,18.3c1.9,0.2,3.9,0.3,5.9,0.2c0.1,0,0.2,0,0.2,0c17.9-0.2,32.6-8.2,35.2-18.5H84z"/>
<path class="st4" d="M84,101.2v66.1c0,0.2,0,0.4,0,0.6c-0.4,9.5-9.4,17.7-22.6,21.9c0,0,0,0,0,0c-0.3,0.1-0.5,0.2-0.8,0.3h0
	c-0.1,0-0.2,0.1-0.3,0.1c-5.4,1.6-11.5,2.5-17.9,2.6c-0.1,0-0.3,0-0.4,0h0v-66.5H42C65.1,126.3,83.8,115.1,84,101.2L84,101.2z"/>
</svg>
