<?xml version="1.0" encoding="utf-8"?>
<!-- Generator: Adobe Illustrator 22.0.1, SVG Export Plug-In . SVG Version: 6.00 Build 0)  -->
<svg version="1.1" id="Layer_1" xmlns="http://www.w3.org/2000/svg" xmlns:xlink="http://www.w3.org/1999/xlink" x="0px" y="0px"
	 viewBox="0 0 110.3 192.8" style="enable-background:new 0 0 110.3 192.8;" xml:space="preserve">
<style type="text/css">
	.st0{fill:#473331;}
	.st1{fill:#F3EEE4;}
	.st2{fill:#A87D54;}
	.st3{fill:#2B231B;}
	.st4{fill:#C38E3D;}
	.st5{fill:#352519;}
	.st6{fill:#DBCEC3;}
</style>
<g>
	<path class="st0" d="M76.2,104.6L76.2,104.6l0,58.4c0,0.2,0,0.4,0,0.6c-0.5,12-16.8,21.8-36.9,22c-4.7,0.1-9.1-0.4-13.3-1.3
		c-14-3.1-24-11.1-24.1-20.6c0-0.2,0-0.4,0-0.5v-58.6h0c0-0.1,0-0.1,0-0.2C1.9,92,18.6,82,39.1,82c6.9,0,13.3,1.1,18.9,3.1
		c0,0,0,0,0,0c10.9,3.9,18.3,11.1,18.3,19.3C76.2,104.4,76.2,104.5,76.2,104.6z"/>
	<path class="st1" d="M86.1,91.9c-4.3-11.8-21.7-20.7-42.6-20.7C19.5,71.2,0,83,0,97.5c0,0.1,0,0.2,0,0.2c0.1,5,2.4,9.6,6.4,13.5
		c0,0,0.1,0.1,0.1,0.1c0,0,0.1,0.1,0.1,0.1c0.5,0.4,1,0.9,1.5,1.3c6.8,5.7,17.2,9.7,29.1,10.7c2,0.2,4,0.3,6.1,0.3h0.2
		c15.7,0,29.5-5,37.1-12.5c0.6-0.6,1.2-1.2,1.7-1.8c3-3.5,4.7-7.5,4.7-11.7c0-0.1,0-0.2,0-0.2C87.1,95.6,86.8,93.7,86.1,91.9z
		 M6.9,99.1c2.8-10.7,18.2-18.9,36.7-18.9c18,0,32.9,7.7,36.4,17.9c-5.3-8.4-18.9-14.4-34.7-14.4c-18.6,0-34,8.2-36.7,19
		C7.9,101.5,7.3,100.3,6.9,99.1z"/>
	<path class="st2" d="M6.5,110.9c0-0.7,0.1-1.5,0.2-2.2v4.4c-0.1-0.6-0.1-1.3-0.2-2C6.5,111.1,6.5,111,6.5,110.9z"/>
	<path class="st3" d="M80,98.1c-5.3-8.4-18.9-14.4-34.7-14.4c-18.6,0-34,8.2-36.7,19c-0.7-1.2-1.3-2.4-1.7-3.6
		c2.8-10.7,18.2-18.9,36.7-18.9C61.5,80.2,76.5,87.9,80,98.1z"/>
	<path class="st0" d="M80.7,102.8L80.7,102.8l0,58.4c0,0.2,0,0.4,0,0.6c-0.1,1.7-0.5,3.3-1.1,4.9c0,0.1-0.1,0.2-0.1,0.3
		c-4.2,9.5-18.5,16.6-35.6,16.8c-0.1,0-0.3,0-0.4,0c-15.8,0.1-29.2-5.8-34.5-14.1c-1.5-2.4-2.4-5-2.4-7.8c0-0.2,0-0.4,0-0.5v-58.6h0
		c0-0.1,0-0.1,0-0.2c0-1.2,0.2-2.4,0.5-3.5c0.4,1.3,1,2.5,1.7,3.6c2.7-10.7,18.1-19,36.7-19c15.8,0,29.3,6,34.7,14.4
		c0,0,0,0.1,0,0.1c0.5,1.4,0.7,2.9,0.7,4.4C80.7,102.7,80.7,102.7,80.7,102.8z"/>
	<path class="st4" d="M82.4,106.4L82.4,106.4l0,58.4c0,0.2,0,0.3,0,0.5v0.1c0,0.6-0.1,1.1-0.2,1.6c-1.8,11.2-17.5,20.1-36.7,20.4
		c-0.7,0-1.4,0-2.1,0c-6.3-0.1-12.3-1.2-17.4-3.1c4.1,0.9,8.6,1.4,13.3,1.3c20.1-0.2,36.4-10,36.9-22c0-0.2,0-0.4,0-0.6v-58.4h0
		c0-0.1,0-0.1,0-0.2c0-8.2-7.3-15.4-18.3-19.3c10.1,2.2,18.2,7,22,13.1c0,0,0,0.1,0.1,0.1c1.6,2.5,2.4,5.1,2.4,7.9
		C82.4,106.2,82.4,106.3,82.4,106.4z"/>
	<path class="st5" d="M76.2,104.6L76.2,104.6l0,58.4c0,0.2,0,0.4,0,0.6c-0.5,12-16.8,21.8-36.9,22c-4.7,0.1-9.1-0.4-13.3-1.3
		c-8.7-3.1-15.1-8.4-17.2-14.6c-0.5-1.4-0.7-2.8-0.7-4.2c0-0.2,0-0.4,0-0.5v-58.6h0c0-0.1,0-0.1,0-0.2c0-1.2,0.1-2.3,0.4-3.4
		c2.7-10.7,18.1-19,36.7-19c4.4,0,8.7,0.5,12.7,1.3c0,0,0,0,0,0c10.9,3.9,18.3,11.1,18.3,19.3C76.2,104.4,76.2,104.5,76.2,104.6z"/>
	<path class="st1" d="M87.1,97.7v68.6c0,0.2,0,0.4,0,0.6v0c-0.4,9.8-9.8,18.3-23.5,22.7c0,0,0,0,0,0c-0.3,0.1-0.6,0.2-0.9,0.3h0
		c-0.1,0-0.2,0.1-0.3,0.1c-5.6,1.7-11.9,2.6-18.6,2.7c-0.1,0-0.3,0-0.4,0h-0.2c-0.4,0-0.8,0-1.1,0c-0.1,0-0.2,0-0.3,0
		c-0.5,0-1,0-1.5,0c-0.3,0-0.6,0-0.9,0c-0.7,0-1.4-0.1-2.1-0.1c-21-1.7-37.1-12.3-37.3-25.5c0-0.2,0-0.4,0-0.6V97.7h6.6
		c0.1,0.4,0.2,0.9,0.3,1.3c0.4,1.3,1,2.5,1.7,3.6c4.6,7.4,15.5,12.8,28.7,14c2,0.2,4,0.3,6.1,0.3c0.1,0,0.2,0,0.2,0
		c18.3-0.2,33.3-8.3,36.3-18.7c0,0,0,0,0,0c0-0.1,0.1-0.3,0.1-0.4H87.1z"/>
	<path class="st6" d="M87.1,97.8v68.5c0,0.2,0,0.4,0,0.7c-0.4,9.8-9.8,18.4-23.5,22.7c0,0,0,0,0,0c-0.3,0.1-0.6,0.2-0.9,0.3h0
		c-0.1,0-0.2,0.1-0.3,0.1c-5.6,1.7-11.9,2.6-18.6,2.7c-0.1,0-0.3,0-0.4,0h0v-69h0.2C67.5,123.8,86.9,112.2,87.1,97.8L87.1,97.8z"/>
	<g>
		<path class="st6" d="M89.9,110.7h-2.9c0,6.1-4,10.1-9.3,10.2c0,0-0.1,0-0.1,0h12.2c5,0,9.1,3.6,10,8.3c0,0,0,0,0,0
			c0.1,0.6,0.2,1.2,0.2,1.9v15.5c0,4-2.3,7.5-5.7,9.1c-1.4,0.7-2.9,1.1-4.5,1.1h-2.9c0.2,2.2-1.2,5.4-3.6,7.6
			c-1.6,1.5-3.6,2.6-5.8,2.6h12.2c3.3,0,6.5-0.8,9.2-2.2c6.6-3.4,11.2-10.3,11.2-18.2v-15.5C110.3,119.8,101.2,110.7,89.9,110.7z"/>
	</g>
</g>
</svg>
