<?xml version="1.0" encoding="utf-8"?>
<!-- Generator: Adobe Illustrator 22.0.1, SVG Export Plug-In . SVG Version: 6.00 Build 0)  -->
<svg version="1.1" id="Layer_1" xmlns="http://www.w3.org/2000/svg" xmlns:xlink="http://www.w3.org/1999/xlink" x="0px" y="0px"
	 viewBox="0 0 152.7 116.9" style="enable-background:new 0 0 152.7 116.9;" xml:space="preserve">
<style type="text/css">
	.st0{fill:#3F342A;}
	.st1{fill:#33281F;}
	.st2{fill:#E2D1B2;}
	.st3{fill:#CDB892;}
	.st4{fill:#E8D6B9;}
	.st5{fill:#2B231B;}
</style>
<g>
	<path class="st0" d="M76.1,62.4c4.2,13,5.2,25.9,2.9,38.4c-0.8,4.1-1.8,7.5-2.7,10c-0.4,1.2-1.4,2-2.5,1.9
		C55.5,110.4,41,86,41,56.2C41,29.3,52.8,6.8,68.6,1c1.6-0.6,3.1,1.2,2.8,3.2c-0.3,1.6-0.5,3.4-0.7,5.2
		C69.4,21.9,69.2,41.2,76.1,62.4z"/>
	<path class="st1" d="M112.3,56.2c0,26.7-11.6,49-27.2,55c-1.2,0.5-2.3-1-1.9-2.4c2.9-10.5,5.1-27.9-1.8-49.2
		c-6.3-19.6-6.2-37.4-5-48.8c0.3-2.8,0.7-5.4,1.1-7.7c0.4-2,1.9-3.4,3.5-3C98.7,3.5,112.3,27.3,112.3,56.2z"/>
</g>
<g>
	<polygon class="st2" points="152.7,116.9 124.7,116.9 124.7,88.9 152.7,88.9 146.1,102.9 	"/>
	<polygon class="st3" points="134.8,80 124.7,88.9 124.7,116.9 134.8,107.9 	"/>
	<polygon class="st2" points="0,116.9 27.9,116.9 27.9,88.9 0,88.9 6.5,102.9 	"/>
	<polygon class="st3" points="17.9,80 27.9,88.9 27.9,116.9 17.9,107.9 	"/>
	<rect x="17.9" y="80" class="st4" width="116.8" height="27.9"/>
</g>
<g>
	<path class="st5" d="M39.6,84.7h3.5c1.7,0,3,0.4,3.7,1.2c0.7,0.8,1.1,2,1.1,3.7v5.9c0,1.8-0.4,3.1-1.1,4c-0.7,0.9-1.9,1.3-3.5,1.3
		h-3.7V84.7z M43.1,99.1c0.8,0,1.3-0.2,1.7-0.5c0.4-0.3,0.6-0.7,0.7-1.2c0.1-0.5,0.1-1.3,0.1-2.4v-5.2c0-0.9-0.1-1.6-0.2-2.1
		c-0.1-0.5-0.3-0.8-0.7-1.1c-0.4-0.2-0.9-0.3-1.7-0.3h-1.2v12.8H43.1z"/>
	<path class="st5" d="M50.8,100.5c-0.4-0.3-0.6-0.6-0.8-1c-0.2-0.4-0.3-0.8-0.3-1.3c0-0.9,0.2-1.6,0.6-2.2c0.4-0.6,0.9-1,1.5-1.3
		c0.6-0.3,1.4-0.7,2.5-1.1v-0.8c0-0.8-0.1-1.3-0.2-1.6c-0.2-0.3-0.5-0.5-0.9-0.5c-0.8,0-1.2,0.5-1.2,1.6v0.6l-2.1-0.1l0-0.4
		c0.1-1.2,0.4-2,1-2.5c0.6-0.5,1.4-0.8,2.5-0.8c1.1,0,1.9,0.3,2.4,0.9c0.5,0.6,0.7,1.5,0.7,2.7V98c0,0.9,0.1,1.8,0.2,2.8h-1.9
		c-0.1-0.8-0.2-1.3-0.3-1.7c-0.2,0.5-0.4,1-0.8,1.3c-0.4,0.4-0.9,0.5-1.5,0.5C51.5,100.9,51.1,100.8,50.8,100.5z M53.6,98.8
		c0.3-0.2,0.5-0.4,0.6-0.6v-3.3c-0.6,0.3-1,0.6-1.3,0.8c-0.3,0.2-0.5,0.5-0.8,0.8c-0.2,0.3-0.3,0.7-0.3,1.1c0,0.5,0.1,0.8,0.3,1.1
		c0.2,0.3,0.4,0.4,0.8,0.4C53.1,99.1,53.3,99,53.6,98.8z"/>
	<path class="st5" d="M58.4,89.3h2.1v1.6c0.4-0.6,0.8-1.1,1.2-1.4c0.4-0.3,0.9-0.4,1.3-0.4c0.1,0,0.2,0,0.3,0v2.3
		c-0.4-0.2-0.8-0.2-1.2-0.2c-0.3,0-0.7,0.1-0.9,0.2c-0.3,0.2-0.5,0.5-0.8,0.9v8.4h-2.1V89.3z"/>
	<path class="st5" d="M64.8,84.6h2.1v9.6l3.1-5h2.2l-2.7,4.5l2.6,7H70l-2.1-5.9l-1,1.5v4.4h-2.1V84.6z"/>
	<path class="st5" d="M77.9,89.3H80v1.6c0.4-0.6,0.8-1.1,1.2-1.4c0.4-0.3,0.9-0.4,1.3-0.4c0.1,0,0.2,0,0.3,0v2.3
		c-0.4-0.2-0.8-0.2-1.2-0.2c-0.3,0-0.7,0.1-0.9,0.2c-0.3,0.2-0.5,0.5-0.8,0.9v8.4h-2.1V89.3z"/>
	<path class="st5" d="M84.7,99.8c-0.5-0.7-0.8-1.8-0.8-3.2v-3.3c0-1.4,0.3-2.4,0.8-3.2c0.5-0.7,1.4-1.1,2.6-1.1
		c1.2,0,2.1,0.4,2.6,1.1c0.5,0.7,0.8,1.8,0.8,3.2v3.3c0,1.4-0.3,2.4-0.8,3.2c-0.5,0.7-1.4,1.1-2.6,1.1
		C86.1,100.9,85.2,100.6,84.7,99.8z M88.2,99c0.2-0.2,0.3-0.5,0.3-0.8c0-0.3,0.1-0.8,0.1-1.4v-3.6c0-0.6,0-1-0.1-1.4
		c0-0.3-0.1-0.6-0.3-0.8c-0.2-0.2-0.5-0.3-0.8-0.3c-0.4,0-0.7,0.1-0.8,0.3c-0.2,0.2-0.3,0.5-0.3,0.8s-0.1,0.8-0.1,1.4v3.6
		c0,0.6,0,1,0.1,1.4s0.1,0.6,0.3,0.8s0.5,0.3,0.8,0.3C87.7,99.3,88,99.2,88.2,99z"/>
	<path class="st5" d="M93.5,100.5c-0.4-0.3-0.6-0.6-0.8-1c-0.2-0.4-0.3-0.8-0.3-1.3c0-0.9,0.2-1.6,0.6-2.2c0.4-0.6,0.9-1,1.5-1.3
		c0.6-0.3,1.4-0.7,2.5-1.1v-0.8c0-0.8-0.1-1.3-0.2-1.6c-0.2-0.3-0.5-0.5-0.9-0.5c-0.8,0-1.2,0.5-1.2,1.6v0.6l-2.1-0.1l0-0.4
		c0.1-1.2,0.4-2,1-2.5c0.6-0.5,1.4-0.8,2.5-0.8c1.1,0,1.9,0.3,2.4,0.9c0.5,0.6,0.7,1.5,0.7,2.7V98c0,0.9,0.1,1.8,0.2,2.8h-1.9
		c-0.1-0.8-0.2-1.3-0.3-1.7c-0.2,0.5-0.4,1-0.8,1.3c-0.4,0.4-0.9,0.5-1.5,0.5C94.2,100.9,93.9,100.8,93.5,100.5z M96.3,98.8
		c0.3-0.2,0.5-0.4,0.6-0.6v-3.3c-0.6,0.3-1,0.6-1.3,0.8c-0.3,0.2-0.5,0.5-0.8,0.8c-0.2,0.3-0.3,0.7-0.3,1.1c0,0.5,0.1,0.8,0.3,1.1
		c0.2,0.3,0.4,0.4,0.8,0.4C95.8,99.1,96.1,99,96.3,98.8z"/>
	<path class="st5" d="M101.5,100c-0.6-0.6-0.9-1.4-1-2.3l1.8-0.5c0.1,0.7,0.3,1.3,0.5,1.6c0.2,0.4,0.6,0.5,1,0.5
		c0.4,0,0.7-0.1,0.9-0.3c0.2-0.2,0.4-0.5,0.4-0.9c0-0.6-0.3-1.2-0.9-1.7l-2-1.7c-0.5-0.4-0.8-0.8-1-1.2c-0.2-0.4-0.4-0.9-0.4-1.5
		c0-0.9,0.3-1.6,0.8-2.1c0.5-0.5,1.3-0.8,2.2-0.8c0.9,0,1.6,0.3,2.1,0.8s0.8,1.3,0.9,2.2l-1.4,0.5c-0.1-0.6-0.2-1.1-0.5-1.5
		s-0.5-0.5-1-0.5c-0.3,0-0.6,0.1-0.8,0.3c-0.2,0.2-0.3,0.5-0.3,0.8c0,0.4,0.2,0.8,0.6,1.2l2,1.9c0.5,0.5,0.9,0.9,1.2,1.4
		c0.3,0.5,0.4,1,0.4,1.7c0,1-0.3,1.7-0.9,2.2c-0.6,0.5-1.3,0.8-2.3,0.8C102.8,100.9,102.1,100.6,101.5,100z"/>
	<path class="st5" d="M109.7,100.2c-0.4-0.5-0.6-1.1-0.6-2.1v-7.5h-1.2v-1.4h1.2v-3.4h2.1v3.4h1.8v1.4h-1.8V98c0,0.5,0.1,0.8,0.2,1
		s0.4,0.3,0.8,0.3c0.3,0,0.5,0,0.8-0.1v1.6c-0.5,0.1-1,0.1-1.5,0.1C110.7,100.9,110.1,100.7,109.7,100.2z"/>
</g>
</svg>
