<?xml version="1.0" encoding="utf-8"?>
<!-- Generator: Adobe Illustrator 22.0.1, SVG Export Plug-In . SVG Version: 6.00 Build 0)  -->
<svg version="1.1" id="Layer_1" xmlns="http://www.w3.org/2000/svg" xmlns:xlink="http://www.w3.org/1999/xlink" x="0px" y="0px"
	 viewBox="0 0 183.5 155.3" style="enable-background:new 0 0 183.5 155.3;" xml:space="preserve">
<style type="text/css">
	.st0{fill:#2B231B;}
</style>
<g>
	<g>
		<path class="st0" d="M78.4,90.8c-0.2,0.1-0.7,0.3-1.8,0.6c-0.8,0.2-1.2,0.4-1.3,0.4v-2.5c0.6-0.2,1.3-0.5,2.1-0.9
			c0.8-0.4,1.3-0.8,1.7-1.2h2.6v19.5h-3.4V90.8H78.4z"/>
		<path class="st0" d="M86.5,104.3l4.8-7.5l0.5-0.7c0.5-0.9,1-1.6,1.2-2.2s0.4-1.3,0.4-2c0-1.5-0.5-2.3-1.6-2.3
			c-0.7,0-1.3,0.3-1.5,0.8c-0.3,0.6-0.4,1.3-0.4,2.3v0.8h-3.3v-0.9c0-1.8,0.4-3.3,1.2-4.3c0.8-1,2.1-1.6,3.9-1.6
			c1.6,0,2.9,0.4,3.7,1.3c0.8,0.9,1.3,2.1,1.3,3.8c0,0.8-0.1,1.5-0.3,2.1c-0.2,0.6-0.5,1.2-0.7,1.7s-0.7,1.2-1.4,2.1l-4,6.1h5.9v2.7
			h-9.7V104.3z"/>
		<path class="st0" d="M104.6,87.1h3.3v11.2l3.6-5.6h3.6l-3.5,5.6l3.4,8.3h-3.4l-2.5-6.9l-1.1,1.5v5.3h-3.3L104.6,87.1L104.6,87.1z"
			/>
		<path class="st0" d="M117.2,110.4c-1-0.3-1.6-1-1.6-2c0-0.6,0.2-1.2,0.6-1.7s0.9-0.9,1.4-1.3c-0.6-0.2-1-0.4-1.2-0.7
			c-0.2-0.3-0.4-0.6-0.4-1s0.1-0.8,0.4-1.2c0.3-0.4,0.7-0.8,1.2-1.3c-0.5-0.4-0.9-0.9-1.2-1.5c-0.3-0.6-0.4-1.4-0.4-2.3
			c0-1.7,0.4-2.9,1.1-3.8c0.8-0.8,1.9-1.3,3.3-1.3c1.5,0,2.5,0.5,3,1.4c0.6-0.7,1.2-1.2,1.9-1.5l0.5-0.2l0.8,1.8
			c-0.3,0.1-0.7,0.2-1.2,0.5c-0.5,0.2-0.9,0.4-1.1,0.6c0.1,0.3,0.3,0.7,0.4,1.2s0.2,1,0.2,1.5c0,1.5-0.3,2.7-1,3.5s-1.8,1.3-3.2,1.3
			c-0.7,0-1.3-0.1-1.8-0.3c-0.3,0.5-0.5,0.8-0.5,1c0,0.3,0.4,0.5,1.2,0.6c0.2,0,0.8,0.1,1.7,0.2c0.2,0,0.5,0,0.9,0.1
			c1.2,0.1,2.1,0.5,2.6,1s0.8,1.3,0.8,2.3c0,1.2-0.4,2.1-1.1,2.7s-1.9,0.9-3.5,0.9C119.5,110.9,118.2,110.7,117.2,110.4z
			 M122.7,108.4c0.3-0.2,0.5-0.5,0.5-0.9s-0.1-0.8-0.3-1c-0.2-0.2-0.7-0.3-1.4-0.4l-2.1-0.2c-0.2,0.3-0.4,0.5-0.6,0.8
			s-0.2,0.5-0.2,0.8c0,0.4,0.2,0.7,0.5,0.9s1,0.3,2,0.3C121.8,108.7,122.3,108.6,122.7,108.4z M121.7,99.6c0.2-0.4,0.3-1.2,0.3-2.2
			s-0.1-1.8-0.2-2.2c-0.2-0.4-0.5-0.7-1.1-0.7s-1,0.2-1.1,0.7s-0.3,1.2-0.3,2.2c0,0.9,0.1,1.7,0.3,2.1c0.2,0.5,0.5,0.7,1.1,0.7
			C121.1,100.3,121.5,100.1,121.7,99.6z"/>
	</g>
	<g>
		<path class="st0" d="M75.7,44.4h13.4v4.1h-7.5V58h6.1v4.2h-6.1v14.9h-5.9V44.4z"/>
		<path class="st0" d="M92.2,45.5h5.5v4.6h-5.5V45.5z M92.2,53.7h5.5V77h-5.5V53.7z"/>
		<path class="st0" d="M102,53.7h5.5V56c1.9-1.8,3.7-2.7,5.6-2.7c1.3,0,2.3,0.5,3,1.5s1,2.2,1,3.7V77h-5.5V59.6
			c0-0.8-0.1-1.3-0.3-1.7c-0.2-0.3-0.6-0.5-1.2-0.5c-0.7,0-1.5,0.4-2.5,1.1V77h-5.5L102,53.7L102,53.7z"/>
		<path class="st0" d="M121.5,44.4h5.4v32.7h-5.4V44.4z"/>
		<path class="st0" d="M133.1,76.6c-0.8-0.5-1.4-1.2-1.8-2.1c-0.4-0.8-0.6-1.7-0.6-2.6c0-1.7,0.4-3.2,1.2-4.3s1.7-2,2.9-2.6
			c1.1-0.6,2.6-1.3,4.4-2l0.9-0.4v-2c0-1.1-0.1-1.9-0.4-2.4c-0.3-0.5-0.7-0.7-1.5-0.7c-1.2,0-1.9,0.9-1.9,2.6l-0.1,1.4l-5.1-0.3
			v-0.8c0.2-2.4,0.9-4.2,2.2-5.3s3.1-1.7,5.5-1.7c2.3,0,4,0.6,5.1,1.9c1.1,1.3,1.7,3,1.7,5.3v10.8c0,1.6,0.1,3.5,0.4,5.7h-4.9
			c-0.3-1.5-0.5-2.6-0.6-3.3c-0.3,1-0.9,1.9-1.6,2.6c-0.8,0.7-1.8,1.1-3,1.1C134.8,77.4,133.9,77.1,133.1,76.6z M139.1,72.8
			c0.4-0.3,0.8-0.7,1-1v-6.5c-2.8,1.5-4.2,3.3-4.2,5.3c0,0.9,0.2,1.5,0.5,2s0.8,0.7,1.4,0.7C138.2,73.3,138.7,73.2,139.1,72.8z"/>
		<path class="st0" d="M149.5,53.7h5.5V56c1.9-1.8,3.7-2.7,5.6-2.7c1.3,0,2.3,0.5,3,1.5s1,2.2,1,3.7V77h-5.5V59.6
			c0-0.8-0.1-1.3-0.3-1.7c-0.2-0.3-0.6-0.5-1.2-0.5c-0.7,0-1.5,0.4-2.5,1.1V77h-5.5V53.7H149.5z"/>
		<path class="st0" d="M169.6,75.4c-0.9-1.3-1.4-3.4-1.4-6.3V62c0-2.6,0.4-4.7,1.3-6.3c0.9-1.5,2.3-2.3,4.3-2.3
			c1.5,0,2.9,0.6,4.2,1.9V44.4h5.5v32.7H178v-1.7c-1.3,1.3-2.7,2-4.2,2C171.9,77.4,170.5,76.7,169.6,75.4z M178,72.8v-15
			c-0.7-0.5-1.4-0.8-2.2-0.8c-1.4,0-2.1,1.2-2.1,3.7v8.7c0,1.3,0.1,2.3,0.4,3c0.3,0.7,0.8,1.1,1.7,1.1
			C176.5,73.6,177.2,73.4,178,72.8z"/>
	</g>
</g>
<g id="FI_2_">
	<path class="st0" d="M53,18.8L52.6,19l-1.3,0.9l-0.8,0.6l-1,0.4l0.2,0.6l1.6,0.1l0.2,0.2l0.2,0.3v0.5l-0.2,0.7l-1.7,4.1l-0.1,0.9
		l0.6,2.4l0.8,2.8l2.4,1.2l1.8,1l1.1,2.2l1.9,2.9l1,1.1l0.1,0.3l-0.3,2l-1.2,2l-1.1,1.7l-1.2,2l-0.9,1.7l-1,2l-0.1,0.7v0.6l0.2,0.7
		l1.3,2.3l0.5,1.3l0.6,1.4l0.5,1.5l0.3,1.3l0.5,1.3l0.3,0.6l0.5,0.9l0.6,1.3l0.2,1.1l1,3.7l0.1,0.9v0.7l-0.4,0.2l-0.9,0.1l-1,0.4
		v0.2l0.7,0.9L58,77.2l-0.1,2.1l-0.6,1.1l-0.2,0.1v0.2l0.1,0.2l1.1,0.3l0.1,0.3v0.6l-0.1,0.6l-0.6,0.4l-0.6,0.6L57,84.3v0.5l0.2,0.8
		l0.4,1l0.5,0.6l1.8,0.6l0.2,0.5l0.1,0.7v0.6l-0.9,1.3v0.5l0.4,1.2l0.4,1.1l1.8,1.2l0.6,0.7l0.2,0.5l0.1,0.9v0.9l-0.1,0.8l-0.6,1.1
		l-1.3,2.1l-1.3,0.8l-0.1,0.2l0.4,0.7l2.3,2.6l1.5,1.2l2,1.6l1.3,1.3l0.4,0.9l0.6,1l0.6,0.8l0.5,0.7l0.2,0.5v0.5l-0.6,1.5l-0.3,1.2
		l-0.6,1.7l-0.6,1.2l-1.6,2.2l-2.3,2.7l-0.5,0.8l-1.1,1.4l-1.9,2.8l-0.5,0.6l-1.5,2.2l-0.7,0.7l-0.6,0.7l-1.5,2.1l-1.6,1.6l-1.6,1.4
		l-0.5,0.7l-0.6,0.6l-0.7,0.5l-0.3,0.3l-1.6,2l-2.2,2.7h-0.2l-0.6,0.4l-0.9,0.1l-0.4,0.3l-1.4-0.9l-0.2-0.1l-0.8,0.2l-0.8,0.7
		l-1.5,0.2l-0.7,0.2l-0.5,0.3l-0.1-0.8l0.2-1l0.3-0.6v-0.4H38l-0.5,0.9l-0.2,1.1l-0.5,0.5l-1.1,0.2l-1.1-0.9h-0.5l0.3,0.6l0.2,0.7
		v0.4l-0.6-0.1l-0.6,0.4l-0.6,0.6h-0.3l-0.4-0.8l-0.7,0.4l-0.6,0.5l-1.2,0.2l-0.7,0.7l-1.3,0.5h-0.7l-1.6,0.6l-0.5,0.9l-0.5,0.3
		l-0.7-0.3l-2,0.4l-1.9,0.6h-0.8l-0.8-0.2l-0.9,0.8l-0.9,1l-1,0.4l-0.4-0.1l0.3-0.5l0.7-0.6l0.5-0.8l0.1-0.6l-0.3-0.2l-0.4-0.1
		l-0.5-0.7l-0.5-1.4l-0.3-0.1l-0.1,0.4l-0.2,1.1L14,152l-0.3,0.2l-0.3,0.2l-0.3,0.1h-1.2l-0.2-0.5v-0.2l0.2-0.7l-0.2-0.1l0.2-0.6
		h0.3l0.3-0.1l0.2-0.3v-0.3l-0.5-0.1v-0.2l0.4-1l0.1-0.3l-0.2-0.1l-0.3,0.1l-1.7-0.3l-2.1-1.3l-0.5-0.1l-0.3-1.1l-0.5,0.2l-0.7,0.7
		l-0.5-0.5l-0.6-0.3l-0.2-0.6V144v-0.9L4.9,142l-0.1-1.5l0.1-1.2l0.5-0.9l0.2-0.6l0.2-1.5v-1.7L5.7,134v-0.4h0.4L6,133.3l-0.2-0.2
		l-0.2-0.4l0.2-0.2h0.4v-0.1v-0.2l-0.3-1v-0.5l-0.5-1.5l-0.5-1.4l-0.8-1l0.3-1.7l0.3-1.5l-0.1-0.7L4.5,122l-1-1l-0.1-1.4l-0.2-1.5
		l0.1-0.9l0.2-0.7l0.3-0.7l1.7-2.2l0.1-1.2l1.1-0.1l-0.5-1L6,110.9v-0.7l1.6-0.5l0.6,0.4l1.4-0.5l1.3-0.9v-0.5l-0.2-0.4l-0.3-0.9
		l0.2-0.2l0.5,0.2l-0.2-0.4V106l0.5,0.2l0.8-1.3v-1l1.4-0.5l1.6-2l0.8-0.6l0.7-0.4l1.6-2l0.7-0.1l0.3-1.4l1.3-1.8l0.5-0.2l0.6-1.6
		l1.6-1.9l1-2.4l0.6-0.9l0.2-0.9l0.6-0.1l0.6-0.7l1.2-0.5l1.2,0.1l0.5,0.3l0.5-0.1v-0.8l-0.3-0.5l0.3-0.5l0.6-0.4l-0.1-0.8l-0.1-0.5
		L29.6,82l0.3-1.5l0.1-1.7l0.3-1.9l-0.7-1L27,74.2l-0.5,0.1l-0.6-0.2l-0.6-1.3l0.3-1.2v-0.4h-0.2L25,71.8l-0.9,0.5L23,71.8l-0.5,0.1
		L21.8,69l-0.3-1.1l-0.6-1.4l-1-0.7l-0.2-0.4l-0.1-0.6V64l-0.1-1.2l0.1-1l0.1-0.6l0.4-0.4l0.6-1.1l0.1-0.8l0.1-1.3l0.3-1.1l0.3-0.6
		l-0.1-0.4l-0.2-0.6L20.7,54L20,52.9l-0.5-1l-0.2-1L19.1,50v-0.8l0.2-0.6l0.7-0.7l0.1-0.3L19.8,46l-0.5-0.3l-0.8-0.2h-0.4l0,0v-0.3
		l0.1-0.6l0.2-0.7l0.2-0.5V43l-0.3-1.4l0-1.7l0.1-1.3l0.8-1v-0.4l-1-1.1l-0.8-1.2l-0.2-0.7l-0.9-0.1L15.8,32L15,31l-0.8-0.9
		l-0.5-0.4l-2.6-1.1l-1-0.3l-1.3-0.7l-0.9-0.9l-0.8-0.6l-0.7-0.7l-1-0.7l-0.3-0.6l-1-1.2l-0.5-0.7l-1.7-1.4l-0.1-0.5v-0.5l-0.1-0.2
		l-1.7-1L0.3,18h1.4l1.1,0.5L3,18.3l0.1-0.5l-0.3-1.9l0.1-0.5l0.5-0.6l0.8-0.5l1.2-0.1l0.8,0.1l0.2,0.1l1.3,2.1l1.1,2l0.6,0.9
		l1.4,2.4l0.5,1.4l0.2,1h0.6l2,0.4l1.7,0.4l0.5,0.6l1.1-0.1l0.7-0.6l1.6-0.6l0.4-0.8l0.5-0.8l0.9,0.1l1,0.7l1.1,0.9l1,0.4l1.3,0.6
		l0.6,0.8l0.9,0.2l0.9-0.8l0.5-2.2l0.5-1l0.7-0.7l0.8-0.3l0.6-0.1l0.5-0.6l0.6-1.3l0.1-1.5l-0.1-2.8l0.1-0.9l0.5-1.5l0.7-4l0.3-1.2
		l0.4-0.7L35,6.4l1-1.2l1.4-2.4l0.4-0.2l1-0.1l1.3-0.1l1.1,0.5h0.1l0.5-0.2l0.9-0.8l1.5-1.5l1-0.4l0.9,0.1l1,1.7l1.4,1.9l0.9,0.9
		l2.5,1.7l2.2,0.8l1.2,3.6l-0.6,1.4l-0.3,0.5L53.3,14l-1.1,2l-0.1,1l0.4,1L53,18.8L53,18.8z M26.9,84.3L26,84.8l-0.8-0.3v-1l0.5-0.5
		l0.9-0.2l1.2,0.5l0.2,0.2l-0.7,0.2L26.9,84.3z M3.9,109.7L4,110l0.4-0.1l0.5-0.5l0.4,0.2v0.7H5.1L5,110.2l-0.3,0.4l-0.1,0.2
		L4.1,111l-0.7-0.7L3,109.2h1l-0.1,0.3V109.7L3.9,109.7z M5.4,146.2l-0.1,0.6l-0.4-0.1l-0.4,0.1l-0.4-0.6l-0.2-1L4,145l0.3-0.2
		l0.2,0.6L5.4,146.2L5.4,146.2z M8.8,148.7l-0.5,0.1l-0.7-0.6L7.5,148l0.3-0.1l-0.2-0.5v-0.2l0.5,0.4l0.3,0.5l-0.1-0.2l0.5,0.5
		V148.7L8.8,148.7z M10,148.2l0.8,0.3l0.3-0.1l0.4,0.7l-0.7,0.4v0.5l0.3,0.3l0.1,0.5h-0.6l-0.3-0.4l-0.3-0.5l-0.3-0.4l-0.4-0.3
		l0.2-0.4l0.1-0.5L10,148.2L10,148.2z M7.8,151.2l-0.6,0.4L7,151.5l0.1-0.7l0.4-0.3h0.6L7.8,151.2L7.8,151.2z M6.5,151.6l-0.6,0.1
		l-0.3-0.4l0.1-0.3l0.4-0.3h0.4l0.1,0.4L6.5,151.6L6.5,151.6z"/>
</g>
</svg>
