<?xml version="1.0" encoding="utf-8"?>
<!-- Generator: Adobe Illustrator 22.0.1, SVG Export Plug-In . SVG Version: 6.00 Build 0)  -->
<svg version="1.1" id="Layer_1" xmlns="http://www.w3.org/2000/svg" xmlns:xlink="http://www.w3.org/1999/xlink" x="0px" y="0px"
	 viewBox="0 0 71.5 131.8" style="enable-background:new 0 0 71.5 131.8;" xml:space="preserve">
<style type="text/css">
	.st0{fill:#7C3416;}
	.st1{opacity:0.2;enable-background:new    ;}
	.st2{fill:#2B231B;}
	.st3{fill:#F8E8C6;}
	.st4{fill:#A7481F;}
	.st5{fill:#CB832A;}
</style>
<path class="st0" d="M25.9,63v9.3H9.3c-2.6,0-4.9-1-6.6-2.7C1,67.8,0,65.5,0,63H25.9z"/>
<path class="st1" d="M25.9,63v9.3H9.3c-2.6,0-4.9-1-6.6-2.7C1,67.8,0,65.5,0,63H25.9z"/>
<path class="st0" d="M57.4,83.2c0,0.2,0,0.4,0,0.7c0,0.2,0,0.4,0,0.7c0,0.2,0,0.4,0,0.6s0,0.4-0.1,0.6c0,0.2,0,0.4-0.1,0.6
	c0,0.2-0.1,0.5-0.1,0.7c-0.1,0.6-0.2,1.1-0.3,1.7c0,0.2-0.1,0.4-0.1,0.6c0,0,0,0,0,0.1c0,0.2-0.1,0.3-0.1,0.5
	c-0.1,0.2-0.1,0.4-0.2,0.7c-0.4,1.5-1,2.9-1.7,4.3c-0.1,0.2-0.2,0.3-0.3,0.5s-0.2,0.4-0.3,0.5c-0.3,0.5-0.5,0.9-0.8,1.4
	c-0.1,0.2-0.3,0.4-0.5,0.7c-0.1,0.2-0.2,0.3-0.4,0.5c-0.1,0.2-0.2,0.3-0.4,0.5c-0.2,0.3-0.5,0.6-0.8,0.9c-0.1,0.2-0.3,0.3-0.4,0.5
	c-0.3,0.3-0.5,0.6-0.8,0.9c-0.2,0.2-0.4,0.4-0.6,0.6c-0.2,0.2-0.5,0.4-0.7,0.7c-0.2,0.2-0.5,0.4-0.8,0.6l-0.1,0.1
	c-0.2,0.2-0.4,0.3-0.6,0.5c-0.7,0.5-1.4,1-2.1,1.4c-0.1,0.1-0.2,0.1-0.3,0.2c-0.2,0.1-0.3,0.2-0.5,0.3c-0.1,0.1-0.3,0.2-0.5,0.2
	c-0.5,0.3-1.1,0.5-1.6,0.8c-0.2,0.1-0.4,0.2-0.6,0.3c-0.2,0.1-0.4,0.2-0.6,0.2c-0.2,0.1-0.4,0.2-0.6,0.2c-0.3,0.1-0.5,0.2-0.8,0.3
	c-0.3,0.1-0.5,0.2-0.8,0.2c-0.5,0.1-0.9,0.2-1.4,0.3c-1,0.2-2.1,0.4-3.2,0.5c-0.7,0.1-1.4,0.1-2.1,0.1c-1.8,0-3.5-0.2-5.1-0.5
	c-5.8-1.2-10.9-4.4-14.6-8.9c-2.4-3-4.2-6.5-5-10.3c-0.4-1.8-0.6-3.7-0.6-5.7c0-3.1,0.6-6.1,1.6-8.8c1.3-3.5,3.3-6.6,5.9-9.1
	c0.1-0.1,0.1-0.1,0.2-0.2c3.4-3.3,7.7-5.7,12.5-6.7c1.7-0.4,3.5-0.6,5.3-0.6c3.1,0,6.1,0.6,8.9,1.6c3.4,1.3,6.5,3.3,9.1,5.8
	c0.8,0.8,1.6,1.7,2.3,2.6l0.1,0.1c0.2,0.2,0.3,0.5,0.5,0.7c0.2,0.3,0.4,0.5,0.5,0.8c0,0,0,0,0,0.1c0.2,0.3,0.3,0.5,0.5,0.8
	c0.1,0.2,0.3,0.5,0.4,0.7c0,0.1,0.1,0.2,0.1,0.3c0.1,0.3,0.3,0.5,0.4,0.8l0,0c0.1,0.3,0.3,0.6,0.4,0.9c0.1,0.3,0.3,0.6,0.4,0.9
	c0.1,0.3,0.2,0.6,0.3,0.9v0.1c0.1,0.2,0.1,0.4,0.2,0.6c0.1,0.3,0.2,0.6,0.2,0.8c0,0.2,0.1,0.3,0.1,0.5c0.1,0.5,0.2,1,0.3,1.6
	c0,0.1,0,0.2,0.1,0.4c0.1,0.6,0.2,1.1,0.2,1.7c0,0.2,0,0.4,0.1,0.6c0,0.2,0,0.4,0,0.7c0,0.2,0,0.4,0,0.7
	C57.4,82.8,57.4,83,57.4,83.2z"/>
<path class="st1" d="M57.4,83.2c0,0.2,0,0.4,0,0.7c0,0.2,0,0.4,0,0.7c0,0.2,0,0.4,0,0.6s0,0.4-0.1,0.6c0,0.2,0,0.4-0.1,0.6
	c0,0.2-0.1,0.5-0.1,0.7c-0.1,0.6-0.2,1.1-0.3,1.7c0,0.2-0.1,0.4-0.1,0.6c0,0,0,0,0,0.1c0,0.2-0.1,0.3-0.1,0.5
	c-0.1,0.2-0.1,0.4-0.2,0.7c-0.4,1.5-1,2.9-1.7,4.3c-0.1,0.2-0.2,0.3-0.3,0.5s-0.2,0.4-0.3,0.5c-0.3,0.5-0.5,0.9-0.8,1.4
	c-0.1,0.2-0.3,0.4-0.5,0.7c-0.1,0.2-0.2,0.3-0.4,0.5c-0.1,0.2-0.2,0.3-0.4,0.5c-0.2,0.3-0.5,0.6-0.8,0.9c-0.1,0.2-0.3,0.3-0.4,0.5
	c-0.3,0.3-0.5,0.6-0.8,0.9c-0.2,0.2-0.4,0.4-0.6,0.6c-0.2,0.2-0.5,0.4-0.7,0.7c-0.2,0.2-0.5,0.4-0.8,0.6l-0.1,0.1
	c-0.2,0.2-0.4,0.3-0.6,0.5c-0.7,0.5-1.4,1-2.1,1.4c-0.1,0.1-0.2,0.1-0.3,0.2c-0.2,0.1-0.3,0.2-0.5,0.3c-0.1,0.1-0.3,0.2-0.5,0.2
	c-0.5,0.3-1.1,0.5-1.6,0.8c-0.2,0.1-0.4,0.2-0.6,0.3c-0.2,0.1-0.4,0.2-0.6,0.2c-0.2,0.1-0.4,0.2-0.6,0.2c-0.3,0.1-0.5,0.2-0.8,0.3
	c-0.3,0.1-0.5,0.2-0.8,0.2V83.2c-5.6-0.5-10.2-4.8-11.1-10.3c-0.1-0.4-0.1-0.9-0.1-1.3l-0.7-13.2c1.7-0.4,3.5-0.6,5.3-0.6
	c3.1,0,6.1,0.6,8.9,1.6c3.4,1.3,6.5,3.3,9.1,5.8c0.8,0.8,1.6,1.7,2.3,2.6l0.1,0.1c0.2,0.2,0.3,0.5,0.5,0.7c0.2,0.3,0.4,0.5,0.5,0.8
	c0,0,0,0,0,0.1c0.2,0.3,0.3,0.5,0.5,0.8c0.1,0.2,0.3,0.5,0.4,0.7c0,0.1,0.1,0.2,0.1,0.3c0.1,0.3,0.3,0.5,0.4,0.8l0,0
	c0.1,0.3,0.3,0.6,0.4,0.9c0.1,0.3,0.3,0.6,0.4,0.9c0.1,0.3,0.2,0.6,0.3,0.9v0.1c0.1,0.2,0.1,0.4,0.2,0.6c0.1,0.3,0.2,0.6,0.2,0.8
	c0,0.2,0.1,0.3,0.1,0.5c0.1,0.5,0.2,1,0.3,1.6c0,0.1,0,0.2,0.1,0.4c0.1,0.6,0.2,1.1,0.2,1.7c0,0.2,0,0.4,0.1,0.6c0,0.2,0,0.4,0,0.7
	c0,0.2,0,0.4,0,0.7C57.4,82.8,57.4,83,57.4,83.2z"/>
<g>
	<g>
		<path class="st2" d="M20.7,0.1l6.9,4c3.7,2.2,6.8,5.3,8.9,9.1l3.4,6.2L31.8,22l-2.7-8.1c-1-3.1-2.6-5.9-4.7-8.3l-4.3-4.9
			C19.8,0.3,20.3-0.2,20.7,0.1z"/>
		<path class="st2" d="M64.3,0.7L60,5.6c-2.1,2.4-3.7,5.3-4.7,8.3l-1.8,5.4L53,21l-0.3,1.1l-8.1-2.6l0.1-0.1l0.3-0.6l3-5.5
			c2.1-3.8,5.2-7,8.9-9.1l6.9-4C64.2-0.2,64.6,0.3,64.3,0.7z"/>
		<path class="st0" d="M71.5,19.3c0,2.6-1.1,5-2.8,6.7c-1.7,1.7-4.1,2.8-6.7,2.8H22.4c-5.2,0-9.5-4.2-9.5-9.5H71.5z"/>
		<path class="st0" d="M57.7,28.8c-0.3,0-0.6,0-0.8,0.1l-0.2,3.9l-0.1,1.5v0.3l-0.2,3.1v0.2v0.2v0.2l-0.2,3.1v0.3l-1.6,28.1
			c0,0.4-0.1,0.9-0.1,1.3C53.6,76.7,49,81,43.3,81.4c0,0,0,0-0.1,0c-0.2,0-0.3,0-0.5,0c-0.1,0-0.3,0-0.4,0c-0.1,0-0.2,0-0.3,0
			c-6-0.2-11-4.6-11.9-10.4C30,70.6,30,70.1,30,69.7L28.4,42v-0.3l-0.2-2.9l0,0v-0.6v-0.6L28,35v-0.1L27.9,33l-0.2-4.2h-0.8
			c0.1-0.9,0.4-1.7,0.7-2.5c0.6-1.5,1.4-2.8,2.5-3.9c0.5-0.5,1-0.9,1.5-1.3c1-0.7,2.1-1.3,3.3-1.7c1.2-0.4,2.5-0.6,3.8-0.6H46
			c1.3,0,2.6,0.2,3.8,0.6s2.3,1,3.3,1.7c0.4,0.3,0.9,0.7,1.3,1.1c1.2,1.2,2.2,2.6,2.8,4.2C57.3,27.1,57.5,27.9,57.7,28.8L57.7,28.8z
			"/>
		<path class="st3" d="M50.1,67.3L50.1,67.3L50.1,67.3c1.1,0.7,2.2,1.5,3.1,2.4c0.4,0.4,0.8,0.8,1.2,1.3c-0.9,5.6-5.5,9.9-11.2,10.3
			c0,0,0,0-0.1,0c-0.2,0-0.3,0-0.5,0c-0.1,0-0.3,0-0.4,0c-0.1,0-0.2,0-0.3,0C36,81.2,31,76.8,30.1,71c1.6-2,3.6-3.6,6-4.6l0,0
			c0.1,0,0.2-0.1,0.3-0.1v-22c0-5.4-3.6-9.9-8.5-11.4l-0.2-4.2h0.6c6.6,0,11.9,5.3,11.9,11.9v24.6c0.7-0.1,1.4-0.1,2.1-0.1
			c0.3,0,0.7,0,1,0c1.1,0.1,2.1,0.2,3.1,0.5v-25c0-6.1,4.6-11.1,10.5-11.8l-0.2,3.9c-3.9,2-6.5,6-6.5,10.6L50.1,67.3L50.1,67.3z"/>
		<path class="st4" d="M43.7,74.5h-0.8c-3.2,0-5.7-2.6-5.7-5.7l0,0h12.2l0,0C49.4,71.9,46.8,74.5,43.7,74.5z"/>
		<path class="st5" d="M32.7,38.2c0,2-1.6,3.6-3.6,3.6c-0.1,0-0.2,0-0.4,0c-0.6-0.1-1.2-0.3-1.7-0.6c-0.9-0.6-1.5-1.7-1.5-2.9
			s0.6-2.3,1.5-2.9c0.4-0.3,0.8-0.5,1.3-0.6c0.2-0.1,0.5-0.1,0.8-0.1C31.1,34.6,32.7,36.3,32.7,38.2z"/>
		<path class="st2" d="M32.7,38.5c-0.1,0.7-0.7,1.1-1.4,1.1c-0.1,0-0.3,0-0.4-0.1c-0.1,0-0.1,0-0.2-0.1c-0.1,0-0.2-0.1-0.2-0.2l0,0
			c-0.1-0.1-0.2-0.2-0.2-0.3c0,0,0-0.1-0.1-0.1c0,0,0,0-0.1-0.1c-0.2-0.3-0.4-0.3-0.9-0.4h-0.1c-0.5,0-0.7,0.1-0.9,0.4
			c0,0,0,0-0.1,0.1c0,0,0,0.1-0.1,0.1c-0.1,0.1-0.1,0.2-0.2,0.3l0,0c-0.1,0.1-0.2,0.1-0.2,0.2c-0.1,0-0.1,0.1-0.2,0.1
			s-0.3,0.1-0.4,0.1c-0.7,0-1.3-0.4-1.4-1.1c-0.1-0.9,0.5-1.6,1.3-1.6c0.2,0,0.3,0,0.5,0.1c0.1,0,0.1,0,0.2,0.1
			c0.1,0,0.2,0.1,0.2,0.2l0,0c0.1,0.1,0.2,0.2,0.3,0.3c0,0,0,0,0,0.1c0,0,0,0.1,0.1,0.1l0,0c0.2,0.3,0.4,0.3,0.9,0.4h0.1
			c0.5,0,0.7-0.1,0.9-0.4l0,0c0,0,0-0.1,0.1-0.1c0,0,0,0,0-0.1c0.1-0.1,0.2-0.2,0.3-0.3l0,0c0.1-0.1,0.2-0.1,0.2-0.2
			c0.1,0,0.1-0.1,0.2-0.1c0.1-0.1,0.3-0.1,0.5-0.1C32.2,36.9,32.8,37.6,32.7,38.5z"/>
		<path class="st5" d="M60.2,37.8c0,1.4-0.8,2.6-2,3.2c-0.5,0.2-1,0.4-1.6,0.4h-0.1c-0.1,0-0.3,0-0.4,0c-1.8-0.2-3.2-1.7-3.2-3.6
			c0-2,1.6-3.6,3.6-3.6l0,0c0.1,0,0.2,0,0.4,0c0.5,0,0.9,0.2,1.3,0.4C59.4,35.2,60.2,36.4,60.2,37.8z"/>
		<path class="st2" d="M60.1,38c-0.1,0.7-0.7,1.1-1.4,1.1c-0.1,0-0.3,0-0.4-0.1c-0.1,0-0.1,0-0.2-0.1c-0.1,0-0.2-0.1-0.2-0.2l0,0
			c-0.1-0.1-0.2-0.2-0.2-0.3c0,0,0-0.1-0.1-0.1c0,0,0,0-0.1-0.1c-0.2-0.3-0.4-0.3-0.9-0.4h-0.1c-0.5,0-0.7,0.1-0.9,0.4
			c0,0,0,0-0.1,0.1c0,0,0,0.1-0.1,0.1c-0.1,0.1-0.1,0.2-0.2,0.3l0,0c-0.1,0.1-0.2,0.1-0.2,0.2c-0.1,0-0.1,0.1-0.2,0.1
			c-0.1,0-0.3,0.1-0.4,0.1c-0.7,0-1.3-0.4-1.4-1.1c-0.1-0.9,0.5-1.6,1.3-1.6c0.2,0,0.3,0,0.5,0.1c0.1,0,0.1,0,0.2,0.1
			c0.1,0,0.2,0.1,0.2,0.2l0,0c0.1,0.1,0.2,0.2,0.3,0.3c0,0,0,0,0,0.1c0,0,0,0.1,0.1,0.1l0,0c0.2,0.3,0.4,0.3,0.9,0.4h0.1
			c0.5,0,0.7-0.1,0.9-0.4l0,0c0,0,0-0.1,0.1-0.1c0,0,0,0,0-0.1c0.1-0.1,0.2-0.2,0.3-0.3l0,0c0.1-0.1,0.2-0.1,0.2-0.2
			c0.1,0,0.1-0.1,0.2-0.1c0.1-0.1,0.3-0.1,0.5-0.1C59.6,36.4,60.3,37.2,60.1,38z"/>
		<path class="st2" d="M46,70.2h-5.6c-2.5,0-4.5-2-4.5-4.5l0,0c0-0.3,0.3-0.6,0.6-0.6h13.2c0.3,0,0.6,0.3,0.6,0.6l0,0
			C50.5,68.2,48.5,70.2,46,70.2z"/>
	</g>
	<path class="st1" d="M71.5,19.3c0,2.6-1.1,5-2.8,6.7c-1.7,1.7-4.1,2.8-6.7,2.8h-4.4l0,0c-0.3,0-0.6,0-0.8,0.1l-0.2,3.9l-0.1,1.5
		l0,0c0.1,0,0.2,0,0.4,0c0.5,0,0.9,0.2,1.3,0.4c1.2,0.6,2,1.8,2,3.2s-0.8,2.6-2,3.2c-0.5,0.2-1,0.4-1.6,0.4h-0.1c-0.1,0-0.3,0-0.4,0
		v0.3l-1.6,28.1c0,0.4-0.1,0.9-0.1,1.3c-0.9,5.6-5.5,9.9-11.2,10.3V18.7h1.7l3-5.5c2.1-3.8,5.2-7,8.9-9.1l6.9-4
		c0.4-0.2,0.8,0.3,0.5,0.6L60,5.6c-2.1,2.4-3.7,5.3-4.7,8.3l-1.8,5.4H71.5z"/>
</g>
</svg>
