<?xml version="1.0" encoding="utf-8"?>
<!-- Generator: Adobe Illustrator 22.0.1, SVG Export Plug-In . SVG Version: 6.00 Build 0)  -->
<svg version="1.1" id="Layer_1" xmlns="http://www.w3.org/2000/svg" xmlns:xlink="http://www.w3.org/1999/xlink" x="0px" y="0px"
	 viewBox="0 0 185.4 66.5" style="enable-background:new 0 0 185.4 66.5;" xml:space="preserve">
<style type="text/css">
	.st0{fill:#2B231B;}
</style>
<g>
	<g>
		<path class="st0" d="M75.1,56.7c0-2.3,0.8-3.9,2.3-4.7c-0.6-0.4-1.1-1-1.5-1.7c-0.4-0.7-0.6-1.6-0.6-2.7c0-1.6,0.4-2.8,1.2-3.7
			c0.8-0.9,2-1.3,3.6-1.3c1.6,0,2.8,0.4,3.6,1.3c0.8,0.9,1.2,2.1,1.2,3.7c0,2-0.7,3.5-2,4.4c1.6,0.9,2.3,2.5,2.3,4.8
			c0,3.8-1.7,5.8-5.1,5.8C76.8,62.5,75.1,60.6,75.1,56.7z M81.7,59.1c0.2-0.6,0.4-1.4,0.4-2.4c0-0.9-0.1-1.7-0.4-2.3
			s-0.7-0.9-1.4-0.9c-0.7,0-1.2,0.3-1.4,0.9c-0.3,0.6-0.4,1.4-0.4,2.4c0,0.9,0.1,1.7,0.4,2.3c0.3,0.6,0.7,0.9,1.5,0.9
			C80.9,60,81.4,59.7,81.7,59.1z M81.8,47.6c0-0.8-0.1-1.4-0.4-1.8c-0.3-0.5-0.7-0.7-1.2-0.7c-0.5,0-1,0.2-1.2,0.7s-0.4,1.1-0.4,1.8
			c0,2.1,0.5,3.1,1.6,3.1C81.2,50.6,81.8,49.6,81.8,47.6z"/>
		<path class="st0" d="M87.4,59h3.2v3.3h-3.2V59z"/>
		<path class="st0" d="M98,45.3h-5.3v-2.6h8.6v2l-4,17.5H94L98,45.3z"/>
		<path class="st0" d="M109.5,42.7h3.3v11.2l3.6-5.6h3.6l-3.5,5.6l3.4,8.3h-3.4l-2.5-6.9l-1.1,1.5v5.3h-3.3V42.7z"/>
		<path class="st0" d="M122,66c-1-0.3-1.6-1-1.6-2c0-0.6,0.2-1.2,0.6-1.7s0.9-0.9,1.4-1.3c-0.6-0.2-1-0.4-1.2-0.7
			c-0.2-0.3-0.4-0.6-0.4-1c0-0.4,0.1-0.8,0.4-1.2c0.3-0.4,0.7-0.8,1.2-1.3c-0.5-0.4-0.9-0.9-1.2-1.5c-0.3-0.6-0.4-1.4-0.4-2.3
			c0-1.7,0.4-2.9,1.1-3.8c0.8-0.8,1.9-1.3,3.3-1.3c1.5,0,2.5,0.5,3,1.4c0.6-0.7,1.2-1.2,1.9-1.5l0.5-0.2l0.8,1.8
			c-0.3,0.1-0.7,0.2-1.2,0.5c-0.5,0.2-0.9,0.4-1.1,0.6c0.1,0.3,0.3,0.7,0.4,1.2c0.1,0.5,0.2,1,0.2,1.5c0,1.5-0.3,2.7-1,3.5
			S127,58,125.5,58c-0.7,0-1.3-0.1-1.8-0.3c-0.3,0.5-0.5,0.8-0.5,1c0,0.3,0.4,0.5,1.2,0.6c0.2,0,0.8,0.1,1.7,0.2
			c0.2,0,0.5,0,0.9,0.1c1.2,0.1,2.1,0.5,2.6,1c0.5,0.5,0.8,1.3,0.8,2.3c0,1.2-0.4,2.1-1.1,2.7c-0.7,0.6-1.9,0.9-3.5,0.9
			C124.4,66.5,123,66.4,122,66z M127.5,64c0.3-0.2,0.5-0.5,0.5-0.9c0-0.4-0.1-0.8-0.3-1c-0.2-0.2-0.7-0.3-1.4-0.4l-2.1-0.2
			c-0.2,0.3-0.4,0.5-0.6,0.8c-0.2,0.3-0.2,0.5-0.2,0.8c0,0.4,0.2,0.7,0.5,0.9s1,0.3,2,0.3C126.7,64.3,127.2,64.2,127.5,64z
			 M126.5,55.2c0.2-0.4,0.3-1.2,0.3-2.2c0-1-0.1-1.8-0.2-2.2c-0.2-0.4-0.5-0.7-1.1-0.7c-0.6,0-1,0.2-1.1,0.7S124,52,124,53.1
			c0,0.9,0.1,1.7,0.3,2.1c0.2,0.5,0.5,0.7,1.1,0.7C126,55.9,126.4,55.7,126.5,55.2z"/>
	</g>
	<g>
		<path class="st0" d="M76.7,0h5.9v32.7h-5.9V0z"/>
		<path class="st0" d="M88.6,30.8c-1.2-1.5-1.8-3.6-1.8-6.3v-7c0-2.8,0.6-4.9,1.8-6.3C89.8,9.7,91.7,9,94.3,9c2.5,0,4.3,0.6,5.4,1.8
			c1.1,1.2,1.7,3,1.7,5.4v1.9h-5.2V16c0-1.2-0.1-2-0.4-2.5c-0.3-0.5-0.8-0.7-1.5-0.7c-0.8,0-1.3,0.3-1.6,0.8s-0.4,1.6-0.4,3.1v8.5
			c0,1.5,0.2,2.4,0.5,3c0.3,0.5,0.8,0.8,1.6,0.8c0.8,0,1.3-0.2,1.5-0.7c0.3-0.5,0.4-1.3,0.4-2.4v-2.5h5.2v2.2c0,2.4-0.6,4.2-1.7,5.4
			s-3,1.9-5.4,1.9C91.7,33,89.8,32.3,88.6,30.8z"/>
		<path class="st0" d="M106.4,30.9c-1.2-1.4-1.8-3.6-1.8-6.4v-6.9c0-2.8,0.6-5,1.8-6.4c1.2-1.4,3.1-2.1,5.7-2.1
			c2.6,0,4.5,0.7,5.6,2.2c1.1,1.5,1.6,3.7,1.6,6.7v3.3H110v3.6c0,1.5,0.1,2.5,0.4,3.2c0.3,0.7,0.8,1,1.7,1c0.7,0,1.2-0.2,1.6-0.7
			s0.5-1.3,0.5-2.3v-2h5.2v1.6c0,2.4-0.6,4.2-1.8,5.5s-3,1.9-5.4,1.9C109.5,33,107.6,32.3,106.4,30.9z M114.1,18.5v-2.2
			c0-1.2-0.1-2.1-0.4-2.6c-0.3-0.5-0.8-0.8-1.6-0.8c-0.8,0-1.3,0.3-1.6,0.8s-0.4,1.6-0.4,3.1v1.6H114.1z"/>
		<path class="st0" d="M123.4,0h5.4v32.7h-5.4V0z"/>
		<path class="st0" d="M135,32.2c-0.8-0.5-1.4-1.2-1.8-2.1c-0.4-0.8-0.6-1.7-0.6-2.6c0-1.7,0.4-3.2,1.2-4.3c0.8-1.1,1.7-2,2.9-2.6
			c1.1-0.6,2.6-1.3,4.4-2l0.9-0.4v-2c0-1.1-0.1-1.9-0.4-2.4c-0.3-0.5-0.7-0.7-1.5-0.7c-1.2,0-1.9,0.9-1.9,2.6l-0.1,1.4l-5.2-0.2
			l0-0.8c0.2-2.4,0.9-4.2,2.2-5.3c1.3-1.1,3.1-1.7,5.5-1.7c2.3,0,4,0.6,5.1,1.9c1.1,1.3,1.7,3,1.7,5.3v10.8c0,1.6,0.1,3.5,0.4,5.7
			h-4.9c-0.3-1.5-0.5-2.6-0.6-3.3c-0.3,1-0.9,1.9-1.6,2.6c-0.8,0.7-1.8,1.1-3,1.1C136.7,33,135.8,32.7,135,32.2z M141,28.5
			c0.4-0.3,0.8-0.7,1-1v-6.5c-2.8,1.5-4.2,3.3-4.2,5.3c0,0.9,0.2,1.5,0.5,2s0.8,0.7,1.4,0.7C140.2,28.9,140.6,28.8,141,28.5z"/>
		<path class="st0" d="M151.4,9.4h5.5v2.3c1.9-1.8,3.7-2.7,5.6-2.7c1.3,0,2.3,0.5,3,1.5c0.7,1,1,2.2,1,3.7v18.5H161V15.2
			c0-0.8-0.1-1.3-0.3-1.7c-0.2-0.3-0.6-0.5-1.2-0.5c-0.7,0-1.5,0.4-2.5,1.1v18.5h-5.5V9.4z"/>
		<path class="st0" d="M171.5,31c-0.9-1.3-1.4-3.4-1.4-6.3v-7.1c0-2.6,0.4-4.7,1.3-6.3c0.9-1.5,2.3-2.3,4.3-2.3
			c1.5,0,2.9,0.6,4.2,1.9V0h5.5v32.7h-5.5V31c-1.3,1.3-2.7,2-4.2,2C173.8,33,172.4,32.3,171.5,31z M179.9,28.5v-15
			c-0.7-0.5-1.4-0.8-2.2-0.8c-1.4,0-2.1,1.2-2.1,3.7v8.7c0,1.3,0.1,2.3,0.4,3c0.3,0.7,0.8,1.1,1.7,1.1
			C178.4,29.2,179.1,29,179.9,28.5z"/>
	</g>
</g>
<path id="IS_2_" class="st0" d="M58.5,12.9l0.8,0.1l1.2-0.6l0.5-0.4l1.3-1.3l0.7-0.4l1.2,0.1l0.6-0.1l0,0.1L64,11.1l-0.6,0.2
	L62.7,12l-0.8,1.7l-0.6,0.8l0,0.4l0.7,0.7l0.8,0.4l0.7-0.3l0.3,0.1l0.3,0.5l0.2,0.5l0,0.5l-0.1,1l-0.4,1l-0.6,0.8l0.1,0.3l0.5,0.1
	l2.2-0.5l0.2,0l0.1,0.3l0,0.5l0.1,0.5l0.2,0.4l-0.1,0.4l-1,1.3l1.1-0.8l0.9-0.2l1.5,0.4l0.6,0.5l0.4,0.8l0.5-0.3l0.2,0l0.3,0.5
	l0,0.5l-0.3,0.7l-0.1,0.7l-0.3,0.3l-0.5,0.2l-0.1,0.2l0.2,0.5l0.3,0.5l0.5,0l0.1,0.2l0,0.3l-0.1,0.3l-0.1,0.2l-0.2,0.1l-0.3,0.4
	l1.1,0.8l0.1,0.3l0,0.4l-0.1,0.5l-0.2,0.5l-0.3,0.3l-0.8,0l-0.5,0.3l0.2,0.5l0,0.7l-0.2,0.8L69,35.7l-0.6,0.6l-0.6,0.4l-1.1-0.1
	l-0.6-0.3l0.1,1L65.6,38l0.1,0.5l0.2,0.3l-0.1,0.7l-0.3,0.7l-0.5,0.7l-0.5,0.5l-1.1,0.5l-0.9,0.9l-0.6,0.4l-1.5,0l-1.6,0.6L56.6,45
	l-1.5,1L54,47.1l-1.5,1.8l-1.1,0.8l-0.7,0.2L49.4,50l-1.1,0.5l-3.5,0.9l-1.2,0.5l-0.2,0.5L43,53l0,0.2l0.2,0.2l0,0.2l-0.4,0.8
	l-0.9,0.6l-0.4,0L41,54.6l-0.2,0l-0.1,0.1l0,0.2l0.3,0.6l-0.5,0.3l-2.3,0.7l-3.9-0.5l-1.5-0.5l-1.9-0.9l-1.1-0.2L28,54.2L26.7,53
	l-0.6-0.7l0-0.3l0.1-0.4l0.1-0.2l0.2-0.1l0.4,0l0.1-0.1l-0.3-0.6l-0.3,0.2l-0.9,0.8l-0.4,0l-0.5-0.4l0-0.4l-1-0.2L22.7,50l-0.8-0.7
	L21.8,49l0.4-0.4l-0.1-0.1l-0.3-0.1l-0.6,0.1l-0.9,0.9l-0.4,0.2l-6.1,0.2L12.2,50l-0.3,0.1l-0.3-0.6l-0.2-1.4l-0.1-0.9l0.1-0.4
	l0.2-0.5l0.3,0.1l0.3,0.4l0.3,0.6l0.3,0.3L15,47l0.9-0.5l0.4-0.5l0.4-0.8l0.5-0.4l0.2-0.4l0.4-1.2l0.3-0.6l0.4-0.4l0.4-0.3l0.9-0.2
	l-0.6-0.3h-0.6l-2,1.3h-0.7l0-0.2l0.3-0.4l0.7-0.6l-0.5,0l-0.2-0.3l0-0.6l0.4-1l1.6-1.3l0.6-0.2l0.2-0.2L18.7,38l-0.3-0.1l-1.6,1.3
	l-1.2,0.4l-0.4-0.1L14.6,39l-0.2-0.2l-0.3-0.6l0-0.3l0.6-1l-0.1-0.2l-0.4-0.1l-1-0.9l-1.7,0.1l-4.1-0.5l-0.8,0.2l-1.4,0.8l-0.8,0.3
	l-0.4-0.2l-0.4-0.4l-0.3-0.6l-0.3-0.7L3.1,34l0.5-0.3L4,33.6l1.1,0.2l1.4-0.5l0.9-0.1l0.2-0.1l0.5-0.5l0.3-0.1l0.4,0.2L9,32.9
	l1.4-0.6l0.5-0.3l0.1-0.2l0.2-0.2l0.7,0.3l0.6,0l0.7-0.2l1.2-0.1l2.7,0l0.4-0.5l0.2-0.4l0.2-1.1l-0.1-0.2l-1.7,1l-0.4,0l-2-0.5
	l-0.7-0.6l0.2-0.5l1-1l1.1-0.8l1.6-0.9l0.4-0.3l0-0.4l-1.1-0.7l-2,0.2L13.7,24L12,23.5l-1.1,0.3l-0.6-0.5L8.9,24l-3.2,1l-1.3,0.7
	L3.8,26L3,25.5l-1.3-0.7l-1.5-0.2L0,24.2L0.9,23l0.6-0.2l0.6,0.1l1.2,0.8L4.1,24l-1-1.2l0-0.5L3,21.6l-0.3-0.3l-0.3-0.8l0.1-0.3
	l0.4-0.1l0.8,0.3l1.9,1.4l0.9-0.2L7.1,21l0.7-0.4l-0.2-0.2l-1.7,0L5,20.1l-0.4-0.4L4.2,19l0.1-0.3l0.5-0.3l1.4,0.1l-0.9-1.2
	l-0.6-0.7l-0.1-0.3l0-0.4l0.1-0.3l0.1-0.1l1.6,0.7l0.4,0l-0.3-0.5l-0.7-0.7l0-0.2L6,14.7l0.1-0.4l0-0.3l0.5-0.3l0.5,0l0.5,0.2
	l1.6,1.3l0.2,0.4l0.1,0.5l-0.1,0.6l0.1,0.2l0.6-0.2l0.5,0.2l0.2-0.1l0.6-0.9l0.4,0.2l0.2,0.4l0.1,0.4l0,0.5l-0.1,1.1l0,0.2l0.4-0.6
	l0.7,0l0.1-0.3l0-1.1l-0.1-1l-0.1-0.2l-2.4-1.3l-0.4-0.3L10,13.2l0.1-0.3l0.5-0.3l0.7-0.1l1.6,0l0.2-0.1L12.7,12L12,11.7l-0.2-0.2
	l-0.1-0.4l-0.9,0.2l-1,0l-1-0.2l0-0.3l0.4-0.4L10,9.7l0.4-0.2l1.1,0.1l1.1-0.2l0.9,0.3l0.7,0.7l1,1.3l1.3,0.8l0.1,0.3l0.7,0.7
	l1.4,1.8l1.4,1l0.1,0.3l-0.2,0.3l-0.6,0.4l0.1,0.2l0.7,0.3l0.5,0.7l0,0.3l-0.5,2.1l-0.2,0.5l-0.3,0.2L18.5,21l0.3,0.7l0.9,0.7
	l0.2,0.4l-0.1,0.4l0.1,0.1l0.3-0.2l0.1,0.2L20.3,24l-0.1,0.5L19.9,25l0.1,0.2l0.4-0.1l0.3,0.1l0.5,0.6l0.4,1.8l0.2,0.6l0.2-0.5
	l0.2-1.3l0.2-0.7l0.2,0l0.1-0.2l0.1-0.4l0.3-1.5l0.9-1.1l0.4-0.3l0.4-0.1l0.2,0.1l0.7,1.2l0.4,0.2l0.2-0.1l0.3-0.8l0.4-1.5l0.1-1.7
	l-0.2-1.9l0.1-1.4l0.4-0.8L28,15l0.7,0.3l0.5,0.5l1,1.9l0.8,1l0.7,1.1l0.4,0.3l0.7,0.2l0.2-0.1L33,20l0.1-0.4l-0.1-2.7l0.2-0.9
	l0.3-0.6l1.2-0.4l0.7-0.4l0.7-0.6l0.5-0.3l0.4,0l0.4,0.2l0.5,0.5l0.7,1l0.9,1.7l1.2,1.3l0.6,2l0.1,0.3l0.1,0l0.2-0.3l0.1-0.4l0-0.9
	l-0.3-1.2l-1.1-3l0-0.6l0.1-0.5l0.8-0.1l1.8,0.3l0.6,0.5l1.2,1.9l0.3,0.4l0.2,0.1l0.1-0.2l0.5-0.3l0.3-0.4l0.5-1l1.2-1.8l0.2-0.1
	l0.3,0.1l0.6,0.5l0.3,0.4l0.6,0.3l0.6-0.1l0.8-0.6l0.9-0.4l0.3-0.9l0.1-0.4L52,9.4l0.3-0.6l1.6-0.7l1.4-0.1l0.3,0.2l0.9,1.3l0.6,0.7
	l0.3,0.5l0.1,1.2l0.4,0.4L58.5,12.9z"/>
</svg>
