<?xml version="1.0" encoding="utf-8"?>
<!-- Generator: Adobe Illustrator 22.0.1, SVG Export Plug-In . SVG Version: 6.00 Build 0)  -->
<svg version="1.1" id="Layer_1" xmlns="http://www.w3.org/2000/svg" xmlns:xlink="http://www.w3.org/1999/xlink" x="0px" y="0px"
	 viewBox="0 0 152.7 116.9" style="enable-background:new 0 0 152.7 116.9;" xml:space="preserve">
<style type="text/css">
	.st0{fill:#B5806C;}
	.st1{fill:#936151;}
	.st2{fill:#E2D1B2;}
	.st3{fill:#CDB892;}
	.st4{fill:#E8D6B9;}
	.st5{fill:#2B231B;}
</style>
<path class="st0" d="M74.7,62.4c4.2,13,5.2,25.9,2.9,38.4c-0.8,4.1-1.8,7.5-2.7,10c-0.4,1.2-1.4,2-2.5,1.9
	C54.1,110.4,39.7,86,39.7,56.2C39.7,29.3,51.5,6.8,67.3,1c1.6-0.6,3.1,1.2,2.8,3.2c-0.3,1.6-0.5,3.4-0.7,5.2
	C68,21.9,67.9,41.2,74.7,62.4z"/>
<path class="st1" d="M110.9,56.2c0,26.7-11.6,49-27.2,55c-1.2,0.5-2.3-1-1.9-2.4C84.8,98.3,87,81,80.1,59.6
	c-6.3-19.6-6.2-37.4-5-48.8c0.3-2.8,0.7-5.4,1.1-7.7c0.4-2,1.9-3.4,3.5-3C97.3,3.5,110.9,27.3,110.9,56.2z"/>
<g>
	<polygon class="st2" points="152.8,116.9 124.9,116.9 124.9,88.9 152.8,88.9 146.3,102.9 	"/>
	<polygon class="st3" points="134.9,80 124.9,88.9 124.9,116.9 134.9,107.9 	"/>
	<polygon class="st2" points="0.2,116.9 28.1,116.9 28.1,88.9 0.2,88.9 6.7,102.9 	"/>
	<polygon class="st3" points="18.1,80 28.1,88.9 28.1,116.9 18.1,107.9 	"/>
	<rect x="18.1" y="80" class="st4" width="116.8" height="27.9"/>
</g>
<g>
	<path class="st5" d="M36.7,84.7H39v14.5h4.1v1.6h-6.4V84.7z"/>
	<path class="st5" d="M44.6,85.3h2.1v2.2h-2.1V85.3z M44.6,89.3h2.1v11.5h-2.1V89.3z"/>
	<path class="st5" d="M49.4,104c-0.7-0.2-1.1-0.7-1.1-1.5c0-0.6,0.2-1.1,0.5-1.6s0.7-0.8,1.2-1c-0.4-0.1-0.6-0.3-0.8-0.5
		c-0.2-0.2-0.3-0.5-0.3-0.7c0-0.4,0.1-0.7,0.3-1c0.2-0.3,0.5-0.6,1-1.1c-0.5-0.3-0.8-0.8-1-1.3c-0.2-0.5-0.3-1.2-0.3-2.1
		c0-1.3,0.3-2.4,0.8-3.1c0.5-0.7,1.4-1,2.4-1c0.6,0,1.1,0.1,1.5,0.3c0.4,0.2,0.7,0.5,0.9,1c0.1-0.1,0.3-0.3,0.6-0.6s0.6-0.4,1-0.6
		l0.3-0.1l0.5,1.4c-0.3,0.1-0.6,0.2-1.1,0.3c-0.5,0.2-0.8,0.3-0.8,0.4c0.1,0.2,0.2,0.6,0.2,1c0.1,0.4,0.1,0.8,0.1,1.1
		c0,1.3-0.2,2.2-0.7,2.9c-0.5,0.7-1.3,1-2.4,1c-0.4,0-0.7,0-1.1-0.1c0,0-0.1,0.2-0.2,0.3s-0.2,0.4-0.2,0.5c0,0.1,0.1,0.3,0.2,0.3
		s0.4,0.1,0.7,0.2c0.2,0,0.5,0.1,0.9,0.1c0.4,0,0.7,0.1,0.9,0.1c1.8,0.2,2.7,1.1,2.7,2.8c0,1-0.3,1.8-0.8,2.2
		c-0.6,0.4-1.4,0.7-2.6,0.7C51.2,104.3,50.2,104.2,49.4,104z M53.9,102.4c0.3-0.2,0.4-0.5,0.4-0.9c0-0.4-0.1-0.6-0.3-0.8
		s-0.6-0.3-1.2-0.3l-1.8-0.2c-0.2,0.2-0.4,0.4-0.6,0.6s-0.3,0.5-0.3,0.9c0,0.2,0.1,0.4,0.2,0.6c0.1,0.1,0.4,0.2,0.7,0.3
		c0.4,0.1,0.9,0.1,1.5,0.1C53.2,102.6,53.6,102.6,53.9,102.4z M53.2,95.1c0.2-0.4,0.3-1,0.3-1.9c0-0.9-0.1-1.6-0.3-2
		s-0.5-0.6-1.1-0.6s-0.9,0.2-1.1,0.6c-0.2,0.4-0.3,1.1-0.3,2c0,0.8,0.1,1.5,0.3,1.9c0.2,0.4,0.6,0.7,1.1,0.7
		C52.6,95.7,53,95.5,53.2,95.1z"/>
	<path class="st5" d="M57.7,84.7h2.1v5.8c1-0.9,1.9-1.4,2.9-1.4c0.6,0,1.1,0.2,1.3,0.7c0.3,0.5,0.4,1,0.4,1.7v9.3h-2.1v-8.7
		c0-0.4-0.1-0.8-0.2-1c-0.1-0.2-0.4-0.3-0.7-0.3c-0.5,0-1,0.3-1.6,0.8v9.2h-2.1V84.7z"/>
	<path class="st5" d="M67.7,100.2c-0.4-0.5-0.6-1.1-0.6-2.1v-7.5h-1.2v-1.4h1.2v-3.4h2.1v3.4h1.8v1.4h-1.8V98c0,0.5,0.1,0.8,0.2,1
		s0.4,0.3,0.8,0.3c0.3,0,0.5,0,0.8-0.1v1.6c-0.5,0.1-1,0.1-1.5,0.1C68.7,100.9,68.1,100.7,67.7,100.2z"/>
	<path class="st5" d="M77.2,89.3h2.1v1.6c0.4-0.6,0.8-1.1,1.2-1.4c0.4-0.3,0.9-0.4,1.3-0.4c0.1,0,0.2,0,0.3,0v2.3
		c-0.4-0.2-0.8-0.2-1.2-0.2c-0.3,0-0.7,0.1-0.9,0.2c-0.3,0.2-0.5,0.5-0.8,0.9v8.4h-2.1V89.3z"/>
	<path class="st5" d="M84.1,99.8c-0.5-0.7-0.8-1.8-0.8-3.2v-3.3c0-1.4,0.3-2.4,0.8-3.2c0.5-0.7,1.4-1.1,2.6-1.1
		c1.2,0,2.1,0.4,2.6,1.1c0.5,0.7,0.8,1.8,0.8,3.2v3.3c0,1.4-0.3,2.4-0.8,3.2c-0.5,0.7-1.4,1.1-2.6,1.1
		C85.5,100.9,84.6,100.6,84.1,99.8z M87.5,99c0.2-0.2,0.3-0.5,0.3-0.8c0-0.3,0.1-0.8,0.1-1.4v-3.6c0-0.6,0-1-0.1-1.4
		c0-0.3-0.1-0.6-0.3-0.8c-0.2-0.2-0.5-0.3-0.8-0.3c-0.4,0-0.7,0.1-0.8,0.3c-0.2,0.2-0.3,0.5-0.3,0.8s-0.1,0.8-0.1,1.4v3.6
		c0,0.6,0,1,0.1,1.4s0.1,0.6,0.3,0.8s0.5,0.3,0.8,0.3C87.1,99.3,87.4,99.2,87.5,99z"/>
	<path class="st5" d="M92.9,100.5c-0.4-0.3-0.6-0.6-0.8-1c-0.2-0.4-0.3-0.8-0.3-1.3c0-0.9,0.2-1.6,0.6-2.2c0.4-0.6,0.9-1,1.5-1.3
		c0.6-0.3,1.4-0.7,2.5-1.1v-0.8c0-0.8-0.1-1.3-0.2-1.6c-0.2-0.3-0.5-0.5-0.9-0.5c-0.8,0-1.2,0.5-1.2,1.6v0.6l-2.1-0.1l0-0.4
		c0.1-1.2,0.4-2,1-2.5c0.6-0.5,1.4-0.8,2.5-0.8c1.1,0,1.9,0.3,2.4,0.9c0.5,0.6,0.7,1.5,0.7,2.7V98c0,0.9,0.1,1.8,0.2,2.8h-1.9
		c-0.1-0.8-0.2-1.3-0.3-1.7c-0.2,0.5-0.4,1-0.8,1.3c-0.4,0.4-0.9,0.5-1.5,0.5C93.6,100.9,93.2,100.8,92.9,100.5z M95.7,98.8
		c0.3-0.2,0.5-0.4,0.6-0.6v-3.3c-0.6,0.3-1,0.6-1.3,0.8c-0.3,0.2-0.5,0.5-0.8,0.8c-0.2,0.3-0.3,0.7-0.3,1.1c0,0.5,0.1,0.8,0.3,1.1
		c0.2,0.3,0.4,0.4,0.8,0.4C95.2,99.1,95.4,99,95.7,98.8z"/>
	<path class="st5" d="M100.9,100c-0.6-0.6-0.9-1.4-1-2.3l1.8-0.5c0.1,0.7,0.3,1.3,0.5,1.6c0.2,0.4,0.6,0.5,1,0.5
		c0.4,0,0.7-0.1,0.9-0.3c0.2-0.2,0.4-0.5,0.4-0.9c0-0.6-0.3-1.2-0.9-1.7l-2-1.7c-0.5-0.4-0.8-0.8-1-1.2c-0.2-0.4-0.4-0.9-0.4-1.5
		c0-0.9,0.3-1.6,0.8-2.1c0.5-0.5,1.3-0.8,2.2-0.8c0.9,0,1.6,0.3,2.1,0.8s0.8,1.3,0.9,2.2l-1.4,0.5c-0.1-0.6-0.2-1.1-0.5-1.5
		s-0.5-0.5-1-0.5c-0.3,0-0.6,0.1-0.8,0.3c-0.2,0.2-0.3,0.5-0.3,0.8c0,0.4,0.2,0.8,0.6,1.2l2,1.9c0.5,0.5,0.9,0.9,1.2,1.4
		c0.3,0.5,0.4,1,0.4,1.7c0,1-0.3,1.7-0.9,2.2c-0.6,0.5-1.3,0.8-2.3,0.8C102.2,100.9,101.4,100.6,100.9,100z"/>
	<path class="st5" d="M109.1,100.2c-0.4-0.5-0.6-1.1-0.6-2.1v-7.5h-1.2v-1.4h1.2v-3.4h2.1v3.4h1.8v1.4h-1.8V98c0,0.5,0.1,0.8,0.2,1
		s0.4,0.3,0.8,0.3c0.3,0,0.5,0,0.8-0.1v1.6c-0.5,0.1-1,0.1-1.5,0.1C110.1,100.9,109.4,100.7,109.1,100.2z"/>
</g>
</svg>
