<?xml version="1.0" encoding="utf-8"?>
<!-- Generator: Adobe Illustrator 22.0.1, SVG Export Plug-In . SVG Version: 6.00 Build 0)  -->
<svg version="1.1" id="Layer_1" xmlns="http://www.w3.org/2000/svg" xmlns:xlink="http://www.w3.org/1999/xlink" x="0px" y="0px"
	 viewBox="0 0 319.8 112.4" style="enable-background:new 0 0 319.8 112.4;" xml:space="preserve">
<style type="text/css">
	.st0{fill:#E8D6B9;}
	.st1{fill:#1E1E1E;}
	.st2{fill:#2B231B;}
</style>
<g>
	<g>
		<g>
			<g>
				<g>
					<path class="st0" d="M2.4,102.7c-0.4,0-0.8-0.2-1-0.6c-0.2-0.4-0.2-0.8,0-1.2l10.2-16.5L1.4,67.8c-0.2-0.4-0.2-0.8,0-1.2
						c0.2-0.4,0.6-0.6,1-0.6c0,0,36.2,0.1,36.2,0.1c0.5,0,1,0.4,1.1,0.9c0.1,0.5-0.1,1.1-0.6,1.3L24.8,76v25.7
						c0,0.3-0.1,0.6-0.3,0.8c-0.2,0.2-0.5,0.3-0.8,0.3C23.6,102.8,2.4,102.7,2.4,102.7z"/>
					<path class="st1" d="M2.4,67.1l36.2,0.1l-15,8v26.4l-21.2-0.1L13,84.5L2.4,67.1 M2.4,64.8c-0.9,0-1.6,0.5-2.1,1.2
						c-0.4,0.8-0.4,1.7,0,2.4l9.9,16.1l-9.9,15.8c-0.5,0.7-0.5,1.6-0.1,2.4c0.4,0.8,1.2,1.2,2.1,1.2l21.2,0.1c0,0,0,0,0,0
						c0.6,0,1.2-0.2,1.7-0.7c0.4-0.4,0.7-1,0.7-1.7V76.7l13.7-7.3c1-0.5,1.4-1.6,1.2-2.7c-0.3-1.1-1.2-1.8-2.3-1.8L2.4,64.8
						C2.4,64.8,2.4,64.8,2.4,64.8L2.4,64.8z"/>
				</g>
			</g>
			<g>
				<g>
					<g>
						<path class="st0" d="M28.8,76.5c-0.5,0-1-0.4-1.2-0.9c-0.1-0.5,0.1-1.1,0.6-1.3l10.8-5.8c0.2-0.1,0.4-0.1,0.6-0.1
							c0.2,0,0.4,0.1,0.6,0.2c0.4,0.2,0.6,0.6,0.6,1v5.8c0,0.7-0.5,1.2-1.2,1.2H28.8z"/>
						<path class="st1" d="M39.6,69.6v5.8H28.8L39.6,69.6 M39.6,67.2c-0.4,0-0.8,0.1-1.1,0.3l-10.8,5.8c-1,0.5-1.5,1.6-1.2,2.7
							c0.3,1.1,1.2,1.8,2.3,1.8h10.8c1.3,0,2.4-1.1,2.4-2.4v-5.8c0-0.8-0.4-1.6-1.2-2C40.5,67.3,40,67.2,39.6,67.2L39.6,67.2z"/>
					</g>
				</g>
			</g>
		</g>
		<g>
			<g>
				<g>
					<path class="st0" d="M296.2,102.8c-0.3,0-0.6-0.1-0.8-0.3c-0.2-0.2-0.3-0.5-0.3-0.8V76l-14.4-7.7c-0.5-0.3-0.7-0.8-0.6-1.3
						c0.1-0.5,0.6-0.9,1.1-0.9c0,0,36.2-0.1,36.2-0.1c0.5,0,0.9,0.3,1.1,0.7c0.2,0.4,0.1,0.9-0.2,1.3l-15.5,16.5l15.5,16.3
						c0.3,0.3,0.4,0.8,0.2,1.3c-0.2,0.4-0.6,0.7-1.1,0.7C317.5,102.7,296.2,102.8,296.2,102.8z M280.2,76.5c-0.7,0-1.2-0.5-1.2-1.2
						v-5.8c0-0.4,0.2-0.8,0.6-1c0.2-0.1,0.4-0.2,0.6-0.2c0.2,0,0.4,0,0.6,0.1l10.8,5.8c0.5,0.3,0.7,0.8,0.6,1.3
						c-0.1,0.5-0.6,0.9-1.2,0.9H280.2z"/>
					<path class="st2" d="M317.5,67.1l-16.3,17.3l16.2,17.1l-21.2,0.1V75.2l-15-8L317.5,67.1 M280.2,69.6l10.8,5.8h-10.8V69.6
						 M317.5,64.8C317.5,64.8,317.5,64.8,317.5,64.8l-36.3,0.1c-1.1,0-2,0.7-2.3,1.8c-0.1,0.3-0.1,0.6,0,0.9c-0.6,0.4-1,1.2-1,2v5.8
						c0,1.3,1.1,2.4,2.4,2.4h10.8c0.9,0,1.8-0.5,2.1-1.4l0.7,0.3v24.9c0,0.6,0.3,1.2,0.7,1.7c0.4,0.4,1,0.7,1.7,0.7c0,0,0,0,0,0
						l21.2-0.1c0.9,0,1.8-0.6,2.2-1.4c0.4-0.9,0.2-1.9-0.5-2.6l-14.7-15.5l14.7-15.7c0.6-0.7,0.8-1.7,0.4-2.6
						C319.3,65.3,318.4,64.8,317.5,64.8L317.5,64.8z"/>
				</g>
				<g>
					<path class="st0" d="M296.2,102.8c-0.3,0-0.6-0.1-0.8-0.3c-0.2-0.2-0.3-0.5-0.3-0.8V76l-14.4-7.7c-0.5-0.3-0.7-0.8-0.6-1.3
						c0.1-0.5,0.6-0.9,1.1-0.9c0,0,36.2-0.1,36.2-0.1c0.4,0,0.8,0.2,1,0.6c0.2,0.4,0.2,0.8,0,1.2l-10.3,16.7l10.2,16.5
						c0.2,0.4,0.2,0.8,0,1.2c-0.2,0.4-0.6,0.6-1,0.6C317.5,102.7,296.2,102.8,296.2,102.8z"/>
					<path class="st1" d="M317.5,67.1l-10.6,17.3l10.6,17.1l-21.2,0.1V75.2l-15-8L317.5,67.1 M317.5,64.8
						C317.5,64.8,317.5,64.8,317.5,64.8l-36.3,0.1c-1.1,0-2,0.7-2.3,1.8c-0.3,1.1,0.2,2.2,1.2,2.7l13.7,7.3v24.9
						c0,0.6,0.3,1.2,0.7,1.7c0.4,0.4,1,0.7,1.7,0.7c0,0,0,0,0,0l21.2-0.1c0.9,0,1.7-0.5,2.1-1.2c0.4-0.8,0.4-1.7-0.1-2.4l-9.9-15.8
						l9.9-16.1c0.5-0.7,0.5-1.7,0-2.4C319.1,65.2,318.3,64.8,317.5,64.8L317.5,64.8z"/>
				</g>
			</g>
			<g>
				<g>
					<g>
						<path class="st0" d="M280.2,76.5c-0.7,0-1.2-0.5-1.2-1.2v-5.8c0-0.4,0.2-0.8,0.6-1c0.2-0.1,0.4-0.2,0.6-0.2
							c0.2,0,0.4,0,0.6,0.1l10.8,5.8c0.5,0.3,0.7,0.8,0.6,1.3c-0.1,0.5-0.6,0.9-1.2,0.9H280.2z"/>
						<path class="st1" d="M280.2,69.6l10.8,5.8h-10.8V69.6 M280.2,67.2c-0.4,0-0.8,0.1-1.2,0.3c-0.7,0.4-1.2,1.2-1.2,2v5.8
							c0,1.3,1.1,2.4,2.4,2.4h10.8c1.1,0,2-0.7,2.3-1.8c0.3-1.1-0.2-2.2-1.2-2.7l-10.8-5.8C281,67.3,280.6,67.2,280.2,67.2
							L280.2,67.2z"/>
					</g>
				</g>
			</g>
		</g>
		<g>
			<g>
				<g>
					<path class="st0" d="M26.5,111.2c-0.7,0-1.2-0.5-1.2-1.2V77.7c0-0.7,0.5-1.2,1.2-1.2h266.8c0.7,0,1.2,0.5,1.2,1.2v32.4
						c0,0.7-0.5,1.2-1.2,1.2H26.5z"/>
					<path class="st2" d="M293.3,77.7v32.4H26.5V77.7H293.3 M293.3,75.3H26.5c-1.3,0-2.4,1.1-2.4,2.4v32.4c0,1.3,1.1,2.4,2.4,2.4
						h266.8c1.3,0,2.4-1.1,2.4-2.4V77.7C295.7,76.4,294.6,75.3,293.3,75.3L293.3,75.3z"/>
				</g>
			</g>
			<g>
				<g>
					<path class="st0" d="M26.5,111.2c-0.7,0-1.2-0.5-1.2-1.2V77.7c0-0.7,0.5-1.2,1.2-1.2h266.8c0.7,0,1.2,0.5,1.2,1.2v32.4
						c0,0.7-0.5,1.2-1.2,1.2H26.5z"/>
					<path class="st2" d="M293.3,77.7v32.4H26.5V77.7H293.3 M293.3,75.3H26.5c-1.3,0-2.4,1.1-2.4,2.4v32.4c0,1.3,1.1,2.4,2.4,2.4
						h266.8c1.3,0,2.4-1.1,2.4-2.4V77.7C295.7,76.4,294.6,75.3,293.3,75.3L293.3,75.3z"/>
				</g>
				<g>
					<path class="st0" d="M26.5,111.2c-0.7,0-1.2-0.5-1.2-1.2V77.7c0-0.7,0.5-1.2,1.2-1.2h266.8c0.7,0,1.2,0.5,1.2,1.2v32.4
						c0,0.7-0.5,1.2-1.2,1.2H26.5z"/>
					<path class="st1" d="M293.3,77.7v32.4H26.5V77.7H293.3 M293.3,75.3H26.5c-1.3,0-2.4,1.1-2.4,2.4v32.4c0,1.3,1.1,2.4,2.4,2.4
						h266.8c1.3,0,2.4-1.1,2.4-2.4V77.7C295.7,76.4,294.6,75.3,293.3,75.3L293.3,75.3z"/>
				</g>
			</g>
		</g>
	</g>
	<g>
		<path class="st1" d="M68.8,84.8h2.6l4.1,19h-2.5L72,99h-3.9l-0.9,4.8h-2.5L68.8,84.8z M71.7,97.1l-1.6-8.6l-1.6,8.6H71.7z"/>
		<path class="st1" d="M87.8,102.8v1h-2.5v-19h2.5v6.5c0.7-0.8,1.6-1.3,2.6-1.3c1.2,0,2.1,0.5,2.5,1.6s0.6,2.2,0.6,3.5v3.3
			c0,3.7-1.1,5.6-3.4,5.6C89.3,104,88.5,103.6,87.8,102.8z M90.7,101.1c0.2-0.6,0.2-1.5,0.2-2.7v-3.3c0-1-0.1-1.8-0.3-2.3
			c-0.2-0.5-0.6-0.8-1.2-0.8c-0.5,0-1.1,0.2-1.7,0.7v8.7c0.5,0.4,1.1,0.6,1.8,0.6C90.2,102,90.5,101.7,90.7,101.1z"/>
		<path class="st1" d="M97.2,90.2h2.5v1.9c0.5-0.8,1-1.3,1.4-1.6c0.5-0.3,1-0.5,1.6-0.5c0.1,0,0.3,0,0.4,0v2.8
			c-0.5-0.2-1-0.3-1.4-0.3c-0.4,0-0.8,0.1-1.1,0.3c-0.3,0.2-0.6,0.5-0.9,1v9.9h-2.5V90.2z"/>
		<path class="st1" d="M106.2,85.6h2.5v2.6h-2.5V85.6z M106.2,90.2h2.5v13.6h-2.5V90.2z"/>
		<path class="st1" d="M114.1,103.4c-0.6-0.4-1-1-1.2-1.8c-0.2-0.8-0.4-1.8-0.4-3.1v-3.1c0-1.9,0.3-3.3,0.9-4.1
			c0.6-0.9,1.6-1.3,3.1-1.3c1.1,0,1.9,0.2,2.5,0.7c0.6,0.5,0.9,1.1,1.1,1.9c0.2,0.8,0.3,1.9,0.3,3.3v1.1H115v1.8
			c0,0.8,0,1.4,0.1,1.8c0,0.4,0.2,0.7,0.4,1c0.2,0.3,0.6,0.4,1,0.4c0.5,0,0.9-0.2,1.1-0.6c0.2-0.4,0.3-0.9,0.3-1.7v-0.8h2.4v0.5
			c0,1.4-0.3,2.5-0.9,3.3c-0.6,0.8-1.6,1.1-2.9,1.1C115.4,104,114.6,103.8,114.1,103.4z M117.9,95.7v-1.2c0-0.9-0.1-1.6-0.3-2
			c-0.2-0.4-0.6-0.6-1.1-0.6c-0.4,0-0.7,0.1-0.9,0.3c-0.2,0.2-0.4,0.5-0.4,0.9S115,94.1,115,95v0.7H117.9z"/>
		<path class="st1" d="M124.8,92.1h-1.6v-1.9h1.6v-0.7c0-0.9,0.1-1.7,0.2-2.3c0.1-0.6,0.4-1,0.9-1.3c0.4-0.3,1.1-0.5,1.9-0.5
			c0.4,0,0.9,0,1.6,0.1v1.9c-0.1,0-0.3,0-0.5-0.1c-0.2,0-0.3,0-0.5,0c-0.5,0-0.8,0.1-0.9,0.4s-0.2,0.7-0.2,1.3v1.1h2.1v1.9h-2.1
			v11.7h-2.5V92.1z"/>
		<path class="st1" d="M139,85.6h2.5v2.6H139V85.6z M139,90.2h2.5v13.6H139V90.2z"/>
		<path class="st1" d="M145.6,90.2h2.5v1.3c1.1-1,2.2-1.5,3.3-1.5c0.7,0,1.3,0.3,1.6,0.8c0.3,0.5,0.5,1.2,0.5,2v11h-2.5V93.5
			c0-0.5-0.1-0.9-0.2-1.2c-0.2-0.3-0.4-0.4-0.8-0.4c-0.5,0-1.1,0.3-1.8,0.8v10.9h-2.5V90.2z"/>
		<path class="st1" d="M158.7,103.2c-0.5-0.5-0.7-1.4-0.7-2.4v-8.9h-1.4v-1.7h1.4v-4h2.5v4h2.2v1.7h-2.2v8.7c0,0.5,0.1,0.9,0.3,1.2
			c0.2,0.2,0.5,0.3,1,0.3c0.3,0,0.6,0,0.9-0.1v1.9c-0.6,0.1-1.2,0.1-1.7,0.1C159.9,104,159.1,103.7,158.7,103.2z"/>
		<path class="st1" d="M165.9,90.2h2.5v1.9c0.5-0.8,1-1.3,1.4-1.6c0.5-0.3,1-0.5,1.6-0.5c0.1,0,0.3,0,0.4,0v2.8
			c-0.5-0.2-1-0.3-1.4-0.3c-0.4,0-0.8,0.1-1.1,0.3c-0.3,0.2-0.6,0.5-0.9,1v9.9h-2.5V90.2z"/>
		<path class="st1" d="M175.4,102.7c-0.6-0.9-0.9-2.1-0.9-3.7V95c0-1.6,0.3-2.9,0.9-3.7c0.6-0.9,1.6-1.3,3.1-1.3
			c1.4,0,2.4,0.4,3,1.3c0.6,0.9,0.9,2.1,0.9,3.7V99c0,1.6-0.3,2.9-0.9,3.7c-0.6,0.9-1.6,1.3-3,1.3C177,104,176,103.6,175.4,102.7z
			 M179.5,101.7c0.2-0.3,0.3-0.6,0.4-1c0-0.4,0.1-0.9,0.1-1.6v-4.3c0-0.7,0-1.2-0.1-1.6c0-0.4-0.2-0.7-0.4-1c-0.2-0.3-0.5-0.4-1-0.4
			c-0.5,0-0.8,0.1-1,0.4c-0.2,0.3-0.3,0.6-0.4,1s-0.1,0.9-0.1,1.6v4.3c0,0.7,0,1.2,0.1,1.6c0,0.4,0.2,0.7,0.4,1s0.5,0.4,1,0.4
			C178.9,102.1,179.3,102,179.5,101.7z"/>
		<path class="st1" d="M186.7,102.7c-0.5-0.9-0.8-2.3-0.8-4.2v-2.6c0-1.8,0.2-3.2,0.7-4.3c0.5-1,1.4-1.6,2.6-1.6
			c0.8,0,1.6,0.4,2.3,1.1v-6.3h2.5v19h-2.5v-0.9c-0.7,0.7-1.4,1.1-2.2,1.1C188,104,187.2,103.6,186.7,102.7z M191.4,101.5v-8.9
			c-0.6-0.4-1.1-0.6-1.6-0.6c-1,0-1.5,0.9-1.5,2.8v3.8c0,1.1,0.1,1.9,0.3,2.5s0.6,0.8,1.2,0.8C190.4,102,190.9,101.8,191.4,101.5z"
			/>
		<path class="st1" d="M198.2,103.2c-0.3-0.5-0.5-1.2-0.5-2v-11h2.5v10.2c0,0.5,0.1,0.9,0.2,1.2c0.2,0.3,0.4,0.4,0.8,0.4
			c0.5,0,1.1-0.3,1.8-0.8V90.2h2.5v13.6h-2.5v-1.3c-1.1,1-2.2,1.5-3.3,1.5C199.1,104,198.5,103.7,198.2,103.2z"/>
		<path class="st1" d="M210.8,103.3c-0.6-0.4-1-1-1.2-1.8c-0.2-0.8-0.3-1.8-0.3-2.9v-3.1c0-1.2,0.1-2.2,0.3-3
			c0.2-0.8,0.6-1.4,1.2-1.8c0.6-0.4,1.4-0.6,2.5-0.6c1,0,1.7,0.2,2.3,0.5c0.5,0.3,0.9,0.8,1.1,1.4c0.2,0.6,0.3,1.4,0.3,2.4v0.8h-2.3
			v-0.8c0-0.9-0.1-1.5-0.3-1.9c-0.2-0.4-0.6-0.5-1.1-0.5c-0.4,0-0.7,0.1-0.9,0.3c-0.2,0.2-0.3,0.5-0.4,0.9c-0.1,0.4-0.1,1-0.1,1.9
			v4.3c0,0.8,0,1.4,0.1,1.8s0.2,0.7,0.5,0.9c0.2,0.2,0.5,0.2,0.9,0.2c0.6,0,1-0.2,1.1-0.6c0.2-0.4,0.3-1,0.3-1.8v-1.1h2.3v0.9
			c0,1.5-0.3,2.6-0.8,3.3c-0.5,0.7-1.5,1.1-2.9,1.1C212.2,104,211.4,103.8,210.8,103.3z"/>
		<path class="st1" d="M222,103.2c-0.5-0.5-0.7-1.4-0.7-2.4v-8.9h-1.4v-1.7h1.4v-4h2.5v4h2.2v1.7h-2.2v8.7c0,0.5,0.1,0.9,0.3,1.2
			c0.2,0.2,0.5,0.3,1,0.3c0.3,0,0.6,0,0.9-0.1v1.9c-0.6,0.1-1.2,0.1-1.7,0.1C223.2,104,222.4,103.7,222,103.2z"/>
		<path class="st1" d="M229.3,85.6h2.5v2.6h-2.5V85.6z M229.3,90.2h2.5v13.6h-2.5V90.2z"/>
		<path class="st1" d="M236.6,102.7c-0.6-0.9-0.9-2.1-0.9-3.7V95c0-1.6,0.3-2.9,0.9-3.7c0.6-0.9,1.6-1.3,3.1-1.3
			c1.4,0,2.4,0.4,3,1.3c0.6,0.9,0.9,2.1,0.9,3.7V99c0,1.6-0.3,2.9-0.9,3.7c-0.6,0.9-1.6,1.3-3,1.3
			C238.2,104,237.2,103.6,236.6,102.7z M240.6,101.7c0.2-0.3,0.3-0.6,0.4-1c0-0.4,0.1-0.9,0.1-1.6v-4.3c0-0.7,0-1.2-0.1-1.6
			c0-0.4-0.2-0.7-0.4-1c-0.2-0.3-0.5-0.4-1-0.4c-0.5,0-0.8,0.1-1,0.4c-0.2,0.3-0.3,0.6-0.4,1s-0.1,0.9-0.1,1.6v4.3
			c0,0.7,0,1.2,0.1,1.6c0,0.4,0.2,0.7,0.4,1s0.5,0.4,1,0.4C240.1,102.1,240.4,102,240.6,101.7z"/>
		<path class="st1" d="M247.2,90.2h2.5v1.3c1.1-1,2.2-1.5,3.3-1.5c0.7,0,1.3,0.3,1.6,0.8c0.3,0.5,0.5,1.2,0.5,2v11h-2.5V93.5
			c0-0.5-0.1-0.9-0.2-1.2c-0.2-0.3-0.4-0.4-0.8-0.4c-0.5,0-1.1,0.3-1.8,0.8v10.9h-2.5V90.2z"/>
	</g>
	<g>
		<g>
			<path class="st0" d="M49.8,66.3c-3-4-4.5-9.7-4.5-17.1V24.4c0-7.6,1.5-13.4,4.5-17.3c3-3.9,8.1-5.9,15.3-5.9
				c6.8,0,11.6,1.7,14.5,5.1c2.9,3.4,4.3,8.4,4.3,14.8V27H71.7v-6c0-2.5-0.1-4.4-0.3-5.8c-0.2-1.4-0.8-2.5-1.8-3.4
				c-0.9-0.9-2.4-1.3-4.4-1.3c-2.1,0-3.6,0.5-4.6,1.4c-1,0.9-1.7,2.2-2,3.8c-0.3,1.6-0.5,3.6-0.5,6.1v30.1c0,3.9,0.5,6.8,1.5,8.5
				c1,1.7,2.9,2.6,5.6,2.6c1.9,0,3.4-0.5,4.3-1.4c0.9-0.9,1.5-2.1,1.8-3.6c0.3-1.5,0.4-3.5,0.4-6v-6.3h12.2v5.6
				c0,6.7-1.4,11.9-4.2,15.6c-2.8,3.7-7.7,5.5-14.6,5.5C57.9,72.3,52.8,70.3,49.8,66.3z"/>
			<path class="st1" d="M65.1,73.5c-7.6,0-13-2.2-16.2-6.5h0c-3.1-4.2-4.7-10.2-4.7-17.8V24.4c0-7.8,1.6-13.9,4.7-18
				C52,2.1,57.5,0,65.1,0c7.1,0,12.3,1.9,15.4,5.6c3,3.6,4.6,8.9,4.6,15.6v7H70.5V21c0-2.4-0.1-4.3-0.3-5.6c-0.2-1.1-0.6-2-1.4-2.8
				c-0.7-0.7-1.9-1-3.6-1c-1.7,0-3,0.4-3.8,1.1c-0.8,0.8-1.4,1.8-1.7,3.1c-0.3,1.5-0.4,3.5-0.4,5.9v30.1c0,3.7,0.5,6.4,1.4,7.9
				c0.8,1.4,2.3,2,4.5,2c1.6,0,2.8-0.3,3.5-1c0.8-0.7,1.2-1.7,1.5-3c0.2-1.4,0.4-3.4,0.4-5.8v-7.4h14.5v6.8c0,6.9-1.5,12.4-4.4,16.3
				C77.6,71.5,72.4,73.5,65.1,73.5z M65.1,2.4c-6.8,0-11.7,1.8-14.4,5.4c-2.8,3.7-4.2,9.3-4.2,16.6v24.8c0,7.1,1.4,12.6,4.3,16.4h0
				c2.7,3.7,7.6,5.6,14.3,5.6c6.5,0,11.1-1.7,13.6-5.1c2.6-3.5,4-8.4,4-14.8v-4.4h-9.8v5.1c0,2.6-0.1,4.7-0.4,6.2
				c-0.3,1.8-1,3.2-2.1,4.3c-1.2,1.1-2.9,1.7-5.2,1.7c-3.1,0-5.3-1.1-6.6-3.2c-1.1-1.9-1.7-4.9-1.7-9.1V21.8c0-2.6,0.2-4.7,0.5-6.4
				c0.4-1.8,1.2-3.3,2.4-4.4c1.2-1.1,3.1-1.7,5.4-1.7c2.3,0,4.1,0.6,5.2,1.7c1.1,1.1,1.8,2.4,2.1,4.1c0.2,1.5,0.4,3.5,0.4,6v4.8h9.8
				v-4.6c0-6.1-1.3-10.9-4-14.1C76.1,4,71.5,2.4,65.1,2.4z"/>
		</g>
		<g>
			<path class="st0" d="M95.7,66.5c-3.1-3.9-4.6-9.5-4.6-16.9V23.6c0-7.4,1.5-12.9,4.6-16.7c3.1-3.8,8.2-5.7,15.4-5.7
				c7.1,0,12.3,1.9,15.3,5.7c3.1,3.8,4.6,9.3,4.6,16.7v26.1c0,7.4-1.6,13-4.7,16.9c-3.1,3.9-8.2,5.8-15.3,5.8
				C103.9,72.3,98.8,70.4,95.7,66.5z M116.8,60.3c1-1.8,1.5-4.3,1.5-7.7v-32c0-3.4-0.5-5.9-1.4-7.6c-0.9-1.7-2.8-2.6-5.7-2.6
				c-2.9,0-4.8,0.9-5.7,2.6c-1,1.7-1.5,4.3-1.5,7.6v32c0,3.4,0.5,5.9,1.5,7.7c1,1.8,2.9,2.7,5.7,2.7C113.9,63,115.8,62.1,116.8,60.3
				z"/>
			<path class="st1" d="M111.1,73.5c-7.5,0-13-2.1-16.4-6.2c-3.2-4.1-4.9-10-4.9-17.7V23.6c0-7.6,1.6-13.5,4.9-17.5
				c3.3-4,8.8-6.1,16.3-6.1c7.5,0,13,2,16.3,6.1c3.2,4,4.9,9.8,4.9,17.5v26.1c0,7.6-1.7,13.5-4.9,17.6
				C124,71.4,118.5,73.5,111.1,73.5z M111.1,2.4c-6.8,0-11.7,1.8-14.5,5.2c-2.9,3.5-4.4,8.9-4.4,16v26.1c0,7.1,1.5,12.6,4.4,16.2
				l0,0c2.8,3.5,7.7,5.3,14.5,5.3c6.7,0,11.5-1.8,14.4-5.4c2.9-3.7,4.4-9.1,4.4-16.1V23.6c0-7.1-1.5-12.4-4.4-16
				C122.7,4.1,117.9,2.4,111.1,2.4z M111.1,64.2c-3.3,0-5.6-1.1-6.8-3.3c-1.1-2-1.6-4.7-1.6-8.3v-32c0-3.6,0.5-6.2,1.6-8.2
				c1.2-2.1,3.5-3.2,6.8-3.2c3.3,0,5.6,1.1,6.7,3.2c1.1,1.9,1.6,4.6,1.6,8.2v32c0,3.6-0.5,6.3-1.6,8.3l0,0
				C116.6,63.1,114.4,64.2,111.1,64.2z M111.1,11.6c-2.4,0-4,0.7-4.7,2c-0.9,1.6-1.3,3.9-1.3,7v32c0,3.2,0.4,5.6,1.3,7.1
				c0.8,1.4,2.3,2,4.7,2c2.4,0,3.9-0.7,4.6-2c0.9-1.6,1.3-4,1.3-7.1v-32c0-3.2-0.4-5.5-1.3-7.1C115.1,12.3,113.5,11.6,111.1,11.6z"
				/>
		</g>
		<g>
			<path class="st0" d="M138.2,2h28.5v8.7h-15.9v20.2h13v8.8h-13v31.6h-12.6V2z"/>
			<path class="st1" d="M152,72.6h-15V0.8h30.9v11.1H152v17.9h13v11.2h-13V72.6z M139.4,70.2h10.2V38.6h13v-6.5h-13V9.5h15.9V3.1
				h-26.2V70.2z"/>
		</g>
		<g>
			<path class="st0" d="M173.6,2h28.5v8.7h-15.9v20.2h13v8.8h-13v31.6h-12.6V2z"/>
			<path class="st1" d="M187.4,72.6h-15V0.8h30.9v11.1h-15.9v17.9h13v11.2h-13V72.6z M174.8,70.2H185V38.6h13v-6.5h-13V9.5h15.9V3.1
				h-26.2V70.2z"/>
		</g>
		<g>
			<path class="st0" d="M209,2h29.1v8.9h-16.5v20h13v8.8h-13v23.1h16.7v8.7H209V2z"/>
			<path class="st1" d="M239.5,72.6h-31.7V0.8h31.5v11.3h-16.5v17.6h13v11.2h-13v20.7h16.7V72.6z M210.2,70.2h26.9v-6.3h-16.7V38.5
				h13V32h-13V9.7h16.5V3.1h-26.8V70.2z"/>
		</g>
		<g>
			<path class="st0" d="M245.2,2h29.1v8.9h-16.5v20h13v8.8h-13v23.1h16.7v8.7h-29.3V2z"/>
			<path class="st1" d="M275.7,72.6H244V0.8h31.5v11.3H259v17.6h13v11.2h-13v20.7h16.7V72.6z M246.4,70.2h26.9v-6.3h-16.7V38.5h13
				V32h-13V9.7h16.5V3.1h-26.8V70.2z"/>
		</g>
	</g>
</g>
</svg>
