<?xml version="1.0" encoding="utf-8"?>
<!-- Generator: Adobe Illustrator 22.0.1, SVG Export Plug-In . SVG Version: 6.00 Build 0)  -->
<svg version="1.1" id="Layer_1" xmlns="http://www.w3.org/2000/svg" xmlns:xlink="http://www.w3.org/1999/xlink" x="0px" y="0px"
	 viewBox="0 0 56 76" style="enable-background:new 0 0 56 76;" xml:space="preserve">
<style type="text/css">
	.st0{fill:#EC474A;}
	.st1{fill:#CE4148;}
	.st2{fill:#A26243;}
	.st3{fill:#C38E3D;stroke:#7C3416;stroke-width:5;stroke-miterlimit:10;}
	.st4{fill:#DBB55B;}
</style>
<g>
	<polygon class="st0" points="38.3,18.5 16.4,76 11,66 11,66 0,69.8 21.9,12.3 30.4,15.5 	"/>
	<polygon class="st1" points="38.3,18.5 16.4,76 11,66 30.4,15.5 	"/>
	<polygon class="st0" points="56,69.8 45.2,66 39.6,76 17.9,18.5 26.8,15.1 26.9,15.1 34.3,12.3 34.3,12.4 	"/>
	<polygon class="st1" points="56,69.8 45.2,66 26.8,15.1 26.9,15.1 34.3,12.4 	"/>
	<g>
		<polygon class="st2" points="28.1,2.3 31.7,0 34.5,3.2 38.5,2 40.3,5.8 44.5,5.9 45.2,10 49.2,11.3 48.6,15.4 52.2,17.8 
			50.4,21.6 53.2,24.8 50.4,28 52.2,31.9 48.6,34.2 49.2,38.4 45.2,39.6 44.5,43.8 40.3,43.8 38.5,47.6 34.5,46.5 31.7,49.6 
			28.1,47.4 24.5,49.6 21.7,46.5 17.7,47.6 15.9,43.8 11.7,43.8 11,39.6 7,38.4 7.6,34.2 4,31.9 5.8,28 3,24.8 5.8,21.6 4,17.8 
			7.6,15.4 7,11.3 11,10 11.7,5.9 15.9,5.8 17.7,2 21.7,3.2 24.5,0 		"/>
		<circle class="st3" cx="28.1" cy="24.8" r="17.3"/>
		<g>
			<path class="st4" d="M26.1,18.1c-0.2,0.1-0.7,0.3-1.5,0.7c-0.1,0.1-0.4,0.1-0.6,0.3c-0.3,0.1-0.5,0.2-0.7,0.3l0-3.2
				c2.1-1.1,3.3-1.8,3.8-2.3l3.4,0l0,20.8h-4.3L26.1,18.1z"/>
		</g>
	</g>
</g>
</svg>
