<?xml version="1.0" encoding="utf-8"?>
<!-- Generator: Adobe Illustrator 22.0.1, SVG Export Plug-In . SVG Version: 6.00 Build 0)  -->
<svg version="1.1" id="Layer_1" xmlns="http://www.w3.org/2000/svg" xmlns:xlink="http://www.w3.org/1999/xlink" x="0px" y="0px"
	 viewBox="0 0 152.7 115.2" style="enable-background:new 0 0 152.7 115.2;" xml:space="preserve">
<style type="text/css">
	.st0{fill:#7C3416;}
	.st1{fill:#5E2815;}
	.st2{fill:#E2D1B2;}
	.st3{fill:#CDB892;}
	.st4{fill:#E8D6B9;}
	.st5{fill:#2B231B;}
</style>
<g>
	<path class="st0" d="M78.9,62.4c4.2,13,5.2,25.9,2.9,38.4c-0.8,4.1-1.8,7.5-2.7,10c-0.4,1.2-1.4,2-2.5,1.9
		C58.3,110.4,43.8,86,43.8,56.2C43.8,29.3,55.6,6.8,71.4,1c1.6-0.6,3.1,1.2,2.8,3.2c-0.3,1.6-0.5,3.4-0.7,5.2
		C72.2,21.9,72,41.2,78.9,62.4z"/>
	<path class="st1" d="M115.1,56.2c0,26.7-11.6,49-27.2,55c-1.2,0.5-2.3-1-1.9-2.4c2.9-10.5,5.1-27.9-1.8-49.2
		c-6.3-19.6-6.2-37.4-5-48.8c0.3-2.8,0.7-5.4,1.1-7.7c0.4-2,1.9-3.4,3.5-3C101.5,3.5,115.1,27.3,115.1,56.2z"/>
</g>
<g>
	<polygon class="st2" points="152.7,115.2 124.7,115.2 124.7,87.3 152.7,87.3 146.1,101.3 	"/>
	<polygon class="st3" points="134.8,78.3 124.7,87.3 124.7,115.2 134.8,106.3 	"/>
	<polygon class="st2" points="0,115.2 27.9,115.2 27.9,87.3 0,87.3 6.5,101.3 	"/>
	<polygon class="st3" points="17.9,78.3 27.9,87.3 27.9,115.2 17.9,106.3 	"/>
	<rect x="17.9" y="78.3" class="st4" width="116.8" height="27.9"/>
</g>
<g>
	<path class="st5" d="M28.2,83h2.2l2.8,13.1L36.2,83h2.2l0.3,16.1h-1.8l-0.2-11.7l-2.7,11.7h-1.3L30,87.5l-0.2,11.7H28L28.2,83z"/>
	<path class="st5" d="M42,98.8c-0.5-0.3-0.8-0.8-1-1.5c-0.2-0.7-0.3-1.5-0.3-2.6v-2.6c0-1.6,0.2-2.8,0.7-3.5
		c0.5-0.7,1.4-1.1,2.7-1.1c0.9,0,1.6,0.2,2.1,0.6s0.8,0.9,0.9,1.6c0.2,0.7,0.2,1.6,0.2,2.8v0.9h-4.5V95c0,0.7,0,1.2,0,1.5
		c0,0.3,0.1,0.6,0.3,0.9c0.2,0.2,0.5,0.3,0.9,0.3c0.5,0,0.8-0.2,0.9-0.5c0.2-0.3,0.2-0.8,0.2-1.4v-0.7h2.1v0.4
		c0,1.2-0.3,2.1-0.8,2.8c-0.5,0.6-1.3,1-2.5,1C43.2,99.3,42.5,99.1,42,98.8z M45.3,92.3v-1c0-0.8-0.1-1.3-0.2-1.7
		c-0.2-0.3-0.5-0.5-1-0.5c-0.3,0-0.6,0.1-0.8,0.2c-0.2,0.2-0.3,0.4-0.4,0.8c-0.1,0.4-0.1,0.9-0.1,1.6v0.6H45.3z"/>
	<path class="st5" d="M49.8,98.2c-0.5-0.7-0.7-1.9-0.7-3.6v-2.2c0-1.5,0.2-2.7,0.6-3.6s1.1-1.3,2.2-1.3c0.7,0,1.3,0.3,1.9,0.9V83
		h2.1v16.1h-2.1v-0.7c-0.6,0.6-1.2,0.9-1.9,0.9C50.9,99.3,50.2,98.9,49.8,98.2z M53.8,97.2v-7.5c-0.5-0.3-0.9-0.5-1.4-0.5
		c-0.8,0-1.3,0.8-1.3,2.4v3.2c0,0.9,0.1,1.6,0.3,2.1c0.2,0.5,0.5,0.7,1,0.7C52.9,97.6,53.4,97.5,53.8,97.2z"/>
	<path class="st5" d="M58.2,83.7h2.1v2.2h-2.1V83.7z M58.2,87.7h2.1v11.5h-2.1V87.7z"/>
	<path class="st5" d="M63,98.6c-0.3-0.4-0.4-1-0.4-1.7v-9.3h2.1v8.7c0,0.4,0.1,0.8,0.2,1s0.4,0.3,0.7,0.3c0.4,0,0.9-0.2,1.5-0.7
		v-9.3h2.1v11.5h-2.1V98c-0.9,0.9-1.8,1.3-2.8,1.3C63.7,99.3,63.2,99.1,63,98.6z"/>
	<path class="st5" d="M71.4,87.7h2v1.1c0.4-0.4,0.8-0.7,1.3-1c0.5-0.2,0.9-0.3,1.4-0.3c1,0,1.6,0.5,1.9,1.5c0.8-1,1.7-1.5,2.9-1.5
		c0.6,0,1.1,0.2,1.5,0.7c0.4,0.4,0.6,1.1,0.6,2v9h-1.9v-8.9c0-0.5-0.1-0.9-0.2-1.1s-0.4-0.3-0.7-0.3s-0.6,0.1-0.9,0.2
		c-0.3,0.2-0.6,0.4-0.9,0.7v0.3v9h-1.9v-8.9c0-0.5-0.1-0.9-0.2-1.1c-0.2-0.2-0.4-0.3-0.7-0.3s-0.6,0.1-0.9,0.2
		c-0.3,0.2-0.6,0.4-0.9,0.7v9.4h-2V87.7z"/>
	<path class="st5" d="M89.5,87.7h2.1v1.6c0.4-0.6,0.8-1.1,1.2-1.4c0.4-0.3,0.9-0.4,1.3-0.4c0.1,0,0.2,0,0.3,0v2.3
		c-0.4-0.2-0.8-0.2-1.2-0.2c-0.3,0-0.7,0.1-0.9,0.2c-0.3,0.2-0.5,0.5-0.8,0.9v8.4h-2.1V87.7z"/>
	<path class="st5" d="M96.4,98.2c-0.5-0.7-0.8-1.8-0.8-3.2v-3.3c0-1.4,0.3-2.4,0.8-3.2c0.5-0.7,1.4-1.1,2.6-1.1
		c1.2,0,2.1,0.4,2.6,1.1c0.5,0.7,0.8,1.8,0.8,3.2v3.3c0,1.4-0.3,2.4-0.8,3.2c-0.5,0.7-1.4,1.1-2.6,1.1
		C97.7,99.3,96.9,98.9,96.4,98.2z M99.8,97.4c0.2-0.2,0.3-0.5,0.3-0.8c0-0.3,0.1-0.8,0.1-1.4v-3.6c0-0.6,0-1-0.1-1.4
		c0-0.3-0.1-0.6-0.3-0.8c-0.2-0.2-0.5-0.3-0.8-0.3c-0.4,0-0.7,0.1-0.8,0.3s-0.3,0.5-0.3,0.8s-0.1,0.8-0.1,1.4v3.6c0,0.6,0,1,0.1,1.4
		c0,0.3,0.1,0.6,0.3,0.8c0.2,0.2,0.5,0.3,0.8,0.3C99.4,97.7,99.6,97.6,99.8,97.4z"/>
	<path class="st5" d="M105.1,98.9c-0.4-0.3-0.6-0.6-0.8-1c-0.2-0.4-0.3-0.8-0.3-1.3c0-0.9,0.2-1.6,0.6-2.2s0.9-1,1.5-1.3
		s1.4-0.7,2.5-1.1v-0.8c0-0.8-0.1-1.3-0.2-1.6c-0.2-0.3-0.5-0.5-0.9-0.5c-0.8,0-1.2,0.5-1.2,1.6v0.6l-2.1-0.1l0-0.4
		c0.1-1.2,0.4-2,1-2.5c0.6-0.5,1.4-0.8,2.5-0.8c1.1,0,1.9,0.3,2.4,0.9s0.7,1.5,0.7,2.7v5.2c0,0.9,0.1,1.8,0.2,2.8h-1.9
		c-0.1-0.8-0.2-1.3-0.3-1.7c-0.2,0.5-0.4,1-0.8,1.3c-0.4,0.4-0.9,0.5-1.5,0.5C105.9,99.3,105.5,99.2,105.1,98.9z M108,97.1
		c0.3-0.2,0.5-0.4,0.6-0.6v-3.3c-0.6,0.3-1,0.6-1.3,0.8c-0.3,0.2-0.5,0.4-0.8,0.8c-0.2,0.3-0.3,0.7-0.3,1.1c0,0.5,0.1,0.8,0.3,1.1
		c0.2,0.3,0.4,0.4,0.8,0.4C107.4,97.5,107.7,97.4,108,97.1z"/>
	<path class="st5" d="M113.1,98.4c-0.6-0.6-0.9-1.4-1-2.3l1.8-0.5c0.1,0.7,0.3,1.3,0.5,1.6c0.2,0.4,0.6,0.5,1,0.5
		c0.4,0,0.7-0.1,0.9-0.3s0.4-0.5,0.4-0.9c0-0.6-0.3-1.2-0.9-1.7l-2-1.7c-0.5-0.4-0.8-0.8-1-1.2c-0.2-0.4-0.4-0.9-0.4-1.5
		c0-0.9,0.3-1.6,0.8-2.1s1.3-0.8,2.2-0.8c0.9,0,1.6,0.3,2.1,0.8c0.5,0.6,0.8,1.3,0.9,2.2l-1.4,0.5c-0.1-0.7-0.2-1.1-0.5-1.5
		s-0.5-0.5-1-0.5c-0.3,0-0.6,0.1-0.8,0.3s-0.3,0.5-0.3,0.8c0,0.4,0.2,0.8,0.6,1.2l2,1.9c0.5,0.5,0.9,0.9,1.2,1.4
		c0.3,0.5,0.4,1,0.4,1.7c0,1-0.3,1.7-0.9,2.2c-0.6,0.5-1.3,0.8-2.3,0.8C114.5,99.3,113.7,99,113.1,98.4z"/>
	<path class="st5" d="M121.3,98.6c-0.4-0.5-0.6-1.1-0.6-2.1v-7.5h-1.2v-1.4h1.2v-3.4h2.1v3.4h1.8v1.4h-1.8v7.4c0,0.5,0.1,0.8,0.2,1
		s0.4,0.3,0.8,0.3c0.3,0,0.5,0,0.8-0.1v1.6c-0.5,0.1-1,0.1-1.5,0.1C122.3,99.3,121.7,99.1,121.3,98.6z"/>
</g>
</svg>
