<?xml version="1.0" encoding="utf-8"?>
<!-- Generator: Adobe Illustrator 22.0.1, SVG Export Plug-In . SVG Version: 6.00 Build 0)  -->
<svg version="1.1" id="Layer_1" xmlns="http://www.w3.org/2000/svg" xmlns:xlink="http://www.w3.org/1999/xlink" x="0px" y="0px"
	 viewBox="0 0 176.3 155.3" style="enable-background:new 0 0 176.3 155.3;" xml:space="preserve">
<style type="text/css">
	.st0{fill:#2B231B;}
</style>
<g id="NO_2_">
	<path class="st0" d="M103.4,0l1.3,0.6h0.5l0.7,1.1l0.3-0.1l-0.1,0.7l-0.7,0.3l-1,0.2l-0.2,0.1l-0.9-0.1l-0.5-0.9L102,1.7V1.4
		l0.5-0.7L103.4,0L103.4,0z M129.6,20.2l0.3,1.9v0.7l-0.1,0.6l-0.2,0.3l-0.4,0.1l-0.9-0.1l-1.2-0.7l-0.8-0.7h-0.2l-0.1,0.1l0.2,0.7
		v0.5l-0.1,0.6l-0.2,0.5l-0.2,0.4l-0.5,0.6l-0.8,0.5l-2.2,0.9l-0.2,0.4l-0.7,2.4l-0.2,0.4l-0.3,0.3L120,31l-0.4-0.5l-0.3-0.8
		l0.1-0.8l0.9-1.6l0.8-1.1l0.2-0.4l0.5-1.1l-1-2.8l-1.7-0.9l-1.9-1.3l-0.7-0.7l-1.1-1.5l-0.8-1.3h-0.7l-0.8,0.3l-1.2,1.2l-0.7,0.6
		l-0.4,0.2h-0.1l-0.9-0.3l-1-0.1l-0.8,0.1l-0.3,0.2l-1.1,1.9l-0.8,1l-0.4,0.3l-0.3,0.6l-0.2,0.9l-0.6,3.1l-0.4,1.2l-0.1,0.7l0.1,2.2
		l-0.1,1.2l-0.5,1l-0.4,0.4l-0.5,0.1l-0.6,0.2l-0.5,0.6l-0.4,0.8l-0.4,1.7l-0.7,0.6l-0.7-0.2L99,36l-1.1-0.5l-0.8-0.3l-0.9-0.7
		L95.5,34l-0.7-0.1l-0.4,0.7L94,35.2l-1.2,0.5l-0.7,0.4l-0.9,0.1l-0.4-0.4l-1.3-0.3L88,35.1h-0.4l-0.1-0.8L87,33.2l-1.1-1.9
		l-0.4-0.7L84.7,29l-1-1.6h-0.1l-0.7-0.1l-1,0.1l-0.6,0.4l-0.4,0.5l-0.1,0.4l0.4,1.5l-0.1,0.4l-0.2,0.2L80,30.3h-1.1l-0.3,0.5H78
		L76.2,31l0.8,1.2l0.3,0.5l0.1,0.7l-0.1,1.3l-0.4,1.1l-0.5,0.9l-0.9,0.9l1.3,0.9l-0.9,1.2L75.4,40h-0.5L74,39.6l-2.1-1l-1-0.4
		L70,38.1h-0.5l-1.9-0.8l-0.4,0.1l-0.7,0.4l-0.1,0.8v2l0.1,1.6L66.3,43L66,43.6l-0.8,1.6l-1.8-1.1l-1.2-0.7l-0.8,1l-1.9,1.8l-1,3.5
		l-0.1,0.1L58,50.7l-0.7,0.4l-0.6,0.2l-0.3,1l0.8,1.5l0.4,0.8l0.4,1.2l-0.1,0.8l-0.1,0.5l-0.8,1l-1.8,2.6l-1.6,2.7l-0.7,0.8l0.3,2.3
		l-0.5,0.7L51.6,68L51,68.3l-0.6,0.2l-1.9,0.3l0.3,2.4l0.1,1.1v0.6l-0.2,0.6l-0.2,1.2l-0.3,4.1l-0.3,0.4l-0.4,1.1l-1.2,2.6l-0.9,1.7
		L44,87.1l1.1,0.8l1,0.6l0.2,0.9l0.1,1.5v1L46,92.8l-0.3,0.6l-0.2,0.3l-1.4-0.3L42.3,93h-0.5l-1.1,0.3l-1,0.6l-0.5,0.5l-0.1,0.2
		l-0.6,1.1l-1.1,1.9l-0.6,0.8l0.2,1.2l-1.1,2.2l0.7,2.2v0.1L37,105l-0.4,0.6l-0.2,0.3l0.1,1l0.1,1.1l-0.1,0.7v0.7l0.9,3.3v0.8v0.5
		l-0.3,2l-0.4,2.7l0.7,0.7l1,0.8l0.5,0.3l0.8,1l0.6,1l-0.1,0.6l-0.2,0.7l-0.3,0.5l-0.2,0.7l-0.1,0.5l-0.1,0.1l-1.1,0.1l-0.6,0.2
		l-0.3,0.2l0.1,1.1l0.7,2.1l0.5,1.5l0.2,1l-0.2,1l-0.2,0.5v0.7l-0.1,1.3l-0.4,0.7l-0.5,0.7l-0.6,0.5l-0.5,0.2l-0.4,0.1l-0.3,0.3
		l-0.3,0.8l-0.2,0.8l-0.8,1v0.4l0.3,1.2l0.3,1.4l-0.2,1.3l-0.2,1.3l-0.3,0.9l-0.5,0.3l-0.4-0.2l-0.4-1.2v-0.3l-0.1-0.4l-1.2-0.4
		h-0.2l-0.5-0.2l-0.3-0.1l-0.5-0.1l-0.5-1.1l-0.5-0.9l-0.1-0.4v-1.7l-0.1-0.8v-0.8l-0.3,0.7l0.2,1.1l-0.4,0.4l-0.5,0.2v0.6l0.2,0.1
		v0.6l-0.1,1l-0.9,2.1l-0.2,0.2l-0.1,0.3l-0.5-0.2l-0.6,0.6l-0.6,0.1l-0.2-0.7l-0.8-0.9h-0.4l0.3,0.4l0.3,0.6l-0.2,0.4l-0.2,0.2
		l-0.3,0.1l-1.2,0.7l0.4,0.5l-0.4,0.6l-0.4,0.1l-0.2,0.3l-0.1,0.4l-1.2,1l-2,2.6l-1,0.7l-0.7,0.7h-0.6l-0.8,0.6l-2,0.6l-1.4-0.2
		l-0.9,0.2l-0.5-0.4l-0.1-0.3v-0.2l0.1-0.2l-0.2-0.1H10l-0.2,0.2v0.5l-0.2,0.1l-0.7-0.3l-0.2-0.2l0.3-0.5l0.4-0.4l-0.1-0.1l0-0.4
		H9.1H8.4l-0.5-0.1l-1.7-1l-0.4-0.5l-1.3-0.9l-0.6-0.9l-0.3-1v-0.9l0.2-1.5l0.3-0.4l1.2,0.5l1.2,0.9h0.2l0.4-0.7l0.7-0.5l-0.2-0.1
		l-1.1,0.6L6.1,146l-0.6-0.7V145l0.3-0.4l0.1-0.5l-0.2-0.5l0.1-0.6l0.5-0.7l0.7-0.7l0.5-0.7l0.5-0.4v0l-0.6,0.3l-0.6,0.4l-0.7,0.7
		l-0.9,0.6l-0.6,0.2l-0.3,0.2l-0.5,0.2L3.3,144l-0.5,0.4H1.9l-0.2-0.6l0.3-2.2l0.3-1.1l0.3-0.8l0.5-0.1l0.3-0.6h0.3l0.2,0.3l1,0.3
		l0.5-0.7l0.6-0.1l1.1-0.7V138l-0.8,0H5.8l-0.7,0.2L4.8,138l-0.2-0.5l0.3-0.5l1.1-1.2l0.4-0.5l0.2-0.5v-0.3l0.2-0.7l1-1.2l0.8-0.5
		l0.3,0.5L8.6,134v0.6l0.7-2.1l0.3-0.5l0.3-0.4l0.8-0.2l0.2-0.3l-0.9,0.1L7.7,132l-1,0.7l-0.3,0.6l-0.7,0.8l-0.3,0.5l-0.1,0.8
		L5,135.9L4.5,136l-0.7,1l-0.3,0.8l-0.7,0.6L2.3,139l-0.1,0.2L2,139.7H1.8l-0.2-0.3v-0.6l0.1-1l0.3-0.7l0.2-0.7L2,135.7l0.2-0.4h0.3
		l0.6,0.2h0.6l1-0.5l-0.2-0.3H4.1H3.3l-0.7-0.5l-0.5-1l-0.2-1.4l0.2-0.4L4,130l0.5-0.6l-0.3-0.1l-1,0.7l-1,0.5l-0.6-0.7L1.2,129
		L1,127.5l0.1-0.8l-0.1-1l0.4-0.3l0.5,0.2l0.5,0.1l1.1-0.1l2.4-0.6l1.5,0.4H8l1-0.5l0.8-0.1l0.6,0.4l0.3,0.5v0.6l0.3,0.4l0.2-0.1
		l-0.2-0.5v-0.8l2.5-0.9l0.3-0.3l-1-0.1l-0.3-0.8L13,122v-0.2l-0.6,0.7l-0.3,0.9l0.1,0.7l-0.1,0.3l-0.5,0.2l-1.1,0.1l-0.7-0.3
		l-0.7-0.2L9,123.7l0.1-0.5L9,123.1l-0.3,0.5l-0.3,0.9l-0.5,0.2l-1.5-0.3l-2.2,0.2l-1,0.5L2.6,125l-1.1-0.8l-0.4-0.7L1,122.2
		l0.1-0.6l0.8-0.2h0.4l0.4-0.3l-0.4-0.2l-0.5-0.4l-0.3-0.8L1,119.4l-0.3-0.7l-0.1-1l0.1-0.7l0.3-0.2l0.7,0.2l1.7-0.1l1.6,0.7
		l1.1,0.4l2.2-0.2l1.3-0.7l-0.2-0.2L8,117.3H6.7l-2.3-0.7l-1-0.2l-1,0.1l-0.5-0.2l-0.3-0.7l0.2-1.4l0.5-0.3l0.3,0.4h0.3l0.3-0.6
		l0.3-0.3l0.2-0.8l0.9-0.7l0.4-0.1l0.6-0.3l0.4,0.1l0.2,0.3l0.3,0.3h0.6l1.8-0.6l0.2-0.2l0.4-0.5l-1.2,0.2l-1,0.3l-0.6,0.1l-0.1-0.4
		l0.2-0.4l0.4-0.4l0.2-0.7l0.4-0.3h0.4L9,109l0.6-0.2l1.1,0.1l1.6,0.3l1,0.6l0.4-0.1l0.4-0.2l0.2-0.2l-0.8-0.3v-0.4l0.1-0.3l1.3-0.5
		l1.4-0.1l-0.2-0.4L13,108l-0.8-0.4h-0.7l-0.4,0.3l-1.2,0.3L9.7,108l0.2-0.7l0.7-1.2l0.1-0.3l0.3-0.3l1.9-0.7l0.9-0.8l0.4-0.1
		l0.4,0.1l0.6-0.1l1.2,0.2l0.6,1l0.5,0.3l1.6,1.3l-0.1-0.4l-1.3-1.8l-0.5-0.4l-0.4-0.9l0.1-0.8l0.4-0.6l1.5-0.3l0.3-0.3v-0.6
		l-0.2-0.4h-0.6l-0.5-0.2l-0.1-0.6l0.2-0.4l0.9-0.7l0.5-0.2l0.8-0.3l1.5,0.6l0.1,0.3l-0.4,0.7v0.4h0.4l0.8-1.2l1-0.2l0.4-0.3
		l0.5-0.2l0.7,1.1l0.3,0.4l0.2,0.1l0.2,0.9H26l0.3-0.5l0.5-0.2l0.8-0.2l1.2,0.2l0.6-0.2h0.3L29.4,99l-0.2-0.2l0.3-0.7l0.3-0.3
		l0.9-0.5l0.8-0.2l0.5-0.5l0.7-0.5l-0.1-0.4l-0.2-0.4h-0.5l-0.2-0.2l0.6-0.6l0.8-0.6L33,93.5l-0.6-0.3l-0.5,0.2l-0.7,0.5l-0.8,0.8
		l0.3,0.2l0.4,0.6l-0.6,0.8l-3,2.2l-1.4,0.7l-0.7-0.1l-0.2-0.6L25,98.1l-0.3-0.9h-0.5l-0.3,0.2l-0.1-0.3l0.2-1l0.5-0.8l0.8-0.6
		l0.4-0.7l0.4-1.1l1.1-1.1l1.6-2.7l1.3-0.9l0.5-1l0.8-0.4L32,86l0.5-0.1l1-0.7l0.5-0.8h-0.4l-0.8,0.5l-0.5,0.2v-0.9l0.2-0.9l0.7-0.8
		l3.3-2.4l0.3,0.4l0.4,0.7l1-0.2l1.1-1.4l0.9-1.5l-0.5,0.3L39.2,79l-1,0.8l-0.5,0.1l-0.3-0.1l-0.1-0.6L36.9,79l-0.3,0.1l-0.3-0.4
		l-0.1-1l0.4-1.5l0.3-1l0.4-0.7l1.4-2.1l0.3-1.2l0.6-0.6l0.8,0.1l0.2-0.2l0.1-0.5l-0.9-0.6L39.7,69l3-1h1.4l0.4-0.5l0.8-0.3l0.6-0.6
		l-0.3-0.3l-1.5,0.6l-0.9,0.3h-0.4l-0.3,0.2l-1.2,0.1L41,65l0.2-1.4h0.4l0.1-1.3l0.5-0.8l0.7-0.2l0.3-0.3l0.5-0.7l0.8,0.2l0.9-0.1
		l-0.2-0.3l-1.1-0.4L44,59l0.4-0.4l0.4-0.3l0.4-0.1l0.7-1.4l0.4-0.6l0.5,0.1l0.7-0.6l0.7,0.2l0.6-0.4l0.9-0.3l3.2-0.1l0.1-0.6
		l-0.7-0.1l-2.4-0.1h-1.2l-0.5,0.1L48,54.2v-0.3l0.4-0.5l0.2-0.6l0.9-1.5l1-1l0.8,0.2l0.8,0.9l0.6,0.1L53,52l0.4,1.3h0.2l-0.1-1.2
		l0.6-1L54,50.8l-0.9,0.4l-0.7-0.4L52,50l-0.1-0.7l0.3-0.7l0.3-0.3l-0.2-0.4L50.9,49L50,49.2L49.6,49l0.2-1l-0.1-0.8l1.2-1.9
		l0.4-0.2l0.7,0.2l0.6,0.5l0.5-0.1l0.6-0.3V45l-1.2-0.2l-0.3-0.4l0.1-0.4l0.8-0.5l0.8-0.8l1-0.2l0.8-0.6l0.2,0.1l0.1,0.2l0.3,2.3
		l0.7,1.9l0.3,0.1L57,44.8l0.2-0.5l0.3-0.3l0.1-0.4l-0.4-0.1L57,42.9L56.6,41l0.1-0.5l0.9-1l1.1-0.2L60,40h0.4l0.7-0.2l1.2-0.6
		L63,39h0.4l0.1-0.3l-0.3-0.2l-0.1-0.2l-0.3-0.1l-1.1,0.3l-3.1-0.1l-0.3-0.3l-0.1-0.6l0.3-0.8l0.4-0.5l1.2-0.8l1.2-0.1l1.3-1.5
		l0.5-1.1l0.3-1.7l0.8-1.4l2-0.8l0.1-0.3L66,28v-1.3l0.5-1.5l0.4-0.5l0.2-0.1l0.4,0.5l0.5,1.1l0.8,0.6l1.1,0.1l0.3-0.3L69.4,26
		l-0.6-0.8v-0.8l0.3-0.4h0.5l0.6-0.1l0.5-0.5l0.1-0.4v-0.5l0.1-0.5l0.8-1.3l2.4-0.8l0.2,0.3l-0.1,2.4l-0.3,1.6v1.1l0.5-1.1l0.6-3.1
		l0.5-1.5l0.5-0.8l0.4-0.2l0.4-0.4l0.5-0.3l0.2,0.3l0.2,0.8l-0.3,2.7v0.9L77,23.7l-1.2,2.5l0.1,0.3l0.3-0.1l0.4-0.4l1.4-2.4l1.3,0.3
		v-0.2L78.9,23l-0.5-0.7l-0.1-0.9l0.1-2.3l0.4-0.9l1.1,0.1l0.7-0.1l0.3,0.4h0.7l0.5-1.6l0.9-0.1l0.8,1.1l0.9,0.7l0.8,1l0.2-0.3
		L85,17l-0.4-0.9l-1-0.5l-1-1.1L82.3,14v-0.4l0.9-0.4l1.2,0.4l1.1-0.9l0.3,0.3l0.8-0.5l0.5,0.7l0.3-0.2l0.2-0.9l1.3-0.5l0.8,0.5
		l0.4,0.5l0.2,1l0.3,2l0.6,1.1l0.4,0.5l0.5,0.1l0.2-0.5L92,16.1l-0.1-0.6l0.2-1.5l0.2-0.6l1.4-2.2L95,10l0.7-0.1l1.2-2.6l0.3-0.5
		l0.3-0.1V6l-0.7-0.4V4.8l0.9-1l1.1-1.7L99.3,2l0.3,0.5l1,0.8l0.6,0.9l0.5,0.4l0.3-0.1l0.2-0.6l0.3-0.3l0.7,0.2l0.4,0.4l0.3,0.1
		l0.3,0.3l0.1,0.6l-0.6,0.6l-1,1.6l-1,1.8l-0.3,0.9l-0.3,2.5l-0.8,1.6l-0.1,1.1l0.3,0.5l0.8-0.4l1-1.5l0.3-1.5l2.6-4.2l1.2-2.4
		l1.4-2l0.8-0.4l0.4,1.3l-0.3,1.7l-0.6,1.1l0.4,0.5l-0.1,1.3l-0.1,0.7l-0.1,0.7v0.6l0.4-0.2l1.6-1.3l0.4-1.4l0.4-1.1l0.2-0.9
		l0.6-0.9h1.2V5.1l-1.4-1.2l0-0.9l0.5-0.8l1.3-1.4l0.7,0.2l0.4,0.3l1.6,0.3l1.2,1v1.6L117,4.8l-0.3,0.4l-1.6,1.2L114.8,7l0.5,0.2
		l1.1-0.6l0.3,0.5l-0.3,1.4l-0.1,2l-0.1,1.2v1.1l0.1,0.6l0.4-2.3l0.1-0.6l0.6-0.9l0.2-1.8l0.6-2.1l0.7-1.2l0.4-0.3h1.3l0.6,0.5
		l0.5,1l0.4,0.4l1.2,0.4l0.4,0.5l0.1,0.3l0.3,0.1l0.8-0.8l0.5-0.1l0.9,1.2l-0.2,0.9v0.3l1-0.1l0.9,0.4l1.6,1.8l0.2,0.8l-0.1,1
		l-2.4,1.1l-1,1.1l-1.7,0.4l-5.7-0.7l0.1,0.8l4,1.7l0.2,0.5l-0.1,1v0.8l0.1,0.5l0.3,0.5l0.5,0.2l1-0.1l0.5,0.3l0.3-0.4l0.1-1.4
		l0.3-0.3l0.6,0.4l0.2,1.5l0.2,0.2l0.3-1L128,20l0.6-0.1L129.6,20.2L129.6,20.2z M92.7,5l-0.1,0.5L92.4,6L92,6.4l-1.2,1.9l-0.7,0.3
		l-0.2,0.3l-0.3,0.2l-0.9-0.3l-0.3,0.4l-0.2,0.3l-0.6,0.1l-0.4-0.1l-0.9-0.7L85.8,8l-0.3-0.7h0.9l0.3-0.2l0.6,0.1l0.4-0.7l0.7,0.1
		l1.4-0.5l0.5,0.3L91.5,5h0.4l0.6-0.5L92.7,5L92.7,5z M95.6,8.7l-0.9,0.6l-0.5-0.5L94,8.3V7.1l0.1-0.7L94.4,6l0.3,0.3l0.1,0.2
		l0.5,0.2l0.6,0.7L95.6,8.7L95.6,8.7z M93.6,9l0.1,0.7v0.6l-0.5,0.8l-1.1,1.1l0.1,0.3l-0.4,0.3L91.2,13L91,12.7v-0.9v-0.3l-0.4,0.4
		l-0.4-0.5V11l0.1-0.4l0.4-0.6l0.7-0.4l0.4,0.2L93.2,8l0.2,0.4L93.6,9z M74.4,13.9l0.3,0.2L75,14l0.2,0.2l0.4,0.8l0.4,0.3v0.4
		L75.6,16l-0.5,0.1L74.5,16l-0.2-0.5l-0.2-0.8l-0.5-0.8l-0.1-0.7l0.4-0.1L74.4,13.9L74.4,13.9z M71.9,16.1l0.4,0.8l0.4-0.1l0.1-0.3
		l0.3-0.1l0.5,0.4l-0.1,0.7l-0.7,0.9l-0.5,1.3L71.6,20l-0.3-0.2l-0.6,0.7l-0.5,0.8l-0.5,1v0.5l-0.1,0.4l-1.9,0.4L67,23.7l-0.7-0.3
		L66,22.8l0.1-0.3l0.7-0.1v-0.6l0.2-0.4l0.2-0.2l0.2-0.8l0.3-0.2l0.5,0.2l0.4-0.5l0.2-0.1l0.2,0.5l0.1-0.6L69,19l0.1-0.4l0.7-1
		l0.3-0.7l0.4-0.5l0.4,0.1l0.1-0.7l-0.1-0.7v-0.5l0.4-1.1h0.4l0.2,1V16.1L71.9,16.1z M79.5,15.8l-0.3,0.3l-0.4,0.1L78.6,16l-0.3-0.1
		L77.9,16l-0.3-0.6v-0.5l0.4-0.7l0.8-0.4l0.7,0.2l0.2,0.2L79.5,15.8L79.5,15.8z M125.1,20l-0.9,0.4l-0.1-0.3l0.2-0.5l0.2-1.1h0.4
		l0.4,0.4l0.3,0.5L125.1,20z M63.2,22.9l0.6,0.8l0.3-0.2l0.5-0.1l0.4,0.3l0.3,0.5h0.4l0.2,0.7l0.1,0.9l-0.3,0.7l-0.4,0.3l-0.1,0.8
		l0.1,1.1l-0.9,0.4l-1,0.2L63,28.8l-0.8,0.9l-0.8,1.4L61,31.3v-0.5l-0.6-0.3h-0.7v-0.3l0.1-0.2l0.6-0.4l0.1-0.7l-0.1-1.3l0.1-0.6
		v-0.4l0.4-0.5l1.4,0.2l0.2-0.5l-0.1-0.3L61.7,25l0.1-0.4l0.5-0.3h0.5l0.1-0.6v-0.2L63.2,22.9L63.2,22.9z M54.5,37.3L54.5,37.3
		l0.7-1.2l0.8-0.4v-0.5l0.3-0.4v-0.7l0.1-0.6l0.4-0.2l0.2-0.2l0.3-0.1l0.5,0.5l0.3,0.5l0.3,1.2l-0.1,1.1l-0.9,0.9l-0.7,0.4l-0.7,1
		l-0.4,0.8l-0.3,0.2l-0.2-0.1l-0.2-0.2h-0.4L54.1,40l-1.2,0.6l-0.5-0.2v-0.7l-0.3,0.1l-0.5,0.9L51.2,41h-0.3l-0.6-0.3l-1.5,1.4
		l-1.4,0.3L47,42.3v-0.9l0.9-1.1l0.7-0.8l2.5-0.6l1.6-2.4l0.4-2.6l0.4-0.9l-0.2-0.5l-0.4-0.1v-0.8l0.2-0.9l0.8-1.2l0.5-0.5l0.7-1.5
		l0.4-0.3h0.4l0.4,0.4l-0.1,0.8l-0.6,1.4L54.7,31l0.1,0.9l0.4,0.7l0.1,1.2V35l-0.7,1.6L54.5,37.3z M51.8,32l0.6,1.4l0.3,0.8
		l-0.2,1.5l-0.6,0.8l-1,0.1l-0.7-0.1l-0.4-0.4l-0.1-0.4l-0.2-0.1l-0.7,0.5l-0.5,0.1l-0.6-0.4l-0.2-0.7l0.6-0.8l0.3-0.6l0.7,0.1
		l0.2,0.2l0.4,0.1l0.2-0.8l-0.1-0.5l0.2-0.4l0.8,0.3v-1.5l0.3-0.1l0.1,0.1l0.2,0.3L51.8,32L51.8,32z M45.1,41.3l0.3,0.2l0.8-0.1
		l0.2,0.1l-0.1,0.4L46,42.3l-0.7,0.3L45,43.2l-0.2,0.2h-0.6l-0.4,0.1l-0.4,0.6L43,43.7L42.8,44l-0.1,0.5l-0.2,0.2l-0.6,0.2l-0.1-1.2
		l0.3-0.4l0.2-0.5l0.3-0.1h0.3l0.5-1.1l0.7-0.3h0.5L45.1,41.3L45.1,41.3z M40.6,46.5l-0.7,0.7l0.3-1.3l0.4-1.3l0.5-0.7l0.3,0.3
		l-0.1,0.6v0.6l-0.1,0.3L40.6,46.5L40.6,46.5z M37.9,69.7l-0.5,0.1l0.1-0.5l0.4-0.5l0.1-0.4l0.1-0.4l0.3-0.3l0.5,0.4v0.7l-0.2,0.6
		L37.9,69.7L37.9,69.7z M38.3,71.4h-0.4v-0.5l0.2-0.5l0.4-0.3L39,70h0.5l0.2,0.2l-0.3,0.3L38.3,71.4L38.3,71.4z M35.6,74.8l-0.3,0.4
		L34.7,75l-0.1-0.3l0.2-0.6l0.4-0.3l0.5,0.1l0.2,0.3L35.6,74.8L35.6,74.8z M32,83.8l-0.3,0.3l-0.6-0.3L30,84.1l-0.5-0.3l0.4-0.6
		l1-0.7h0.6l0.6,0.8L32,83.8L32,83.8z M18.3,97.5h-0.6l-0.3-0.3l0.8-0.5l1.3-0.5l0.1-0.3h0.2l0.2,0.4v0.5l-0.1,0.3L18.3,97.5z
		 M16.4,101.2h-0.5l-0.6-0.2l-0.4-0.4l-0.1-0.3l0.7-0.4l0.7-0.2l0.3,0.4v0.7L16.4,101.2L16.4,101.2z M0.8,125.2l-0.4,0.1L0,125.2
		l0.1-1l0.2-0.2l0.3-0.1l0.3,0.5L0.8,125.2z M1.4,133.1v1.2L1,134.2l-0.2-0.5l-0.1-0.3v-0.7V132l0.1-0.4H1l0.3,0.6L1.4,133.1
		L1.4,133.1z"/>
</g>
<g>
	<g>
		<path class="st0" d="M65.8,105.7c-0.8-0.8-1.2-2.1-1.2-3.7v-0.3h3.2c0,0.9,0.1,1.6,0.3,2c0.2,0.4,0.7,0.6,1.4,0.6
			c0.6,0,1.1-0.3,1.3-0.9c0.3-0.6,0.4-1.6,0.4-3.1V98c-0.2,0.4-0.6,0.7-1,0.9s-1,0.3-1.7,0.3c-2.7,0-4.1-1.9-4.1-5.7
			c0-2,0.4-3.6,1.2-4.8c0.8-1.1,2.1-1.7,3.9-1.7c1.7,0,3,0.6,3.9,1.7c0.8,1.1,1.3,2.7,1.3,4.6v6.9c0,2.1-0.4,3.8-1.1,5
			c-0.8,1.2-2.1,1.8-4,1.8C67.8,106.9,66.5,106.5,65.8,105.7z M71.1,95.6v-3c0-0.9-0.1-1.7-0.4-2.2c-0.2-0.5-0.7-0.8-1.3-0.8
			s-1.1,0.3-1.3,0.9c-0.3,0.6-0.4,1.4-0.4,2.6c0,0.9,0,1.6,0.1,2.1s0.2,0.9,0.5,1.2c0.3,0.3,0.6,0.5,1.2,0.5
			C70.2,96.6,70.7,96.3,71.1,95.6z"/>
		<path class="st0" d="M76.8,103.4H80v3.3h-3.2V103.4z"/>
		<path class="st0" d="M83.4,105.7c-0.8-0.8-1.2-2.1-1.2-3.7v-0.3h3.2c0,0.9,0.1,1.6,0.3,2c0.2,0.4,0.7,0.6,1.4,0.6
			c0.6,0,1.1-0.3,1.3-0.9s0.4-1.6,0.4-3.1V98c-0.2,0.4-0.6,0.7-1,0.9c-0.5,0.2-1,0.3-1.7,0.3c-2.7,0-4.1-1.9-4.1-5.7
			c0-2,0.4-3.6,1.2-4.8c0.8-1.1,2.1-1.7,3.9-1.7c1.7,0,3,0.6,3.9,1.7c0.8,1.1,1.3,2.7,1.3,4.6v6.9c0,2.1-0.4,3.8-1.1,5
			c-0.8,1.2-2.1,1.8-4,1.8C85.4,106.9,84.1,106.5,83.4,105.7z M88.7,95.6v-3c0-0.9-0.1-1.7-0.4-2.2c-0.2-0.7-0.6-0.9-1.3-0.9
			c-0.6,0-1.1,0.3-1.3,0.9s-0.4,1.4-0.4,2.6c0,0.9,0,1.6,0.1,2.1s0.2,0.9,0.5,1.2c0.2,0.3,0.6,0.5,1.2,0.5
			C87.8,96.6,88.3,96.3,88.7,95.6z"/>
		<path class="st0" d="M100.4,87.1h3.3v11.2l3.6-5.6h3.6l-3.5,5.6l3.4,8.3h-3.4l-2.5-6.9l-1.1,1.5v5.3h-3.3L100.4,87.1L100.4,87.1z"
			/>
		<path class="st0" d="M112.9,110.4c-1-0.3-1.6-1-1.6-2c0-0.6,0.2-1.2,0.6-1.7s0.9-0.9,1.4-1.3c-0.6-0.2-1-0.4-1.2-0.7
			c-0.2-0.3-0.4-0.6-0.4-1s0.1-0.8,0.4-1.2c0.3-0.4,0.7-0.8,1.2-1.3c-0.5-0.4-0.9-0.9-1.2-1.5c-0.3-0.6-0.4-1.4-0.4-2.3
			c0-1.7,0.4-2.9,1.1-3.8c0.8-0.8,1.9-1.3,3.3-1.3c1.5,0,2.5,0.5,3,1.4c0.6-0.7,1.2-1.2,1.9-1.5l0.5-0.2l0.8,1.8
			c-0.3,0.1-0.7,0.2-1.2,0.5c-0.5,0.2-0.9,0.4-1.1,0.6c0.1,0.3,0.3,0.7,0.4,1.2s0.2,1,0.2,1.5c0,1.5-0.3,2.7-1,3.5s-1.8,1.3-3.2,1.3
			c-0.7,0-1.3-0.1-1.8-0.3c-0.3,0.5-0.5,0.8-0.5,1c0,0.3,0.4,0.5,1.2,0.6c0.2,0,0.8,0.1,1.7,0.2c0.2,0,0.5,0,0.9,0.1
			c1.2,0.1,2.1,0.5,2.6,1s0.8,1.3,0.8,2.3c0,1.2-0.4,2.1-1.1,2.7s-1.9,0.9-3.5,0.9C115.3,110.9,114,110.8,112.9,110.4z M118.4,108.4
			c0.3-0.2,0.5-0.5,0.5-0.9s-0.1-0.8-0.3-1c-0.2-0.2-0.7-0.3-1.4-0.4l-2.1-0.2c-0.2,0.3-0.4,0.5-0.6,0.8s-0.2,0.5-0.2,0.8
			c0,0.4,0.2,0.7,0.5,0.9s1,0.3,2,0.3C117.6,108.7,118.1,108.6,118.4,108.4z M117.5,99.6c0.2-0.4,0.3-1.2,0.3-2.2s-0.1-1.8-0.2-2.2
			c-0.2-0.4-0.5-0.7-1.1-0.7s-1,0.2-1.1,0.7s-0.3,1.2-0.3,2.2c0,0.9,0.1,1.7,0.3,2.1c0.2,0.5,0.5,0.7,1.1,0.7
			C116.9,100.3,117.3,100.1,117.5,99.6z"/>
	</g>
	<g>
		<path class="st0" d="M65.7,44.4h4.2L77.8,63V44.4h4.9v32.7h-3.9l-8-19.5v19.5h-5.1V44.4z"/>
		<path class="st0" d="M88.8,75.3c-1.3-1.4-1.9-3.4-1.9-6v-7.8c0-2.6,0.6-4.6,1.9-6c1.2-1.4,3.1-2.1,5.6-2.1s4.4,0.7,5.6,2.1
			c1.3,1.4,1.9,3.4,1.9,6v7.8c0,2.6-0.6,4.6-1.9,6c-1.2,1.4-3.1,2.1-5.6,2.1S90,76.7,88.8,75.3z M96.1,72.6c0.3-0.7,0.4-1.6,0.4-2.9
			v-8.6c0-1.3-0.1-2.3-0.4-2.9c-0.3-0.7-0.8-1-1.7-1s-1.4,0.3-1.7,1c-0.3,0.7-0.4,1.7-0.4,2.9v8.6c0,1.3,0.1,2.3,0.4,2.9
			c0.3,0.7,0.8,1,1.7,1S95.8,73.3,96.1,72.6z"/>
		<path class="st0" d="M105.8,53.8h5.5v3.6c1.5-2.6,3.1-3.9,4.9-3.9c0.2,0,0.5,0,0.8,0.1v5.2c-0.6-0.2-1.1-0.3-1.7-0.3
			c-0.8,0-1.6,0.2-2.2,0.6s-1.3,1-1.8,1.9v15.9h-5.5C105.8,76.9,105.8,53.8,105.8,53.8z"/>
		<path class="st0" d="M118.5,53.8h4.6l2.1,15.2l2.5-15.2h4L134,69l2.2-15.2h4.4l-3.7,23.3h-4.6l-2.6-14.7L127,77.1h-4.8L118.5,53.8
			z"/>
		<path class="st0" d="M145.4,76.6c-0.8-0.5-1.4-1.2-1.8-2.1c-0.4-0.8-0.6-1.7-0.6-2.6c0-1.7,0.4-3.2,1.2-4.3c0.8-1.1,1.7-2,2.9-2.6
			c1.1-0.6,2.6-1.3,4.4-2l0.9-0.4v-2c0-1.1-0.1-1.9-0.4-2.4c-0.3-0.5-0.7-0.7-1.5-0.7c-1.2,0-1.9,0.9-1.9,2.6l-0.1,1.4l-5.2-0.2
			v-0.8c0.2-2.4,0.9-4.2,2.2-5.3s3.1-1.7,5.5-1.7c2.3,0,4,0.6,5.1,1.9s1.7,3,1.7,5.3v10.8c0,1.6,0.1,3.5,0.4,5.7h-4.9
			c-0.3-1.5-0.5-2.6-0.6-3.3c-0.3,1-0.9,1.9-1.6,2.6c-0.8,0.7-1.8,1.1-3,1.1C147.1,77.4,146.2,77.1,145.4,76.6z M151.4,72.9
			c0.4-0.3,0.8-0.7,1-1v-6.5c-2.8,1.5-4.2,3.3-4.2,5.3c0,0.9,0.2,1.5,0.5,2s0.8,0.7,1.4,0.7C150.5,73.3,151,73.2,151.4,72.9z"/>
		<path class="st0" d="M161.9,79.4c1.5,0,2.5-0.1,3.1-0.4s0.9-0.7,0.9-1.5c0-0.3,0-0.5,0-0.7c0-0.3-0.2-1.1-0.5-2.4l-0.2-1.1
			l-2.2-8.5c-1.7-6.3-2.6-10-2.9-11.2h5.3l3,15.4l2.6-15.4h5.3l-5.5,24.6c-0.4,1.8-1.3,3.1-2.7,3.9s-3.1,1.1-5.3,1.1h-0.7v-3.8
			H161.9z"/>
	</g>
</g>
</svg>
