<?xml version="1.0" encoding="utf-8"?>
<!-- Generator: Adobe Illustrator 22.0.1, SVG Export Plug-In . SVG Version: 6.00 Build 0)  -->
<svg version="1.1" id="Layer_1" xmlns="http://www.w3.org/2000/svg" xmlns:xlink="http://www.w3.org/1999/xlink" x="0px" y="0px"
	 viewBox="0 0 74.8 100" style="enable-background:new 0 0 74.8 100;" xml:space="preserve">
<style type="text/css">
	.st0{fill:#2B231B;}
	.st1{fill:#231F20;}
	.st2{fill:#A7481F;}
	.st3{fill:#7C3416;}
	.st4{fill:#C38E3D;}
	.st5{fill:#44382E;}
</style>
<g>
	<rect x="0.1" class="st0" width="12.3" height="12.3"/>
</g>
<g>
	<path class="st1" d="M21,9.5c-0.4-0.5-0.5-1.2-0.5-2.1V0.4h0.9v7.1c0,0.6,0.1,1.1,0.3,1.5c0.2,0.4,0.6,0.5,1.3,0.5
		c0.6,0,1-0.2,1.2-0.5c0.2-0.4,0.4-0.8,0.4-1.5V0.4h0.9v7.1c0,0.9-0.2,1.6-0.6,2c-0.4,0.5-1,0.7-1.9,0.7C22,10.2,21.4,10,21,9.5z"/>
	<path class="st1" d="M26.9,3.1h0.9v0.7c0.2-0.3,0.5-0.5,0.8-0.6C28.8,3.1,29.1,3,29.4,3c0.3,0,0.6,0.1,0.8,0.4
		c0.2,0.3,0.3,0.6,0.3,1.1v5.6h-0.9V4.7c0-0.4-0.1-0.6-0.2-0.8c-0.1-0.2-0.3-0.2-0.5-0.2c-0.2,0-0.4,0.1-0.6,0.2
		c-0.2,0.1-0.4,0.3-0.6,0.5v5.7h-0.9V3.1z"/>
	<path class="st1" d="M31.9,1h0.9v1.2h-0.9V1z M31.9,3.1h0.9v6.9h-0.9V3.1z"/>
	<path class="st1" d="M34.9,9.8c-0.2-0.3-0.3-0.6-0.3-1.1V3.7h-0.9V3.1h0.9V1h0.9v2.1h1.2v0.6h-1.2v4.8c0,0.4,0,0.6,0.1,0.7
		c0.1,0.1,0.2,0.2,0.5,0.2c0.2,0,0.3,0,0.5-0.1v0.7c-0.2,0-0.5,0.1-0.7,0.1C35.4,10.2,35,10,34.9,9.8z"/>
	<path class="st1" d="M38.2,9.9c-0.3-0.2-0.5-0.5-0.6-0.9c-0.1-0.4-0.2-0.9-0.2-1.6V5.7c0-0.7,0.1-1.2,0.2-1.6s0.3-0.7,0.6-0.8
		C38.5,3.1,38.9,3,39.3,3c0.5,0,0.9,0.1,1.1,0.3s0.4,0.5,0.5,0.9c0.1,0.4,0.1,1,0.1,1.6l0,0.6h-2.8v1c0,0.5,0,0.9,0.1,1.2
		c0.1,0.3,0.2,0.5,0.3,0.6c0.1,0.1,0.3,0.2,0.6,0.2c0.3,0,0.5-0.1,0.7-0.3c0.2-0.2,0.2-0.5,0.2-1V7.7h0.9v0.4c0,0.7-0.1,1.2-0.4,1.5
		c-0.3,0.4-0.7,0.5-1.4,0.5C38.9,10.2,38.5,10.1,38.2,9.9z M40.3,6V5.4c0-0.4,0-0.7-0.1-1S40.1,4,39.9,3.9c-0.1-0.1-0.3-0.2-0.6-0.2
		c-0.2,0-0.4,0.1-0.6,0.2c-0.1,0.1-0.2,0.3-0.3,0.6c-0.1,0.3-0.1,0.6-0.1,1.1V6H40.3z"/>
	<path class="st1" d="M42.6,9.5c-0.3-0.4-0.4-1.2-0.4-2.2V6c0-1,0.1-1.7,0.3-2.2C42.8,3.3,43.2,3,43.8,3c0.4,0,0.9,0.2,1.2,0.6V0.4
		h0.9v9.7H45V9.6c-0.4,0.4-0.8,0.6-1.2,0.6C43.3,10.2,42.8,10,42.6,9.5z M45,9V4.2c-0.4-0.3-0.7-0.5-1-0.5c-0.4,0-0.6,0.2-0.8,0.5
		c-0.1,0.3-0.2,0.8-0.2,1.5v1.6c0,0.8,0.1,1.3,0.2,1.6s0.4,0.5,0.8,0.5C44.4,9.5,44.7,9.3,45,9z"/>
	<path class="st1" d="M50.2,9.5c-0.4-0.5-0.6-1.1-0.7-1.9l0.8-0.2c0.1,0.7,0.2,1.2,0.5,1.6s0.6,0.6,1.2,0.6c0.9,0,1.4-0.5,1.4-1.4
		c0-0.4-0.1-0.8-0.3-1c-0.2-0.3-0.5-0.6-0.9-1l-1.7-1.6c-0.3-0.3-0.5-0.6-0.7-0.9c-0.1-0.3-0.2-0.7-0.2-1c0-0.7,0.2-1.2,0.6-1.5
		c0.4-0.4,0.9-0.5,1.6-0.5c0.7,0,1.3,0.2,1.6,0.6s0.6,1,0.7,1.9l-0.8,0.2c0-0.6-0.2-1.1-0.4-1.5C52.7,1.1,52.3,1,51.8,1
		c-0.4,0-0.8,0.1-1.1,0.3s-0.4,0.5-0.4,1c0,0.3,0.1,0.5,0.2,0.7c0.1,0.2,0.3,0.4,0.5,0.7l1.7,1.6c0.4,0.4,0.8,0.9,1,1.3
		C54.1,7,54.2,7.5,54.2,8c0,0.7-0.2,1.2-0.6,1.6s-0.9,0.6-1.6,0.6C51.2,10.2,50.6,10,50.2,9.5z"/>
	<path class="st1" d="M55.9,9.8c-0.2-0.3-0.3-0.6-0.3-1.1V3.7h-0.9V3.1h0.9V1h0.9v2.1h1.2v0.6h-1.2v4.8c0,0.4,0,0.6,0.1,0.7
		c0.1,0.1,0.2,0.2,0.5,0.2c0.2,0,0.3,0,0.5-0.1v0.7c-0.2,0-0.5,0.1-0.7,0.1C56.4,10.2,56.1,10,55.9,9.8z"/>
	<path class="st1" d="M58.8,9.7c-0.3-0.3-0.4-0.7-0.4-1.1c0-0.5,0.1-0.8,0.3-1.1s0.5-0.6,0.8-0.8c0.4-0.2,0.9-0.5,1.7-0.9V5.4
		c0-0.4,0-0.8-0.1-1c-0.1-0.2-0.1-0.4-0.3-0.5c-0.1-0.1-0.3-0.2-0.5-0.2c-0.6,0-1,0.4-1,1.2v0.3l-0.9,0l0-0.2c0-0.7,0.2-1.1,0.5-1.4
		C59.3,3.2,59.8,3,60.4,3c0.6,0,1,0.2,1.3,0.6s0.4,0.9,0.4,1.7v3.4c0,0.2,0,0.5,0,0.8s0,0.5,0,0.6h-0.8l-0.1-1
		c-0.1,0.3-0.3,0.6-0.5,0.8s-0.5,0.3-0.9,0.3C59.4,10.2,59,10,58.8,9.7z M60.7,9.2c0.2-0.2,0.4-0.4,0.5-0.6V6.4
		c-0.6,0.3-1,0.5-1.2,0.7c-0.2,0.1-0.4,0.3-0.5,0.5c-0.1,0.2-0.2,0.5-0.2,0.8c0,0.3,0.1,0.6,0.2,0.8c0.1,0.2,0.3,0.3,0.6,0.3
		C60.3,9.4,60.5,9.4,60.7,9.2z"/>
	<path class="st1" d="M64,9.8c-0.2-0.3-0.3-0.6-0.3-1.1V3.7h-0.9V3.1h0.9V1h0.9v2.1h1.2v0.6h-1.2v4.8c0,0.4,0,0.6,0.1,0.7
		c0.1,0.1,0.2,0.2,0.5,0.2c0.2,0,0.3,0,0.5-0.1v0.7c-0.2,0-0.5,0.1-0.7,0.1C64.5,10.2,64.1,10,64,9.8z"/>
	<path class="st1" d="M67.3,9.9c-0.3-0.2-0.5-0.5-0.6-0.9c-0.1-0.4-0.2-0.9-0.2-1.6V5.7c0-0.7,0.1-1.2,0.2-1.6s0.3-0.7,0.6-0.8
		C67.6,3.1,68,3,68.4,3c0.5,0,0.9,0.1,1.1,0.3s0.4,0.5,0.5,0.9c0.1,0.4,0.1,1,0.1,1.6l0,0.6h-2.8v1c0,0.5,0,0.9,0.1,1.2
		c0.1,0.3,0.2,0.5,0.3,0.6c0.1,0.1,0.3,0.2,0.6,0.2c0.3,0,0.5-0.1,0.7-0.3c0.2-0.2,0.2-0.5,0.2-1V7.7h0.9v0.4c0,0.7-0.1,1.2-0.4,1.5
		c-0.3,0.4-0.7,0.5-1.4,0.5C68,10.2,67.6,10.1,67.3,9.9z M69.3,6V5.4c0-0.4,0-0.7-0.1-1S69.1,4,69,3.9c-0.1-0.1-0.3-0.2-0.6-0.2
		c-0.2,0-0.4,0.1-0.6,0.2c-0.1,0.1-0.2,0.3-0.3,0.6c-0.1,0.3-0.1,0.6-0.1,1.1V6H69.3z"/>
	<path class="st1" d="M71.7,9.7c-0.3-0.4-0.5-0.8-0.6-1.4L71.8,8c0,0.5,0.2,0.9,0.4,1.2s0.5,0.4,0.8,0.4c0.3,0,0.5-0.1,0.7-0.3
		C73.9,9.1,74,8.8,74,8.5c0-0.4-0.3-0.9-0.8-1.4l-0.9-0.8c-0.3-0.3-0.6-0.5-0.7-0.8c-0.2-0.3-0.2-0.6-0.2-0.9c0-0.5,0.1-0.9,0.4-1.2
		S72.4,3,72.9,3c0.5,0,0.9,0.2,1.2,0.5c0.3,0.3,0.4,0.8,0.5,1.3l-0.6,0.2c0-0.9-0.4-1.4-1-1.4c-0.3,0-0.5,0.1-0.7,0.2
		c-0.2,0.1-0.2,0.4-0.2,0.6c0,0.2,0,0.4,0.1,0.6s0.2,0.3,0.4,0.5l1,0.9c0.4,0.3,0.7,0.6,0.9,0.9c0.2,0.3,0.3,0.7,0.3,1.1
		c0,0.5-0.2,0.9-0.5,1.2C74,10,73.5,10.2,73,10.2S72,10,71.7,9.7z"/>
</g>
<g>
	<rect x="0.1" y="21.9" class="st2" width="12.3" height="12.3"/>
</g>
<g>
	<path class="st1" d="M20.5,31.3C20.1,30.8,20,30,20,29v-3.8c0-1,0.2-1.8,0.5-2.3c0.4-0.5,1-0.8,1.9-0.8c0.8,0,1.4,0.2,1.8,0.7
		s0.5,1.2,0.5,2.1v0.3h-0.9V25c0-0.7-0.1-1.3-0.3-1.6c-0.2-0.3-0.6-0.5-1.2-0.5c-0.4,0-0.8,0.1-1,0.3c-0.2,0.2-0.4,0.4-0.5,0.8
		c-0.1,0.3-0.1,0.7-0.1,1.2v4c0,0.8,0.1,1.3,0.3,1.7c0.2,0.4,0.6,0.6,1.2,0.6c0.6,0,1-0.2,1.2-0.6c0.2-0.4,0.3-0.9,0.3-1.7V28h-1.4
		v-0.7h2.3V32h-0.6l-0.1-1.1c-0.1,0.4-0.3,0.7-0.6,0.9c-0.3,0.2-0.7,0.3-1.1,0.3C21.5,32.1,20.9,31.9,20.5,31.3z"/>
	<path class="st1" d="M26.9,31.8c-0.3-0.2-0.5-0.5-0.6-0.9c-0.1-0.4-0.2-0.9-0.2-1.6v-1.8c0-0.7,0.1-1.2,0.2-1.6s0.3-0.7,0.6-0.8
		c0.3-0.2,0.6-0.3,1.1-0.3c0.5,0,0.9,0.1,1.1,0.3s0.4,0.5,0.5,0.9c0.1,0.4,0.1,1,0.1,1.6l0,0.6h-2.8v1c0,0.5,0,0.9,0.1,1.2
		c0.1,0.3,0.2,0.5,0.3,0.6c0.1,0.1,0.3,0.2,0.6,0.2c0.3,0,0.5-0.1,0.7-0.3c0.2-0.2,0.2-0.5,0.2-1v-0.5h0.9V30c0,0.7-0.1,1.2-0.4,1.5
		c-0.3,0.4-0.7,0.5-1.4,0.5C27.5,32.1,27.1,32,26.9,31.8z M28.9,27.9v-0.6c0-0.4,0-0.7-0.1-1s-0.1-0.4-0.3-0.6
		c-0.1-0.1-0.3-0.2-0.6-0.2c-0.2,0-0.4,0.1-0.6,0.2c-0.1,0.1-0.2,0.3-0.3,0.6c-0.1,0.3-0.1,0.6-0.1,1.1v0.5H28.9z"/>
	<path class="st1" d="M31,25.1h0.9V26c0.2-0.3,0.5-0.6,0.7-0.8c0.3-0.2,0.6-0.3,0.9-0.3c0.1,0,0.1,0,0.2,0v0.9
		c-0.1,0-0.3-0.1-0.4-0.1c-0.6,0-1,0.3-1.3,0.8V32H31V25.1z"/>
	<path class="st1" d="M34.5,25.1h0.8v0.7c0.2-0.3,0.5-0.5,0.8-0.6c0.3-0.1,0.6-0.2,0.9-0.2c0.6,0,0.9,0.3,1.1,0.9
		c0.2-0.3,0.5-0.5,0.8-0.7c0.3-0.2,0.6-0.2,0.9-0.2c0.3,0,0.6,0.1,0.8,0.4c0.2,0.2,0.3,0.7,0.3,1.2V32h-0.8v-5.4
		c0-0.4-0.1-0.6-0.2-0.8c-0.1-0.1-0.3-0.2-0.5-0.2c-0.2,0-0.4,0.1-0.7,0.2c-0.2,0.1-0.4,0.3-0.6,0.5c0,0.1,0,0.2,0,0.3V32h-0.8v-5.4
		c0-0.4-0.1-0.6-0.2-0.8c-0.1-0.1-0.3-0.2-0.5-0.2c-0.2,0-0.4,0.1-0.6,0.2c-0.2,0.1-0.4,0.3-0.6,0.5V32h-0.8V25.1z"/>
	<path class="st1" d="M42.4,31.7C42.2,31.4,42,31,42,30.5c0-0.5,0.1-0.8,0.3-1.1s0.5-0.6,0.8-0.8c0.4-0.2,0.9-0.5,1.7-0.9v-0.5
		c0-0.4,0-0.8-0.1-1c-0.1-0.2-0.1-0.4-0.3-0.5c-0.1-0.1-0.3-0.2-0.5-0.2c-0.6,0-1,0.4-1,1.2V27l-0.9,0l0-0.2c0-0.7,0.2-1.1,0.5-1.4
		c0.3-0.3,0.8-0.4,1.4-0.4c0.6,0,1,0.2,1.3,0.6s0.4,0.9,0.4,1.7v3.4c0,0.2,0,0.5,0,0.8s0,0.5,0,0.6H45l-0.1-1
		c-0.1,0.3-0.3,0.6-0.5,0.8s-0.5,0.3-0.9,0.3C43,32.1,42.7,31.9,42.4,31.7z M44.4,31.1c0.2-0.2,0.4-0.4,0.5-0.6v-2.2
		c-0.6,0.3-1,0.5-1.2,0.7c-0.2,0.1-0.4,0.3-0.5,0.5c-0.1,0.2-0.2,0.5-0.2,0.8c0,0.3,0.1,0.6,0.2,0.8c0.1,0.2,0.3,0.3,0.6,0.3
		C44,31.4,44.2,31.3,44.4,31.1z"/>
	<path class="st1" d="M47,25.1h0.9v0.7c0.2-0.3,0.5-0.5,0.8-0.6c0.3-0.1,0.6-0.2,0.9-0.2c0.3,0,0.6,0.1,0.8,0.4
		c0.2,0.3,0.3,0.6,0.3,1.1V32h-0.9v-5.4c0-0.4-0.1-0.6-0.2-0.8c-0.1-0.2-0.3-0.2-0.5-0.2c-0.2,0-0.4,0.1-0.6,0.2
		c-0.2,0.1-0.4,0.3-0.6,0.5V32H47V25.1z"/>
	<path class="st1" d="M51.7,33c0.5,0,0.9-0.1,1.1-0.2c0.2-0.1,0.3-0.3,0.3-0.5c0-0.1,0-0.2,0-0.2c0-0.1-0.1-0.4-0.1-0.7l-0.1-0.3
		c-0.1-0.6-0.3-1.3-0.5-2.2c-0.2-0.8-0.4-1.6-0.6-2.4c-0.2-1-0.3-1.5-0.3-1.5h0.9l1.2,5.9l1.2-5.9h0.9l-1.7,7.4
		c-0.1,0.4-0.3,0.8-0.6,0.9c-0.3,0.2-0.8,0.3-1.4,0.3h-0.2V33z"/>
</g>
<g>
	<rect x="0.1" y="43.8" class="st3" width="12.3" height="12.3"/>
</g>
<g>
	<path class="st1" d="M20.2,44.2h3.5v0.7h-2.6v3.7h2.1v0.7h-2.1v4.7h-0.9V44.2z"/>
	<path class="st1" d="M24.6,47h0.9v0.9c0.2-0.3,0.5-0.6,0.7-0.8c0.3-0.2,0.6-0.3,0.9-0.3c0.1,0,0.1,0,0.2,0v0.9
		c-0.1,0-0.3-0.1-0.4-0.1c-0.6,0-1,0.3-1.3,0.8v5.3h-0.9V47z"/>
	<path class="st1" d="M28.2,53.6c-0.3-0.3-0.4-0.7-0.4-1.1c0-0.5,0.1-0.8,0.3-1.1s0.5-0.6,0.8-0.8c0.4-0.2,0.9-0.5,1.7-0.9v-0.5
		c0-0.4,0-0.8-0.1-1c-0.1-0.2-0.1-0.4-0.3-0.5c-0.1-0.1-0.3-0.2-0.5-0.2c-0.6,0-1,0.4-1,1.2V49l-0.9,0l0-0.2c0-0.7,0.2-1.1,0.5-1.4
		c0.3-0.3,0.8-0.4,1.4-0.4c0.6,0,1,0.2,1.3,0.6s0.4,0.9,0.4,1.7v3.4c0,0.2,0,0.5,0,0.8s0,0.5,0,0.6h-0.8l-0.1-1
		c-0.1,0.3-0.3,0.6-0.5,0.8S29.6,54,29.3,54C28.8,54,28.5,53.9,28.2,53.6z M30.2,53c0.2-0.2,0.4-0.4,0.5-0.6v-2.2
		c-0.6,0.3-1,0.5-1.2,0.7c-0.2,0.1-0.4,0.3-0.5,0.5c-0.1,0.2-0.2,0.5-0.2,0.8c0,0.3,0.1,0.6,0.2,0.8c0.1,0.2,0.3,0.3,0.6,0.3
		C29.8,53.3,30,53.2,30.2,53z"/>
	<path class="st1" d="M32.8,47h0.9v0.7c0.2-0.3,0.5-0.5,0.8-0.6c0.3-0.1,0.6-0.2,0.9-0.2c0.3,0,0.6,0.1,0.8,0.4
		c0.2,0.3,0.3,0.6,0.3,1.1v5.6h-0.9v-5.4c0-0.4-0.1-0.6-0.2-0.8c-0.1-0.2-0.3-0.2-0.5-0.2c-0.2,0-0.4,0.1-0.6,0.2
		c-0.2,0.1-0.4,0.3-0.6,0.5v5.7h-0.9V47z"/>
	<path class="st1" d="M38.3,53.7c-0.3-0.2-0.5-0.5-0.5-0.9c-0.1-0.4-0.1-0.9-0.1-1.5v-1.6c0-0.7,0.1-1.2,0.2-1.6
		c0.1-0.4,0.3-0.7,0.6-0.9c0.3-0.2,0.6-0.3,1.1-0.3c0.7,0,1.1,0.2,1.4,0.6s0.4,0.9,0.4,1.7v0.3h-0.8v-0.3c0-0.4,0-0.7-0.1-0.9
		c-0.1-0.2-0.2-0.4-0.3-0.5s-0.3-0.1-0.6-0.1c-0.3,0-0.5,0.1-0.6,0.2c-0.1,0.1-0.2,0.3-0.3,0.6c-0.1,0.3-0.1,0.7-0.1,1.2v1.9
		c0,0.5,0,0.9,0.1,1.1c0.1,0.3,0.2,0.5,0.3,0.6c0.1,0.1,0.3,0.2,0.6,0.2c0.3,0,0.5-0.1,0.6-0.2c0.1-0.1,0.2-0.3,0.3-0.5
		c0-0.2,0.1-0.6,0.1-1v-0.4h0.8v0.3c0,0.5,0,0.9-0.1,1.3c-0.1,0.3-0.3,0.6-0.5,0.8c-0.3,0.2-0.6,0.3-1.1,0.3
		C38.9,54,38.5,53.9,38.3,53.7z"/>
	<path class="st1" d="M43.1,53.8c-0.3-0.2-0.5-0.5-0.6-0.9c-0.1-0.4-0.2-0.9-0.2-1.6v-1.8c0-0.7,0.1-1.2,0.2-1.6s0.3-0.7,0.6-0.8
		c0.3-0.2,0.6-0.3,1.1-0.3c0.5,0,0.9,0.1,1.1,0.3s0.4,0.5,0.5,0.9c0.1,0.4,0.1,1,0.1,1.6l0,0.6h-2.8v1c0,0.5,0,0.9,0.1,1.2
		c0.1,0.3,0.2,0.5,0.3,0.6c0.1,0.1,0.3,0.2,0.6,0.2c0.3,0,0.5-0.1,0.7-0.3c0.2-0.2,0.2-0.5,0.2-1v-0.5h0.9v0.4
		c0,0.7-0.1,1.2-0.4,1.5c-0.3,0.4-0.7,0.5-1.4,0.5C43.7,54,43.3,53.9,43.1,53.8z M45.1,49.9v-0.6c0-0.4,0-0.7-0.1-1
		s-0.1-0.4-0.3-0.6c-0.1-0.1-0.3-0.2-0.6-0.2c-0.2,0-0.4,0.1-0.6,0.2c-0.1,0.1-0.2,0.3-0.3,0.6c-0.1,0.3-0.1,0.6-0.1,1.1v0.5H45.1z"
		/>
</g>
<g>
	<rect x="0.1" y="65.8" class="st4" width="12.3" height="12.3"/>
</g>
<g>
	<path class="st1" d="M20.2,66.1h0.9v9.7h-0.9V66.1z"/>
	<path class="st1" d="M23.3,75.5c-0.2-0.3-0.3-0.6-0.3-1.1v-4.9h-0.9v-0.6H23v-2.1h0.9v2.1h1.2v0.6h-1.2v4.8c0,0.4,0,0.6,0.1,0.7
		c0.1,0.1,0.2,0.2,0.5,0.2c0.2,0,0.3,0,0.5-0.1v0.7c-0.2,0-0.5,0.1-0.7,0.1C23.8,75.9,23.5,75.8,23.3,75.5z"/>
	<path class="st1" d="M26.2,75.5c-0.3-0.3-0.4-0.7-0.4-1.1c0-0.5,0.1-0.8,0.3-1.1c0.2-0.3,0.5-0.6,0.8-0.8c0.4-0.2,0.9-0.5,1.7-0.9
		v-0.5c0-0.4,0-0.8-0.1-1c-0.1-0.2-0.1-0.4-0.3-0.5s-0.3-0.2-0.5-0.2c-0.6,0-1,0.4-1,1.2v0.3l-0.9,0l0-0.2c0-0.7,0.2-1.1,0.5-1.4
		c0.3-0.3,0.8-0.4,1.4-0.4c0.6,0,1,0.2,1.3,0.6c0.3,0.4,0.4,0.9,0.4,1.7v3.4c0,0.2,0,0.5,0,0.8c0,0.3,0,0.5,0,0.6h-0.8l-0.1-1
		c-0.1,0.3-0.3,0.6-0.5,0.8c-0.3,0.2-0.5,0.3-0.9,0.3C26.8,75.9,26.5,75.8,26.2,75.5z M28.1,74.9c0.2-0.2,0.4-0.4,0.5-0.6v-2.2
		c-0.6,0.3-1,0.5-1.2,0.7c-0.2,0.1-0.4,0.3-0.5,0.5c-0.1,0.2-0.2,0.5-0.2,0.8c0,0.3,0.1,0.6,0.2,0.8c0.1,0.2,0.3,0.3,0.6,0.3
		C27.7,75.2,27.9,75.1,28.1,74.9z"/>
	<path class="st1" d="M30.9,66.1h0.9v9.7h-0.9V66.1z"/>
	<path class="st1" d="M33,76.9c0.5,0,0.9-0.1,1.1-0.2c0.2-0.1,0.3-0.3,0.3-0.5c0-0.1,0-0.2,0-0.2c0-0.1-0.1-0.4-0.1-0.7L34.2,75
		c-0.1-0.6-0.3-1.3-0.5-2.2c-0.2-0.8-0.4-1.6-0.6-2.4c-0.2-1-0.3-1.5-0.3-1.5h0.9l1.2,5.9l1.2-5.9h0.9l-1.7,7.4
		c-0.1,0.4-0.3,0.8-0.6,0.9c-0.3,0.2-0.8,0.3-1.4,0.3H33V76.9z"/>
</g>
<g>
	<rect x="0.1" y="87.7" class="st5" width="12.3" height="12.3"/>
</g>
<g>
	<path class="st1" d="M19.4,97.5c0.5,0,0.8,0,1-0.1s0.3-0.2,0.4-0.5c0.1-0.2,0.1-0.6,0.1-1.1V88h0.9v7.8c0,0.6,0,1-0.2,1.4
		c-0.1,0.3-0.3,0.6-0.6,0.7c-0.3,0.2-0.7,0.2-1.2,0.2h-0.4V97.5z"/>
	<path class="st1" d="M23.5,97.4c-0.3-0.3-0.4-0.7-0.4-1.1c0-0.5,0.1-0.8,0.3-1.1s0.5-0.6,0.8-0.8c0.4-0.2,0.9-0.5,1.7-0.9V93
		c0-0.4,0-0.8-0.1-1c-0.1-0.2-0.1-0.4-0.3-0.5c-0.1-0.1-0.3-0.2-0.5-0.2c-0.6,0-1,0.4-1,1.2v0.3l-0.9,0l0-0.2c0-0.7,0.2-1.1,0.5-1.4
		c0.3-0.3,0.8-0.4,1.4-0.4c0.6,0,1,0.2,1.3,0.6s0.4,0.9,0.4,1.7v3.4c0,0.2,0,0.5,0,0.8s0,0.5,0,0.6h-0.8l-0.1-1
		c-0.1,0.3-0.3,0.6-0.5,0.8s-0.5,0.3-0.9,0.3C24.1,97.8,23.8,97.7,23.5,97.4z M25.5,96.9c0.2-0.2,0.4-0.4,0.5-0.6v-2.2
		c-0.6,0.3-1,0.5-1.2,0.7c-0.2,0.1-0.4,0.3-0.5,0.5c-0.1,0.2-0.2,0.5-0.2,0.8c0,0.3,0.1,0.6,0.2,0.8c0.1,0.2,0.3,0.3,0.6,0.3
		C25,97.1,25.3,97,25.5,96.9z"/>
	<path class="st1" d="M28.1,90.8H29v0.6c0.4-0.5,0.8-0.7,1.3-0.7c0.6,0,1,0.3,1.2,0.8s0.3,1.2,0.3,2v1.5c0,1-0.1,1.7-0.4,2.2
		s-0.7,0.8-1.3,0.8c-0.4,0-0.8-0.2-1.2-0.7v2.8h-0.9V90.8z M30.8,96.6c0.1-0.3,0.2-0.9,0.2-1.7v-1.5c0-0.7-0.1-1.3-0.2-1.6
		s-0.4-0.5-0.8-0.5c-0.4,0-0.7,0.2-1.1,0.5v4.7c0.3,0.3,0.7,0.5,1.1,0.5C30.4,97.2,30.7,97,30.8,96.6z"/>
	<path class="st1" d="M33.3,97.4c-0.3-0.3-0.4-0.7-0.4-1.1c0-0.5,0.1-0.8,0.3-1.1s0.5-0.6,0.8-0.8c0.4-0.2,0.9-0.5,1.7-0.9V93
		c0-0.4,0-0.8-0.1-1c-0.1-0.2-0.1-0.4-0.3-0.5c-0.1-0.1-0.3-0.2-0.5-0.2c-0.6,0-1,0.4-1,1.2v0.3l-0.9,0l0-0.2c0-0.7,0.2-1.1,0.5-1.4
		c0.3-0.3,0.8-0.4,1.4-0.4c0.6,0,1,0.2,1.3,0.6s0.4,0.9,0.4,1.7v3.4c0,0.2,0,0.5,0,0.8s0,0.5,0,0.6h-0.8l-0.1-1
		c-0.1,0.3-0.3,0.6-0.5,0.8s-0.5,0.3-0.9,0.3C33.9,97.8,33.5,97.7,33.3,97.4z M35.2,96.9c0.2-0.2,0.4-0.4,0.5-0.6v-2.2
		c-0.6,0.3-1,0.5-1.2,0.7c-0.2,0.1-0.4,0.3-0.5,0.5c-0.1,0.2-0.2,0.5-0.2,0.8c0,0.3,0.1,0.6,0.2,0.8c0.1,0.2,0.3,0.3,0.6,0.3
		C34.8,97.1,35,97,35.2,96.9z"/>
	<path class="st1" d="M37.9,90.8h0.9v0.7c0.2-0.3,0.5-0.5,0.8-0.6c0.3-0.1,0.6-0.2,0.9-0.2c0.3,0,0.6,0.1,0.8,0.4
		c0.2,0.3,0.3,0.6,0.3,1.1v5.6h-0.9v-5.4c0-0.4-0.1-0.6-0.2-0.8c-0.1-0.2-0.3-0.2-0.5-0.2c-0.2,0-0.4,0.1-0.6,0.2
		c-0.2,0.1-0.4,0.3-0.6,0.5v5.7h-0.9V90.8z"/>
</g>
</svg>
