<?xml version="1.0" encoding="utf-8"?>
<!-- Generator: Adobe Illustrator 22.0.1, SVG Export Plug-In . SVG Version: 6.00 Build 0)  -->
<svg version="1.1" id="Layer_1" xmlns="http://www.w3.org/2000/svg" xmlns:xlink="http://www.w3.org/1999/xlink" x="0px" y="0px"
	 viewBox="0 0 48.8 48.8" style="enable-background:new 0 0 48.8 48.8;" xml:space="preserve">
<style type="text/css">
	.st0{clip-path:url(#SVGID_2_);}
	.st1{fill:#231D17;}
</style>
<g>
	<defs>
		<rect id="SVGID_1_" width="48.8" height="48.8"/>
	</defs>
	<clipPath id="SVGID_2_">
		<use xlink:href="#SVGID_1_"  style="overflow:visible;"/>
	</clipPath>
	<g class="st0">
		
			<rect x="-51.1" y="-2.9" transform="matrix(0.7071 -0.7071 0.7071 0.7071 -7.763023e-13 -5.517011e-14)" class="st1" width="102.2" height="5.9"/>
		<rect x="-43" y="5.2" transform="matrix(0.7071 -0.7071 0.7071 0.7071 -3.3688 8.133)" class="st1" width="102.2" height="5.9"/>
		
			<rect x="-34.9" y="13.3" transform="matrix(0.7071 -0.7071 0.7071 0.7071 -6.7376 16.266)" class="st1" width="102.2" height="5.9"/>
		
			<rect x="-26.7" y="21.5" transform="matrix(0.7071 -0.7071 0.7071 0.7071 -10.1064 24.3989)" class="st1" width="102.2" height="5.9"/>
		
			<rect x="-18.6" y="29.6" transform="matrix(0.7071 -0.7071 0.7071 0.7071 -13.4752 32.5319)" class="st1" width="102.2" height="5.9"/>
		
			<rect x="-10.5" y="37.7" transform="matrix(0.7071 -0.7071 0.7071 0.7071 -16.844 40.6649)" class="st1" width="102.2" height="5.9"/>
		
			<rect x="-2.3" y="45.9" transform="matrix(0.7071 -0.7071 0.7071 0.7071 -20.2127 48.7979)" class="st1" width="102.2" height="5.9"/>
	</g>
</g>
</svg>
