<?xml version="1.0" encoding="utf-8"?>
<!-- Generator: Adobe Illustrator 22.0.1, SVG Export Plug-In . SVG Version: 6.00 Build 0)  -->
<svg version="1.1" id="Layer_1" xmlns="http://www.w3.org/2000/svg" xmlns:xlink="http://www.w3.org/1999/xlink" x="0px" y="0px"
	 viewBox="0 0 37.5 21.9" style="enable-background:new 0 0 37.5 21.9;" xml:space="preserve">
<style type="text/css">
	.st0{opacity:0.5;}
	.st1{fill:#171512;}
	.st2{fill:#F4E3BF;}
</style>
<g class="st0">
	<path class="st1" d="M37.5,0.5v19.2c-1.9,1.3-4.2,2.2-6.7,2.2c-6.3,0-11.4-5.1-11.4-11.4c0-4.1-3.3-7.4-7.4-7.4s-7.4,3.3-7.4,7.4
		c0,3.8-1.9,7.1-4.7,9.2V0.5H37.5z"/>
</g>
<path class="st2" d="M0-1v11.5c0-5.2,4.2-9.4,9.4-9.4c5.2,0,9.4,4.2,9.4,9.4c0,5.2,4.2,9.4,9.4,9.4c5.2,0,9.4-4.2,9.4-9.4V-1H0z"/>
</svg>
