<?xml version="1.0" encoding="utf-8"?>
<!-- Generator: Adobe Illustrator 15.1.0, SVG Export Plug-In . SVG Version: 6.00 Build 0)  -->
<!DOCTYPE svg PUBLIC "-//W3C//DTD SVG 1.1//EN" "http://www.w3.org/Graphics/SVG/1.1/DTD/svg11.dtd">
<svg version="1.1" id="Layer_1" xmlns="http://www.w3.org/2000/svg" xmlns:xlink="http://www.w3.org/1999/xlink" x="0px" y="0px"
	 width="59.096px" height="49.329px" viewBox="0 0 59.096 49.329" enable-background="new 0 0 59.096 49.329" xml:space="preserve">
<g>
	<path fill="#FFFFFF" d="M3.477,11.116C1.564,9.14,0,9.773,0,12.523v31.806c0,2.75,2.25,5,5,5h49.096c2.75,0,5-2.25,5-5V13.273
		c0-2.75-1.584-3.402-3.521-1.45L33.069,34.51c-1.937,1.952-5.086,1.933-6.999-0.043L3.477,11.116z"/>
</g>
<g>
	<path fill="#FFFFFF" d="M2.594,3.545C0.655,1.595,1.318,0,4.068,0h50.959c2.75,0,3.413,1.595,1.474,3.545L33.074,27.096
		c-1.939,1.95-5.113,1.95-7.053,0L2.594,3.545z"/>
</g>
</svg>
