<?xml version="1.0" encoding="utf-8"?>
<!-- Generator: Adobe Illustrator 21.1.0, SVG Export Plug-In . SVG Version: 6.00 Build 0)  -->
<svg version="1.1" xmlns="http://www.w3.org/2000/svg" xmlns:xlink="http://www.w3.org/1999/xlink" x="0px" y="0px"
	 viewBox="0 0 494.7 254.7" style="enable-background:new 0 0 494.7 254.7;" xml:space="preserve">
<style type="text/css">
	.st0{display:none;}
	.st1{fill:#000044;}
	.st2{fill:none;}
</style>
<g id="Layer_1" class="st0">

		<image style="display:inline;overflow:visible;" width="342" height="366" xlink:href="BCAE139.jpg"  transform="matrix(1.8573 0 0 1.8573 -74.4741 -263.2122)">
	</image>
</g>
<g id="Layer_2">
	<path class="st1" d="M488.2,13c-3.6,0-6.5-2.9-6.5-6.5c0-3.6,2.9-6.5,6.5-6.5H0v7.3c0-3.6,2.9-6.5,6.5-6.5c3.6,0,6.5,2.9,6.5,6.5
		c0,3.6-2.9,6.5-6.5,6.5C2.9,13.8,0,10.9,0,7.3v247.3h247.7c-3.6,0-6.5-2.9-6.5-6.5c0-3.6,2.9-6.5,6.5-6.5c3.6,0,6.5,2.9,6.5,6.5
		c0,3.6-2.9,6.5-6.5,6.5h246.9V6.5C494.7,10.1,491.8,13,488.2,13z M1.8,37.2c-0.4-3.6,2.1-6.8,5.7-7.3c3.6-0.4,6.8,2.1,7.3,5.7
		c0.4,3.6-2.1,6.8-5.7,7.3C5.5,43.3,2.2,40.8,1.8,37.2z M7.2,66.6c-0.9-3.5,1.3-7,4.8-7.9c3.5-0.9,7,1.3,7.9,4.8
		c0.9,3.5-1.3,7-4.8,7.9C11.6,72.2,8.1,70.1,7.2,66.6z M24.5,98.9c-3.4,1.3-7.1-0.4-8.4-3.8c-1.3-3.4,0.4-7.1,3.8-8.4
		c3.4-1.3,7.1,0.4,8.4,3.8C29.6,93.9,27.9,97.6,24.5,98.9z M37.2,125.1c-3.2,1.7-7.1,0.4-8.8-2.7c-1.7-3.2-0.5-7.1,2.7-8.8
		c3.2-1.7,7.1-0.4,8.8,2.7C41.6,119.5,40.4,123.5,37.2,125.1z M52.9,149.6c-3,2-7,1.3-9.1-1.7c-2-3-1.3-7,1.7-9.1c3-2,7-1.3,9.1,1.7
		C56.6,143.5,55.9,147.6,52.9,149.6z M71.5,172c-2.7,2.4-6.8,2.1-9.2-0.5c-2.4-2.7-2.1-6.8,0.5-9.2s6.8-2.1,9.2,0.5
		C74.5,165.5,74.2,169.6,71.5,172z M92.7,192c-2.4,2.7-6.5,3-9.2,0.6c-2.7-2.4-3-6.5-0.6-9.2c2.4-2.7,6.5-3,9.2-0.6
		C94.8,185.2,95.1,189.4,92.7,192z M116.1,209.4c-2,3-6.1,3.7-9.1,1.7c-3-2-3.7-6.1-1.7-9.1c2-3,6.1-3.7,9.1-1.7
		C117.4,202.3,118.1,206.4,116.1,209.4z M141.5,223.7c-1.7,3.2-5.6,4.4-8.8,2.8c-3.2-1.7-4.4-5.6-2.8-8.8c1.7-3.2,5.6-4.4,8.8-2.8
		S143.1,220.5,141.5,223.7z M168.3,234.9c-1.3,3.4-5,5.1-8.4,3.8c-3.4-1.3-5.1-5-3.8-8.4c1.3-3.4,5-5.1,8.4-3.8
		C167.9,227.8,169.6,231.5,168.3,234.9z M196.4,242.8c-0.9,3.5-4.4,5.6-7.9,4.8c-3.5-0.9-5.6-4.4-4.8-7.9c0.9-3.5,4.4-5.6,7.9-4.8
		C195.1,235.8,197.2,239.3,196.4,242.8z M225.1,247.2c-0.4,3.6-3.7,6.1-7.2,5.7c-3.6-0.4-6.1-3.7-5.7-7.2c0.4-3.6,3.7-6.1,7.3-5.7
		C223,240.4,225.6,243.6,225.1,247.2z M277.6,252.8c-3.6,0.4-6.8-2.1-7.3-5.7c-0.4-3.6,2.1-6.8,5.7-7.3c3.6-0.4,6.8,2.1,7.3,5.7
		C283.7,249.1,281.2,252.4,277.6,252.8z M307,247.4c-3.5,0.9-7-1.3-7.9-4.8c-0.9-3.5,1.3-7,4.8-7.9c3.5-0.9,7,1.3,7.9,4.8
		S310.5,246.5,307,247.4z M335.5,238.4c-3.4,1.3-7.1-0.4-8.4-3.8c-1.3-3.4,0.4-7.1,3.8-8.4c3.4-1.3,7.1,0.4,8.4,3.8
		C340.6,233.4,338.9,237.1,335.5,238.4z M362.8,226.1c-3.2,1.7-7.1,0.5-8.8-2.7c-1.7-3.2-0.5-7.1,2.7-8.8c3.2-1.7,7.1-0.5,8.8,2.7
		S366,224.4,362.8,226.1z M388.3,210.6c-3,2-7,1.3-9.1-1.6c-2-3-1.3-7,1.6-9.1c3-2,7-1.3,9.1,1.6C392,204.5,391.3,208.5,388.3,210.6
		z M411.8,192.1c-2.7,2.4-6.8,2.1-9.2-0.5c-2.4-2.7-2.2-6.8,0.5-9.2c2.7-2.4,6.8-2.2,9.2,0.5S414.5,189.7,411.8,192.1z M432.9,170.9
		c-2.4,2.7-6.5,3-9.2,0.6c-2.7-2.4-3-6.5-0.6-9.2s6.5-3,9.2-0.6S435.3,168.2,432.9,170.9z M451.3,147.3c-2,3-6.1,3.7-9.1,1.7
		c-3-2-3.7-6.1-1.7-9.1c2-3,6.1-3.7,9.1-1.7C452.6,140.3,453.3,144.3,451.3,147.3z M466.7,121.6c-1.7,3.2-5.6,4.4-8.8,2.8
		c-3.2-1.7-4.4-5.6-2.8-8.8c1.7-3.2,5.6-4.4,8.8-2.8C467.1,114.5,468.3,118.5,466.7,121.6z M478.9,94.3c-1.3,3.4-5,5.1-8.4,3.8
		c-3.4-1.3-5.1-5-3.8-8.4s5-5.1,8.4-3.8C478.4,87.2,480.1,91,478.9,94.3z M487.7,65.8c-0.8,3.5-4.4,5.6-7.9,4.8
		c-3.5-0.9-5.7-4.4-4.8-7.9c0.8-3.5,4.4-5.6,7.9-4.8C486.4,58.8,488.5,62.3,487.7,65.8z M493,36.3c-0.4,3.6-3.7,6.1-7.2,5.7
		c-3.6-0.4-6.1-3.7-5.7-7.2c0.4-3.6,3.7-6.1,7.2-5.7C490.8,29.5,493.4,32.8,493,36.3z M488.2,0c3.6,0,6.5,2.9,6.5,6.5V0H488.2z"/>
	<rect x="0" y="104.6" class="st2" width="494.7" height="254.7"/>
</g>
</svg>
