<?xml version="1.0" encoding="utf-8"?>
<!-- Generator: Adobe Illustrator 21.1.0, SVG Export Plug-In . SVG Version: 6.00 Build 0)  -->
<svg version="1.1" xmlns="http://www.w3.org/2000/svg" xmlns:xlink="http://www.w3.org/1999/xlink" x="0px" y="0px"
	 viewBox="0 0 595.3 595.3" style="enable-background:new 0 0 595.3 595.3;" xml:space="preserve">
<style type="text/css">
	.st0{display:none;}
	.st1{fill:#1B1C3C;}
</style>
<g id="Layer_1" class="st0">
	
		<image style="display:inline;overflow:visible;" width="342" height="366" xlink:href="BCAE139.jpg"  transform="matrix(1.8573 0 0 1.8573 -19.9641 -91.0938)">
	</image>
</g>
<g id="Layer_2">
	<path class="st1" d="M0,0v595.3h595.3V0H0z M505.8,445.4c-2,3-6.1,3.7-9.1,1.7c-3-2-3.7-6.1-1.7-9.1c2-3,6.1-3.7,9.1-1.7
		C507.1,438.4,507.8,442.5,505.8,445.4z M487.4,469c-2.4,2.7-6.5,3-9.2,0.6s-3-6.5-0.6-9.2s6.5-3,9.2-0.6S489.8,466.3,487.4,469z
		 M466.3,490.2c-2.7,2.4-6.8,2.1-9.2-0.5c-2.4-2.7-2.1-6.8,0.5-9.2c2.7-2.4,6.8-2.2,9.2,0.5C469.3,483.7,469,487.8,466.3,490.2z
		 M442.8,508.7c-3,2-7,1.3-9.1-1.6c-2-3-1.3-7,1.6-9.1c3-2,7-1.3,9.1,1.6S445.8,506.7,442.8,508.7z M417.3,524.2
		c-3.2,1.7-7.1,0.5-8.8-2.7c-1.7-3.2-0.5-7.1,2.7-8.8c3.2-1.7,7.1-0.5,8.8,2.7S420.5,522.6,417.3,524.2z M390,536.6
		c-3.4,1.3-7.1-0.4-8.4-3.8c-1.3-3.4,0.4-7.1,3.8-8.4c3.4-1.3,7.1,0.4,8.4,3.8C395.1,531.5,393.4,535.3,390,536.6z M361.5,545.5
		c-3.5,0.9-7-1.3-7.9-4.8c-0.9-3.5,1.3-7,4.8-7.9c3.5-0.9,7,1.3,7.9,4.8S365,544.7,361.5,545.5z M332.1,551
		c-3.6,0.4-6.8-2.1-7.3-5.7c-0.4-3.6,2.1-6.8,5.7-7.3c3.6-0.4,6.8,2.1,7.3,5.7S335.7,550.5,332.1,551z M279.7,545.4
		c-0.4,3.6-3.7,6.1-7.2,5.7c-3.6-0.4-6.1-3.7-5.7-7.2c0.4-3.6,3.7-6.1,7.3-5.7S280.1,541.8,279.7,545.4z M250.9,541
		c-0.9,3.5-4.4,5.6-7.9,4.8c-3.5-0.9-5.6-4.4-4.8-7.9c0.9-3.5,4.4-5.6,7.9-4.8C249.6,533.9,251.7,537.5,250.9,541z M222.8,533.1
		c-1.3,3.4-5,5.1-8.4,3.8c-3.4-1.3-5.1-5-3.8-8.4c1.3-3.4,5-5.1,8.4-3.8C222.4,526,224.1,529.7,222.8,533.1z M196,521.9
		c-1.7,3.2-5.6,4.4-8.8,2.8c-3.2-1.7-4.4-5.6-2.8-8.8c1.7-3.2,5.6-4.4,8.8-2.8S197.6,518.7,196,521.9z M170.6,507.5
		c-2,3-6.1,3.7-9.1,1.7c-3-2-3.7-6.1-1.7-9.1c2-3,6.1-3.7,9.1-1.7C171.9,500.5,172.7,504.6,170.6,507.5z M147.2,490.2
		c-2.4,2.7-6.5,3-9.2,0.6c-2.7-2.4-2.9-6.5-0.6-9.2c2.4-2.7,6.5-3,9.2-0.6C149.3,483.4,149.6,487.5,147.2,490.2z M126,470.2
		c-2.7,2.4-6.8,2.1-9.2-0.5s-2.1-6.8,0.5-9.2s6.8-2.1,9.2,0.5S128.7,467.8,126,470.2z M107.5,447.8c-3,2-7,1.3-9.1-1.7
		c-2-3-1.3-7,1.7-9.1c3-2,7-1.3,9.1,1.7C111.2,441.7,110.4,445.7,107.5,447.8z M62,328.1c3.6-0.4,6.8,2.1,7.3,5.7
		c0.4,3.6-2.1,6.8-5.7,7.3c-3.6,0.4-6.8-2.1-7.3-5.7C55.9,331.8,58.4,328.5,62,328.1z M54.5,305.5c0-3.6,2.9-6.5,6.5-6.5
		s6.5,2.9,6.5,6.5c0,3.6-2.9,6.5-6.5,6.5S54.5,309.1,54.5,305.5z M66.5,356.9c3.5-0.9,7,1.3,7.9,4.8c0.9,3.5-1.3,7-4.8,7.9
		c-3.5,0.9-7-1.3-7.9-4.8C60.9,361.3,63,357.7,66.5,356.9z M74.4,384.9c3.4-1.3,7.1,0.4,8.4,3.8c1.3,3.4-0.4,7.1-3.8,8.4
		c-3.4,1.3-7.1-0.4-8.4-3.8C69.3,389.9,71,386.2,74.4,384.9z M85.6,411.8c3.2-1.7,7.1-0.4,8.8,2.7c1.7,3.2,0.4,7.1-2.7,8.8
		c-3.2,1.7-7.1,0.4-8.8-2.7C81.2,417.4,82.5,413.4,85.6,411.8z M295.7,546.3c0-3.6,2.9-6.5,6.5-6.5c3.6,0,6.5,2.9,6.5,6.5
		c0,3.6-2.9,6.5-6.5,6.5S295.8,549.9,295.7,546.3z M541.8,327.3c3.6,0.4,6.1,3.7,5.7,7.2c-0.4,3.6-3.7,6.1-7.2,5.7
		c-3.6-0.4-6.1-3.7-5.7-7.2C535,329.4,538.2,326.8,541.8,327.3z M536.2,304.7c0-3.6,2.9-6.5,6.5-6.5c3.6,0,6.5,2.9,6.5,6.5
		s-2.9,6.5-6.5,6.5C539.1,311.2,536.2,308.3,536.2,304.7z M537.4,356.1c3.5,0.9,5.6,4.4,4.8,7.9c-0.8,3.5-4.4,5.6-7.9,4.8
		c-3.5-0.9-5.6-4.4-4.8-7.9S533.9,355.2,537.4,356.1z M529.6,384.1c3.4,1.3,5.1,5,3.8,8.4c-1.3,3.4-5,5.1-8.4,3.8
		c-3.4-1.3-5.1-5-3.8-8.4C522.5,384.6,526.2,382.9,529.6,384.1z M521.2,419.8c-1.7,3.2-5.6,4.4-8.8,2.8c-3.2-1.7-4.4-5.6-2.8-8.8
		c1.7-3.2,5.6-4.4,8.8-2.8C521.6,412.7,522.9,416.6,521.2,419.8z"/>
</g>
</svg>
