<?xml version="1.0" encoding="utf-8"?>
<!-- Generator: Adobe Illustrator 21.1.0, SVG Export Plug-In . SVG Version: 6.00 Build 0)  -->
<svg version="1.1" xmlns="http://www.w3.org/2000/svg" xmlns:xlink="http://www.w3.org/1999/xlink" x="0px" y="0px"
	 viewBox="0 0 595.3 357" style="enable-background:new 0 0 595.3 357;" xml:space="preserve">
<style type="text/css">
	.st0{display:none;}
	.st1{fill:#000044;}
</style>
<g id="Layer_1" class="st0">

		<image style="display:inline;overflow:visible;" width="342" height="366" xlink:href="BCAE139.jpg"  transform="matrix(1.8573 0 0 1.8573 -19.9641 -307.9239)">
	</image>
</g>
<g id="Layer_2">
	<path class="st1" d="M0,0v357h595.3V0H0z M61,60.7c3.6,0,6.5,2.9,6.5,6.5c0,3.6-2.9,6.5-6.5,6.5c-3.6,0-6.5-2.9-6.5-6.5
		C54.5,63.6,57.4,60.7,61,60.7z M56.3,97c-0.4-3.6,2.1-6.8,5.7-7.3c3.6-0.4,6.8,2.1,7.3,5.7c0.4,3.6-2.1,6.8-5.7,7.3
		C60,103.1,56.8,100.6,56.3,97z M61.7,126.4c-0.9-3.5,1.3-7,4.8-7.9c3.5-0.9,7,1.3,7.9,4.8c0.9,3.5-1.3,7-4.8,7.9
		C66.1,132.1,62.6,129.9,61.7,126.4z M79,158.8c-3.4,1.3-7.1-0.4-8.4-3.8c-1.3-3.4,0.4-7.1,3.8-8.4c3.4-1.3,7.1,0.4,8.4,3.8
		C84.1,153.7,82.4,157.5,79,158.8z M91.7,185c-3.2,1.7-7.1,0.4-8.8-2.7c-1.7-3.2-0.5-7.1,2.7-8.8c3.2-1.7,7.1-0.4,8.8,2.7
		C96.1,179.4,94.9,183.3,91.7,185z M107.5,209.5c-3,2-7,1.3-9.1-1.7c-2-3-1.3-7,1.7-9.1c3-2,7-1.3,9.1,1.7
		C111.2,203.4,110.4,207.4,107.5,209.5z M126,231.9c-2.7,2.4-6.8,2.1-9.2-0.5c-2.4-2.7-2.1-6.8,0.5-9.2s6.8-2.1,9.2,0.5
		C129,225.4,128.7,229.5,126,231.9z M147.2,251.9c-2.4,2.7-6.5,3-9.2,0.6c-2.7-2.4-3-6.5-0.6-9.2c2.4-2.7,6.5-3,9.2-0.6
		C149.3,245.1,149.6,249.2,147.2,251.9z M170.6,269.2c-2,3-6.1,3.7-9.1,1.7c-3-2-3.7-6.1-1.7-9.1c2-3,6.1-3.7,9.1-1.7
		C171.9,262.2,172.7,266.3,170.6,269.2z M196,283.6c-1.7,3.2-5.6,4.4-8.8,2.8c-3.2-1.7-4.4-5.6-2.8-8.8c1.7-3.2,5.6-4.4,8.8-2.8
		S197.6,280.4,196,283.6z M222.8,294.8c-1.3,3.4-5,5.1-8.4,3.8c-3.4-1.3-5.1-5-3.8-8.4c1.3-3.4,5-5.1,8.4-3.8
		C222.4,287.6,224.1,291.4,222.8,294.8z M250.9,302.6c-0.9,3.5-4.4,5.6-7.9,4.8c-3.5-0.9-5.6-4.4-4.8-7.9c0.9-3.5,4.4-5.6,7.9-4.8
		C249.6,295.6,251.7,299.1,250.9,302.6z M279.7,307.1c-0.4,3.6-3.7,6.1-7.2,5.7c-3.6-0.4-6.1-3.7-5.7-7.2c0.4-3.6,3.7-6.1,7.3-5.7
		C277.5,300.3,280.1,303.5,279.7,307.1z M302.3,314.5c-3.6,0-6.5-2.9-6.5-6.5c0-3.6,2.9-6.5,6.5-6.5c3.6,0,6.5,2.9,6.5,6.5
		C308.8,311.6,305.9,314.5,302.3,314.5z M332.1,312.7c-3.6,0.4-6.8-2.1-7.3-5.7c-0.4-3.6,2.1-6.8,5.7-7.3c3.6-0.4,6.8,2.1,7.3,5.7
		C338.2,309,335.7,312.2,332.1,312.7z M361.5,307.2c-3.5,0.9-7-1.3-7.9-4.8c-0.9-3.5,1.3-7,4.8-7.9c3.5-0.9,7,1.3,7.9,4.8
		S365,306.4,361.5,307.2z M390,298.3c-3.4,1.3-7.1-0.4-8.4-3.8c-1.3-3.4,0.4-7.1,3.8-8.4c3.4-1.3,7.1,0.4,8.4,3.8
		C395.1,293.2,393.4,297,390,298.3z M417.3,285.9c-3.2,1.7-7.1,0.5-8.8-2.7c-1.7-3.2-0.5-7.1,2.7-8.8c3.2-1.7,7.1-0.5,8.8,2.7
		S420.5,284.3,417.3,285.9z M442.8,270.4c-3,2-7,1.3-9.1-1.6c-2-3-1.3-7,1.6-9.1c3-2,7-1.3,9.1,1.6
		C446.5,264.3,445.8,268.4,442.8,270.4z M466.3,251.9c-2.7,2.4-6.8,2.1-9.2-0.5c-2.4-2.7-2.2-6.8,0.5-9.2c2.7-2.4,6.8-2.2,9.2,0.5
		S469,249.5,466.3,251.9z M487.4,230.7c-2.4,2.7-6.5,3-9.2,0.6c-2.7-2.4-3-6.5-0.6-9.2s6.5-3,9.2-0.6S489.8,228,487.4,230.7z
		 M505.8,207.1c-2,3-6.1,3.7-9.1,1.7c-3-2-3.7-6.1-1.7-9.1c2-3,6.1-3.7,9.1-1.7C507.1,200.1,507.8,204.2,505.8,207.1z M521.2,181.5
		c-1.7,3.2-5.6,4.4-8.8,2.8c-3.2-1.7-4.4-5.6-2.8-8.8c1.7-3.2,5.6-4.4,8.8-2.8C521.6,174.4,522.8,178.3,521.2,181.5z M533.4,154.2
		c-1.3,3.4-5,5.1-8.4,3.8c-3.4-1.3-5.1-5-3.8-8.4s5-5.1,8.4-3.8C532.9,147.1,534.7,150.8,533.4,154.2z M542.2,125.6
		c-0.8,3.5-4.4,5.6-7.9,4.8c-3.5-0.9-5.7-4.4-4.8-7.9c0.8-3.5,4.4-5.6,7.9-4.8C540.9,118.6,543,122.1,542.2,125.6z M547.5,96.2
		c-0.4,3.6-3.7,6.1-7.2,5.7c-3.6-0.4-6.1-3.7-5.7-7.2c0.4-3.6,3.7-6.1,7.2-5.7C545.3,89.4,547.9,92.6,547.5,96.2z M542.7,72.9
		c-3.6,0-6.5-2.9-6.5-6.5c0-3.6,2.9-6.5,6.5-6.5c3.6,0,6.5,2.9,6.5,6.5S546.3,72.9,542.7,72.9z"/>
</g>
</svg>
